SplineFontDB: 3.0
FontName: Neuton-light
FullName: Neuton light
FamilyName: Neuton
Weight: Light
Copyright: Copyright (c) 2010, Brian M Zick (http://21326.info/),\nwith Reserved Font Name "Neuton".\nCleanup by Wallace Smith and William Zick.\nThis Font Software is licensed under the SIL Open Font License, Version 1.1.\nThis license is available with a FAQ at: http://scripts.sil.org/OFL
UComments: "2011-6-6: Created." 
Version: 1.3
ItalicAngle: 0
UnderlinePosition: -205
UnderlineWidth: 102
Ascent: 1571
Descent: 477
LayerCount: 2
Layer: 0 0 "Back"  1
Layer: 1 0 "Fore"  0
NeedsXUIDChange: 1
XUID: [1021 467 2011608612 1910391]
FSType: 0
OS2Version: 0
OS2_WeightWidthSlopeOnly: 0
OS2_UseTypoMetrics: 1
CreationTime: 1307389376
ModificationTime: 1307420445
OS2TypoAscent: 0
OS2TypoAOffset: 1
OS2TypoDescent: 0
OS2TypoDOffset: 1
OS2TypoLinegap: 184
OS2WinAscent: 0
OS2WinAOffset: 1
OS2WinDescent: 0
OS2WinDOffset: 1
HheadAscent: 0
HheadAOffset: 1
HheadDescent: 0
HheadDOffset: 1
MarkAttachClasses: 1
DEI: 91125
Encoding: UnicodeBmp
Compacted: 1
UnicodeInterp: none
NameList: Adobe Glyph List
DisplaySize: -96
AntiAlias: 1
FitToEm: 1
WinInfo: 0 9 9
Grid
-2048 -136 m 0
 4096 -136 l 0
-2048 -392 m 0
 4096 -392 l 0
-2048 1220 m 0
 4096 1220 l 0
  Named: "lcaccent" 
-2048 1695 m 0
 4096 1695 l 0
  Named: "accent" 
EndSplineSet
BeginChars: 65562 348

StartChar: A
Encoding: 65 65 0
Width: 1634
VWidth: 0
Flags: W
HStem: 0.5 71<52.5 99.6742 521.864 578.5 993 1047.43 1510.92 1551> 561.5 97<559 1018.5> 1544.5 20G<806.5 905.356>
DStem2: 231.5 124 362.5 117 0.357273 0.934<40.2648 513.127 616.23 616.23> 898.5 1564.5 797 1307.5 0.324257 -0.945969<210.202 895.959 997.283 1460.45>
LayerCount: 2
Fore
SplineSet
43.5 0 m 1
 52.5 71 l 1
 231.5 124 l 1
 772 1537 l 1
 898.5 1564.5 l 1
 1394.5 117.5 l 1
 1561 79 l 1
 1551 0.5 l 1
 980.5 0.5 l 1
 993 71.5 l 1
 1201.5 124.5 l 1
 1048 561.5 l 1
 524 561.5 l 1
 362.5 117 l 1
 591.5 78 l 1
 578.5 0 l 1
 43.5 0 l 1
559 658.5 m 1
 1018.5 658.5 l 1
 797 1307.5 l 1
 559 658.5 l 1
EndSplineSet
Validated: 524289
Colour: ffffff
EndChar

StartChar: AE
Encoding: 198 198 1
Width: 2081
VWidth: 0
Flags: W
HStem: 0 92.5<1216 1850> 0 71<9.5 54.2023 480.234 536 815 881.453> 582.5 99.5<656 1037.5> 735 90.5<1216 1569.5> 1447 88<1216 1815.5> 1464 71<710 796.331>
VStem: 1037.5 178.5<119 582.5 682 735 825.5 1326.5> 1600 82<519 612.578> 1634 89<939.615 987.5> 1854 80<1154.5 1263.42>
DStem2: 181 126 320 118.5 0.522354 0.852729<66.2117 607.876 722.235 722.235>
LayerCount: 2
Fore
SplineSet
0.5 2 m 1x7340
 9.5 73.5 l 1
 181 126 l 1
 975.5 1423 l 1
 700 1464 l 1
 710 1535 l 1
 1973.5 1535 l 1x7740
 1934 1142.5 l 1
 1854 1154.5 l 1
 1815.5 1447 l 1
 1216 1447 l 1
 1216 825.5 l 1
 1585.5 825.5 l 1
 1634 987.5 l 1
 1723 996.5 l 1x3ac0
 1682 519 l 1
 1600 504 l 1
 1569.5 735 l 1
 1216 735 l 1
 1216 92.5 l 1
 1850 92.5 l 1xbb40
 1956 402 l 1
 2031 386.5 l 1
 1994 0 l 1
 806.5 0 l 1
 815 71 l 1
 1037.5 119 l 1
 1037.5 582.5 l 1
 599.5 582.5 l 1
 320 118.5 l 1
 549.5 81 l 1
 536 2 l 1
 0.5 2 l 1x7340
656 682 m 1
 1039 682 l 1
 1042.5 1326.5 l 5
 656 682 l 1
EndSplineSet
Colour: ffffff
EndChar

StartChar: B
Encoding: 66 66 3
Width: 1401
VWidth: 0
Flags: W
HStem: 0 92.5<502 983.338> 0 71<113.5 175.473> 762.5 82<502 913.57> 1424.5 69.5<121.5 205.756> 1470 81<503.676 848.046>
VStem: 321 181<119 762.5 844.5 1393> 1034 179<1022.45 1308.87> 1155 186.5<272.828 600.606>
LayerCount: 2
Fore
SplineSet
101.5 0 m 1x65
 113.5 71 l 1
 321 119 l 1
 321 1393 l 1
 109.5 1424.5 l 1
 121.5 1494 l 1x75
 301 1520.5 479.5 1551 698.5 1551 c 0
 1052 1551 1213 1379 1213 1193 c 0x2e
 1213 1045 1128 913 958.5 837 c 1
 958.5 829 l 1
 1212 815 1341.5 632.5 1341.5 469 c 0
 1341.5 232.5 1189 0 683.5 0 c 2xad
 101.5 0 l 1x65
502 92.5 m 1xa5
 788.5 92.5 l 2
 1055.5 92.5 1155 263 1155 428.5 c 0
 1155 581.5 1057.5 762.5 797.5 762.5 c 2
 502 762.5 l 1
 502 92.5 l 1xa5
502 844.5 m 1
 852 844.5 l 1
 950 896.5 1034 994 1034 1137 c 0
 1034 1329 909 1470 625.5 1470 c 0x2e
 595 1470 535 1468.5 502 1462.5 c 1
 502 844.5 l 1
EndSplineSet
Validated: 524289
Colour: ffffff
EndChar

StartChar: C
Encoding: 67 67 4
Width: 1373
VWidth: 0
Flags: W
HStem: -30.5 134<679.737 1049.99> 1474 93<636.421 1033.19>
VStem: 133 201<504.996 1018.23> 1188 83.5<1044 1140.28>
LayerCount: 2
Fore
SplineSet
133 738.5 m 0
 133 1102.5 358.5 1567 877 1567 c 0
 1040.5 1567 1191 1534 1309.5 1444 c 1
 1271.5 1031 l 1
 1188 1044 l 1
 1144 1339.5 l 1
 1087 1413 990 1474 812.5 1474 c 0
 549.5 1474 334 1207 334 803 c 0
 334 350.5 573 103.5 897 103.5 c 0
 1074.5 103.5 1233.5 204 1337 310.5 c 1
 1372.5 241 l 1
 1284.5 124 1074 -30.5 812 -30.5 c 0
 434 -30.5 133 255 133 738.5 c 0
EndSplineSet
Validated: 524289
Colour: ffffff
EndChar

StartChar: D
Encoding: 68 68 6
Width: 1658
VWidth: 0
Flags: W
HStem: 0 97.5<504.5 966.251> 0 71<113.5 170.438> 1424 69<123 206.7> 1456.5 96.5<506.669 959.151>
VStem: 324 180.5<124 1392> 1390.5 201<540.576 1021.04>
LayerCount: 2
Fore
SplineSet
99.5 0 m 1x4c
 113.5 71 l 1
 324 124 l 1
 324 1392 l 1
 111.5 1424 l 1
 123 1493 l 1x6c
 366 1531 552.5 1553 732 1553 c 0
 1392 1553 1591.5 1187 1591.5 807 c 0
 1591.5 385 1302.5 0 670.5 0 c 2x9c
 99.5 0 l 1x4c
504.5 97.5 m 1x9c
 705 97.5 l 2
 1143 97.5 1390.5 369 1390.5 738.5 c 0
 1390.5 1152 1153.5 1456.5 686.5 1456.5 c 0
 636 1456.5 555 1457 504.5 1451 c 1
 504.5 97.5 l 1x9c
EndSplineSet
Validated: 524321
Colour: ffffff
EndChar

StartChar: Dcroat
Encoding: 272 272 7
Width: 1670
VWidth: 0
Flags: W
HStem: 0 97.5<510 1002.77> 0 71<119.5 176.303> 1424.5 69.5<128 213.984> 1457.5 96.5<512.079 965.911>
VStem: 329.5 180.5<124 724.5 829 1393> 1402 203<545.195 1022.53>
DStem2: 119.5 802 106.5 708 0.997403 0.072027<0 203.872 391.43 709.156>
LayerCount: 2
Fore
SplineSet
106.5 708 m 1x4c
 119.5 802 l 1
 329.5 817 l 1
 329.5 1393 l 1
 117.5 1424.5 l 1
 128 1494 l 1x6c
 371 1532 558 1554 737.5 1554 c 0
 1397.5 1554 1605 1190 1605 810 c 0
 1605 398 1308.5 0 687.5 0 c 2x9c
 106 0 l 1
 119.5 71 l 1
 329.5 124 l 1
 329.5 724.5 l 1
 106.5 708 l 1x4c
510 97.5 m 1x9c
 751.5 97.5 l 2
 1173 97.5 1402 376 1402 738.5 c 0
 1402 1152 1162 1457.5 692.5 1457.5 c 0
 642 1457.5 560.5 1457 510 1451 c 1
 510 829 l 1
 846 854 l 1
 833.5 760.5 l 1
 510 736.5 l 1
 510 97.5 l 1x9c
EndSplineSet
Validated: 524289
Colour: ffffff
EndChar

StartChar: E
Encoding: 69 69 8
Width: 1366
VWidth: 0
Flags: W
HStem: 0 92.5<510 1162.5> 0 71<118.5 180.623> 733 90.5<510 883> 1447 88<510 1130.5> 1462 73<114.5 179.947>
VStem: 326.5 183.5<119 733 823.5 1420> 913.5 82<517 611.372> 947 89.5<936.206 983.5> 1167.5 82<1152.5 1266.61>
LayerCount: 2
Fore
SplineSet
104 1462 m 1x6e80
 114.5 1535 l 1
 1287.5 1535 l 1x6e80
 1249.5 1140.5 l 1
 1167.5 1152.5 l 1
 1130.5 1447 l 1
 510 1447 l 1
 510 823.5 l 1
 898.5 823.5 l 1
 947 983.5 l 1
 1036.5 996.5 l 1x3580
 995.5 517 l 1
 913.5 503.5 l 1
 883 733 l 1
 510 733 l 1
 510 92.5 l 1
 1162.5 92.5 l 1xb680
 1268.5 400 l 1
 1345 386.5 l 1
 1308 0 l 1
 110.5 0 l 1
 118.5 71 l 1
 326.5 119 l 1
 326.5 1420 l 1
 104 1462 l 1x6e80
EndSplineSet
Validated: 524289
Colour: ffffff
EndChar

StartChar: Eng
Encoding: 330 330 10
Width: 1707
VWidth: 0
Flags: W
HStem: 0 78<98 134.859 604.537 642.5> 1464 71<89.5 133.947 1099.5 1156.6 1574.29 1641>
VStem: 304 124<119 1292> 1316 119.5<278 1423>
DStem2: 493 1535 428 1292 0.554086 -0.832459<166.272 1502.41>
LayerCount: 2
Fore
SplineSet
77.5 1466 m 1
 89.5 1535 l 1
 493 1535 l 1
 1316 278 l 1
 1316 1423 l 1
 1088 1464 l 1
 1099.5 1535 l 1
 1654.5 1535 l 1
 1641 1464 l 1
 1435.5 1426 l 1
 1435.5 186 l 2
 1435.5 -143 1291.5 -328.5 1116 -439 c 2
 1061.5 -473 l 1
 1010.5 -389 l 1
 1121 -307.5 1227 -188.5 1261 40.5 c 1
 428 1292 l 1
 428 111 l 1
 655 78 l 1
 642.5 0 l 1
 90 0 l 1
 98 71 l 1
 304 119 l 1
 304 1414.5 l 1
 77.5 1466 l 1
EndSplineSet
Validated: 524289
Colour: ffffff
EndChar

StartChar: Eth
Encoding: 208 208 11
Width: 1664
VWidth: 0
Flags: W
HStem: 0 97.5<504.5 997.272> 0 71<113.5 170.438> 1424.5 69.5<123 208.211> 1457.5 96.5<506.669 960.191>
VStem: 324 180.5<124 724.5 829 1393> 1396.5 203<545.195 1022.53>
DStem2: 113.5 802 101 708 0.997452 0.0713446<0 204.434 391.93 709.22>
LayerCount: 2
Fore
SplineSet
101 708 m 1x4c
 113.5 802 l 1
 324 817 l 1
 324 1393 l 1
 111.5 1424.5 l 1
 123 1494 l 1x6c
 366 1532 552.5 1554 732 1554 c 0
 1392 1554 1599.5 1190 1599.5 810 c 0
 1599.5 398 1303 0 682 0 c 2x9c
 99.5 0 l 1
 113.5 71 l 1
 324 124 l 1
 324 724.5 l 1
 101 708 l 1x4c
504.5 97.5 m 1x9c
 746 97.5 l 2
 1167.5 97.5 1396.5 376 1396.5 738.5 c 0
 1396.5 1152 1156 1457.5 686.5 1457.5 c 0
 636 1457.5 555 1457 504.5 1451 c 1
 504.5 829 l 1
 840.5 854 l 1
 827.5 760.5 l 1
 504.5 736.5 l 1
 504.5 97.5 l 1x9c
EndSplineSet
Validated: 524289
Colour: ffffff
EndChar

StartChar: Euro
Encoding: 8364 8364 12
Width: 1378
VWidth: 0
Flags: W
HStem: -30.5 108.5<681.984 1030.59> 608 102<-24.5 971.5> 829 101.5<-14.5 1030.5> 1468.5 98.5<657.965 1030.63>
VStem: 173.5 206.5<464.547 1052.31> 1156.5 81<1044 1139.2> 1176.5 82<418.267 514>
LayerCount: 2
Fore
SplineSet
-31.5 608 m 1xf8
 -24.5 710 l 1
 992.5 710 l 1
 971.5 608 l 1
 -31.5 608 l 1xf8
-21.5 829 m 1
 -14.5 930.5 l 1
 1051.5 930.5 l 1
 1030.5 829 l 1
 -21.5 829 l 1
173.5 752.5 m 0
 173.5 1158.5 406.5 1567 885 1567 c 0
 1048.5 1567 1158 1534 1276.5 1444 c 1
 1237.5 1031 l 1
 1156.5 1044 l 1xfc
 1112 1339.5 l 1
 1059 1417.5 996.5 1468.5 847.5 1468.5 c 0
 540.5 1468.5 380 1199.5 380 791 c 1
 380 354.5 568.5 78 881.5 78 c 0
 959 78 1061.5 116.5 1131.5 213.5 c 1
 1176.5 514 l 1
 1258.5 525.5 l 1xfa
 1297 132 l 1
 1147 19.5 1021.5 -30.5 819.5 -30.5 c 0
 434.5 -30.5 173.5 276.5 173.5 752.5 c 0
EndSplineSet
Validated: 524293
Colour: ffffff
EndChar

StartChar: F
Encoding: 70 70 13
Width: 1386
VWidth: 0
Flags: W
HStem: 0 71<112.5 174.772 710.711 785.5> 714.5 89.5<504.5 875.5> 1447 88<504.5 1118> 1462 73<110 175.105>
VStem: 321 183.5<119 714.5 804 1420> 905.5 85.5<496.5 593.365> 938.5 88<918.481 964.5> 1152 84.5<1151 1263.09>
LayerCount: 2
Fore
SplineSet
99.5 1462 m 1xdd
 110 1535 l 1
 1282 1535 l 1xdd
 1236.5 1138 l 1
 1152 1151 l 1
 1118 1447 l 1
 504.5 1447 l 1
 504.5 804 l 1
 888.5 804 l 1
 938.5 964.5 l 1
 1026.5 977.5 l 1xeb
 991 496.5 l 1
 905.5 482.5 l 1
 875.5 714.5 l 1
 504.5 714.5 l 1
 503 118.5 l 1
 800.5 84.5 l 1
 785.5 0 l 1
 106 0 l 1
 112.5 71 l 1
 321 119 l 1
 321 1420 l 1
 99.5 1462 l 1xdd
EndSplineSet
Validated: 524289
Colour: ffffff
EndChar

StartChar: G
Encoding: 71 71 14
Width: 1674
VWidth: 0
Flags: W
HStem: -31.5 106.5<717.541 1163.94> 610.5 75.5<932 991.118 1515.7 1559.5> 1458.5 98<651.474 1093.79>
VStem: 133 203<510.484 1001.18> 1214 186<122.209 571.5> 1288 81.5<1051 1143.14>
LayerCount: 2
Fore
SplineSet
133 729 m 0xf8
 133 1182 465.5 1556.5 906.5 1556.5 c 0
 1098 1556.5 1283 1514.5 1403.5 1433 c 1
 1369.5 1038 l 1
 1288 1051 l 1xf4
 1247 1314.5 l 1
 1190 1380 1050.5 1458.5 855.5 1458.5 c 0
 560.5 1458.5 336 1215 336 790 c 0
 336 428 523.5 75 947 75 c 0
 1053 75 1150 103.5 1214 146.5 c 1
 1215.5 571.5 l 1
 920.5 610.5 l 1
 932 686 l 1
 1571 686 l 1
 1559.5 615.5 l 1
 1400 576.5 l 1
 1400 97.5 l 1
 1236.5 0 1059 -31.5 812.5 -31.5 c 0
 394 -31.5 133 281.5 133 729 c 0xf8
EndSplineSet
Validated: 524289
Colour: ffffff
EndChar

StartChar: Germandbls
Encoding: 7838 7838 16
Width: 1585
VWidth: 0
Flags: W
HStem: -30.5 100.5<899.876 1250.69> 0 70.5<97 159.173> 1469.5 86<677.373 952.381>
VStem: 303 181<118 1215.68> 655.5 88<374.457 465.5> 675.5 165<1025.51 1265.66> 1334.5 126<1226.5 1270.87> 1356 180<199.737 445.291>
LayerCount: 2
Fore
SplineSet
88.5 0 m 1x75
 97 70.5 l 1
 303 118 l 1
 303 934.5 l 2
 303 1371 527.5 1555.5 894.5 1555.5 c 0
 1126 1555.5 1460.5 1478 1460.5 1292.5 c 0
 1460.5 1212 1416.5 1176.5 1334.5 1149.5 c 1
 1299.5 1280.5 1228.5 1422.5 1074 1422.5 c 0
 969.5 1422.5 840.5 1324.5 840.5 1167 c 0x76
 840.5 795.5 1536 798.5 1536 385 c 0
 1536 129.5 1328 -30.5 1036.5 -30.5 c 0
 860 -30.5 702.5 41 629 145.5 c 1
 655.5 479 l 1
 743.5 465.5 l 1
 782 221 l 1
 831.5 132.5 956.5 70 1083 70 c 0xb9
 1224 70 1356 138 1356 316 c 0
 1356 647 675.5 651.5 675.5 1078 c 0
 675.5 1249.5 780 1420.5 954 1461 c 1
 955.5 1465.5 l 1
 931 1468 872.5 1469.5 848 1469.5 c 0
 604.5 1469.5 483 1277.5 483 962.5 c 2
 484 0 l 1
 88.5 0 l 1x75
EndSplineSet
Validated: 524289
Colour: ffffff
EndChar

StartChar: H
Encoding: 72 72 17
Width: 1784
VWidth: 0
Flags: W
HStem: 0 78<120 156.948 689.093 725.5 1137 1173.59 1700.59 1740> 728.5 100<511 1341.5> 1464 71<111.5 181.149 640.841 719.5 1126 1194.2 1653.97 1731.5>
VStem: 326.5 184.5<119 728.5 828.5 1423> 1341.5 184.5<119 730 828.5 1423>
LayerCount: 2
Fore
SplineSet
103 1464 m 1
 111.5 1535 l 1
 728.5 1535 l 1
 719.5 1464 l 1
 511 1426 l 1
 511 828.5 l 1
 1341.5 828.5 l 1
 1341.5 1423 l 1
 1115 1464 l 1
 1126 1535 l 1
 1743 1535 l 1
 1731.5 1464 l 1
 1526 1426 l 1
 1526 111 l 1
 1750.5 78 l 1
 1740 0 l 1
 1125 0 l 1
 1137 71 l 1
 1341.5 119 l 1
 1341.5 730 l 1
 511 728.5 l 1
 511 111 l 1
 740 78 l 1
 725.5 0 l 1
 112.5 0 l 1
 120 71 l 1
 326.5 119 l 1
 326.5 1423 l 1
 103 1464 l 1
EndSplineSet
Validated: 524289
Colour: ffffff
EndChar

StartChar: Hbar
Encoding: 294 294 18
Width: 1789
VWidth: 0
Flags: W
HStem: 0 78<137.5 174.448 706.593 743 1154.5 1191.09 1718.09 1757.5> 728.5 100<528.5 1359> 1120.5 115<163 401 1466 1691> 1135.5 86<442 1436> 1464 71<129 198.649 658.341 737 1143.5 1211.7 1671.47 1749>
VStem: 344 184.5<119 728.5 828.5 1423> 1359 184.5<119 730 828.5 1423>
LayerCount: 2
Fore
SplineSet
152 1120.5 m 1xee
 163 1235.5 l 1
 401 1235.5 l 1xee
 442 1221.5 l 1
 1436 1221.5 l 1xde
 1460 1235.5 l 1
 1699 1235.5 l 1
 1691 1120.5 l 1
 1466 1120.5 l 1xee
 1436 1135.5 l 1
 435 1135.5 l 1xde
 401 1120.5 l 1
 152 1120.5 l 1xee
EndSplineSet
Refer: 17 72 N 1 0 0 1 17.5 0 2
Validated: 524293
Colour: ffffff
EndChar

StartChar: I
Encoding: 73 73 19
Width: 832
VWidth: 0
Flags: W
HStem: 0 78<124 159.875 690.537 729.5> 1464 71<115.5 182.075 643.143 723.5>
VStem: 324.5 186<119 1423>
LayerCount: 2
Fore
SplineSet
105.5 1464 m 1
 115.5 1535 l 1
 733.5 1535 l 1
 723.5 1464 l 1
 510.5 1426 l 1
 510.5 111 l 1
 742 78 l 1
 729.5 0 l 1
 116 0 l 1
 124 71 l 1
 324.5 119 l 1
 324.5 1423 l 1
 105.5 1464 l 1
EndSplineSet
Validated: 524289
Colour: ffffff
EndChar

StartChar: J
Encoding: 74 74 20
Width: 758
VWidth: 0
Flags: W
HStem: 1464 71<110.5 179.998 641.775 721>
VStem: 325.5 183<58.5377 1423>
LayerCount: 2
Fore
SplineSet
23 -319.5 m 1
 221.5 -141 325.5 29 325.5 258 c 2
 326 1423 l 1
 101.5 1464 l 1
 110.5 1535 l 1
 731 1535 l 1
 721 1464 l 1
 511 1426 l 1
 508.5 459.5 l 2
 506.5 -33.5 402 -178 70.5 -401.5 c 1
 23 -319.5 l 1
EndSplineSet
Validated: 524289
Colour: ffffff
EndChar

StartChar: K
Encoding: 75 75 21
Width: 1512
VWidth: 0
Flags: W
HStem: 0 78<123.5 155.794 699.548 730.5> 1464 71<114.5 171.751 653.127 722.5 905.5 963.737 1384.6 1451.5>
VStem: 326 186<124 1417.5>
DStem2: 741.5 800.5 562 745.5 0.612083 -0.790793<0 791.662> 744.5 975 741.5 800.5 0.633034 0.774124<-136.984 569.775>
LayerCount: 2
Fore
SplineSet
103 1464 m 1
 114.5 1535 l 1
 731 1535 l 1
 722.5 1464 l 1
 512 1420.5 l 1
 512 117 l 1
 743 78 l 1
 730.5 0 l 1
 113.5 0 l 1
 123.5 71 l 1
 326 124 l 1
 326 1417.5 l 1
 103 1464 l 1
560.5 768 m 1
 603.5 813.5 684.5 901.5 744.5 975 c 2
 1101 1419.5 l 1
 898.5 1464 l 1
 905.5 1535 l 1
 1461 1535 l 1
 1451.5 1464 l 1
 1248.5 1420.5 l 1
 741.5 800.5 l 1
 1044 442 l 2
 1225 227.5 1316.5 120 1469.5 84.5 c 2
 1525.5 72 l 1
 1512 2 l 1
 1455 -17.5 1416.5 -26.5 1366 -26.5 c 0
 1181 -26.5 1047 119 904.5 303 c 2
 562 745.5 l 1
 560.5 768 l 1
EndSplineSet
Validated: 524289
Colour: ffffff
EndChar

StartChar: L
Encoding: 76 76 22
Width: 1343
VWidth: 0
Flags: W
HStem: 0 92.5<515.5 1117> 0 71<125.5 187.175> 1462.5 72<121 178.443 658.101 732>
VStem: 332 183.5<119 1416>
LayerCount: 2
Fore
SplineSet
116.5 0 m 1x70
 125.5 71 l 1x70
 332 119 l 1
 332 1416 l 1
 110 1462.5 l 1
 121 1534.5 l 1
 740.5 1534.5 l 1
 732 1462.5 l 1
 515.5 1420.5 l 1
 515.5 92.5 l 1
 1117 92.5 l 1xb0
 1245.5 421 l 1
 1325.5 408 l 1
 1282.5 0 l 1
 116.5 0 l 1x70
EndSplineSet
Validated: 524289
Colour: ffffff
EndChar

StartChar: Lslash
Encoding: 321 321 23
Width: 1343
VWidth: 0
Flags: W
HStem: 0 71<125.5 187.175> 0 92.5<515.5 1117> 1060 20G<705.645 737.797> 1462.5 72<121 178.443 658.101 732>
VStem: 332 183.5<119 1416>
DStem2: 134.5 727.5 122 605.5 0.86155 0.507673<0 629.518>
LayerCount: 2
Fore
SplineSet
122 605.5 m 1x38
 134.5 727.5 l 1
 740 1080 l 1
 727 962 l 1
 122 605.5 l 1x38
EndSplineSet
Refer: 22 76 N 1 0 0 1 0 0 2
Validated: 524293
Colour: ffffff
EndChar

StartChar: M
Encoding: 77 77 24
Width: 2074
VWidth: 0
Flags: W
HStem: 0 66<73 134.675 544.658 614.5 1446 1508.27 1977.88 2051.5> 1466 69<159.5 218.745 1907.82 1979.5>
DStem2: 279.5 114 401 105.5 0.0729293 0.997337<0.383547 1204.6> 695.5 1299.5 489 1306.5 0.346086 -0.938203<-78.0342 1032.28> 1050 330 1062.5 68 0.379524 0.925182<0 1137.75>
LayerCount: 2
Fore
SplineSet
63 0 m 1
 73 66 l 1
 279.5 114 l 1
 375 1420 l 1
 148 1466 l 1
 159.5 1535 l 1
 603 1535 l 1
 695.5 1299.5 l 1
 1050 330 l 1
 1462 1347 l 1
 1544 1535 l 1
 1989 1535 l 1
 1979.5 1466 l 1
 1769.5 1424 l 1
 1835.5 105.5 l 1
 2059 74 l 1
 2051.5 0 l 1
 1435.5 0 l 1
 1446 66 l 1
 1654.5 114 l 1
 1584.5 1340.5 l 1
 1062.5 68 l 1
 952.5 50 l 1
 489 1306.5 l 1
 401 105.5 l 1
 626.5 74 l 1
 614.5 0 l 1
 63 0 l 1
EndSplineSet
Validated: 524289
Colour: ffffff
EndChar

StartChar: N
Encoding: 78 78 25
Width: 1730
VWidth: 0
Flags: W
HStem: 0 78<98 134.859 604.537 642.5> 1464 71<89.5 133.947 1099.5 1156.6 1574.29 1641>
VStem: 304 124<119 1292> 1316 119.5<278 1423>
DStem2: 493 1535 428 1292 0.554264 -0.832341<166.232 1502.41>
LayerCount: 2
Fore
SplineSet
77.5 1466 m 1
 89.5 1535 l 1
 493 1535 l 1
 1316 278 l 1
 1316 1423 l 1
 1088 1464 l 1
 1099.5 1535 l 1
 1654.5 1535 l 1
 1641 1464 l 1
 1435.5 1426 l 1
 1435.5 -3.5 l 1
 1308 -29.5 l 1
 428 1292 l 1
 428 111 l 1
 655 78 l 1
 642.5 0 l 1
 90 0 l 1
 98 71 l 1
 304 119 l 1
 304 1414.5 l 1
 77.5 1466 l 1
EndSplineSet
Validated: 524289
Colour: ffffff
EndChar

StartChar: O
Encoding: 79 79 26
Width: 1643
VWidth: 0
Flags: W
HStem: -33 105<681.783 1077.29> 1476.5 94.5<634.779 1034.98>
VStem: 137.5 205<509.461 1055.51> 1373.5 204<494.064 1030.69>
LayerCount: 2
Fore
SplineSet
137.5 764.5 m 0
 137.5 1239 430.5 1571 900 1571 c 0
 1334.5 1571 1577.5 1213 1577.5 769.5 c 0
 1577.5 368 1320.5 -33 814 -33 c 0
 405.5 -33 137.5 323.5 137.5 764.5 c 0
342.5 836 m 0
 342.5 427 515.5 72 874 72 c 0
 1240.5 72 1373.5 408 1373.5 707.5 c 0
 1373.5 1117.5 1194 1476.5 840.5 1476.5 c 0
 474.5 1476.5 342.5 1157.5 342.5 836 c 0
EndSplineSet
Validated: 524289
Colour: ffffff
EndChar

StartChar: OE
Encoding: 338 338 27
Width: 2072
VWidth: 0
Flags: W
HStem: -33 101<597.781 977.556> 0 92.5<1165.5 1791.5> 733 90.5<1165.5 1511> 1447 89<1165.5 1758.5> 1476.5 94.5<563.495 935.44>
VStem: 79 204<504.124 1074.99> 981 184.5<94.8453 733 823.5 1431.23> 1542 83<517 609.633> 1576 90<936.689 983.5> 1796.5 81<1152.5 1263.6>
LayerCount: 2
Fore
SplineSet
79 764.5 m 0xa740
 79 1242.5 344 1571 811 1571 c 0xaf40
 891.5 1571 969 1560.5 1034.5 1536 c 1
 1916 1535 l 1
 1877.5 1140.5 l 1
 1796.5 1152.5 l 1
 1758.5 1447 l 1
 1165.5 1447 l 1
 1165.5 823.5 l 1
 1527 823.5 l 1
 1576 983.5 l 1
 1666 996.5 l 1x36c0
 1625 517 l 1
 1542 503.5 l 1
 1511 733 l 1
 1165.5 733 l 1
 1165.5 92.5 l 1
 1791.5 92.5 l 1
 1896.5 400 l 1
 1973.5 386.5 l 1
 1936 0 l 1
 977 0 l 1x7740
 895.5 -19.5 810 -33 725.5 -33 c 0
 321 -33 79 317.5 79 764.5 c 0xa740
283 836 m 0
 283 447.5 443.5 68 780.5 68 c 0
 854 68 920 82.5 981 114.5 c 1
 981 1405 l 1
 913.5 1453 837.5 1476.5 752 1476.5 c 0
 437 1476.5 283 1203 283 836 c 0
EndSplineSet
Validated: 524289
Colour: ffffff
EndChar

StartChar: Oslash
Encoding: 216 216 28
Width: 1649
VWidth: 0
Flags: W
HStem: -33 105<689.546 1084.74> 1476.5 94.5<642.029 1042.22>
VStem: 145 204.5<509.461 1055.51> 1380.5 204<494.064 1031.75>
LayerCount: 2
Fore
SplineSet
217 9.5 m 1
 388.5 239 l 1
 437 267 l 1
 1241 1327.5 l 1
 1251.5 1373.5 l 1
 1363.5 1521 l 1
 1512 1504.5 l 1
 1359.5 1319.5 l 1
 1300.5 1274.5 l 1
 479.5 191 l 1
 473 154.5 l 1
 360 -6.5 l 1
 217 9.5 l 1
349.5 836 m 0
 349.5 427 524.5 72 881.5 72 c 0
 1248 72 1380.5 408 1380.5 707.5 c 0
 1380.5 1117.5 1201 1476.5 847.5 1476.5 c 0
 481.5 1476.5 349.5 1157.5 349.5 836 c 0
145 764.5 m 0
 145 1239 438 1571 907.5 1571 c 0
 1342 1571 1584.5 1218.5 1584.5 769.5 c 0
 1584.5 368 1328 -33 821.5 -33 c 0
 413 -33 145 323.5 145 764.5 c 0
EndSplineSet
Validated: 524293
Colour: ffffff
EndChar

StartChar: P
Encoding: 80 80 29
Width: 1382
VWidth: 0
Flags: W
HStem: 0 71<114.5 174.532 700.97 778.5> 602.5 82.5<596.5 855.467> 1424.5 69.5<121.5 203.798> 1471 78<503.045 839.706>
VStem: 315.5 186.5<119 1393> 1068.5 204<908.178 1258.74>
LayerCount: 2
Fore
SplineSet
105 0 m 1xdc
 114.5 71 l 1
 315.5 119 l 1
 315.5 1393 l 1
 110.5 1424.5 l 1
 121.5 1494 l 1xec
 281 1518.5 453.5 1549 664.5 1549 c 0
 987.5 1549 1272.5 1437.5 1272.5 1101 c 0
 1272.5 803.5 993 602.5 688.5 602.5 c 0
 656.5 602.5 625 603.5 596.5 605.5 c 1
 579 682.5 l 1
 644.5 685 l 2
 941.5 696.5 1068.5 846.5 1068.5 1066.5 c 0
 1068.5 1277.5 935.5 1471 633 1471 c 0
 582.5 1471 502 1463.5 502 1463.5 c 1
 502 116.5 l 1
 792.5 80 l 1
 778.5 0 l 1
 105 0 l 1xdc
EndSplineSet
Validated: 524289
Colour: ffffff
EndChar

StartChar: Q
Encoding: 81 81 30
Width: 1659
VWidth: 0
Flags: W
HStem: -437.5 74.5<1360.77 1536.38> 1471.5 99.5<641.272 1029.75>
VStem: 137.5 193<537.224 1045.59> 1392.5 194<501.535 1013.16>
LayerCount: 2
Fore
SplineSet
137.5 757.5 m 0
 137.5 1233 441 1571 909 1571 c 0
 1340.5 1571 1586.5 1215 1586.5 775.5 c 0
 1586.5 427 1379.5 75 1006 -11.5 c 1
 1112 -246 1248.5 -324.5 1544 -363 c 1
 1542.5 -381.5 1538.5 -423 1532.5 -437.5 c 1
 1473.5 -465.5 1399 -474.5 1329.5 -474.5 c 0
 1109 -474.5 936.5 -287.5 904.5 -26.5 c 1
 883 -30.5 840.5 -33 815 -33 c 0
 419 -33 137.5 316.5 137.5 757.5 c 0
330.5 826 m 0
 330.5 454 529.5 74.5 937.5 58 c 1
 1247.5 127 1392.5 411.5 1392.5 701 c 0
 1392.5 1117.5 1183.5 1471.5 844 1471.5 c 0
 515.5 1471.5 330.5 1209.5 330.5 826 c 0
EndSplineSet
Validated: 524289
Colour: ffffff
EndChar

StartChar: R
Encoding: 82 82 31
Width: 1475
VWidth: 0
Flags: W
HStem: 0 71<140.5 200.233 692.965 756.5> 683.5 91<522 761> 1422 69.5<147.5 229.07> 1466.5 80<525.571 862.332>
VStem: 340.5 181.5<119 683.5 774.5 1390.5> 1052 195.5<998.935 1300.25>
LayerCount: 2
Fore
SplineSet
130 0 m 1xdc
 140.5 71 l 1
 340.5 119 l 1
 340.5 1390.5 l 1
 136 1422 l 1
 147.5 1491.5 l 1xec
 330 1520.5 508 1546.5 691 1546.5 c 0
 1009 1546.5 1247.5 1438.5 1247.5 1174 c 0
 1247.5 1011 1145 851 900 746 c 1
 900 745 l 1
 1130.5 415 l 2
 1294.5 179.5 1354.5 116 1472 78.5 c 2
 1522 62.5 l 1
 1509 -2 l 1
 1456 -20.5 1423.5 -24 1377.5 -24 c 0
 1208.5 -24 1094.5 116 985 302.5 c 2
 761 683.5 l 1
 522 683.5 l 1
 522 118 l 1
 768 79.5 l 1
 756.5 0 l 1
 130 0 l 1xdc
522 774.5 m 1
 784 774.5 l 1
 924.5 825 1052 951 1052 1122.5 c 0
 1052 1335 908 1466.5 670.5 1466.5 c 0xdc
 593.5 1466.5 522 1460 522 1460 c 1
 522 774.5 l 1
EndSplineSet
Validated: 524289
Colour: ffffff
EndChar

StartChar: S
Encoding: 83 83 32
Width: 1087
VWidth: 0
Flags: W
HStem: -30.5 101<380.086 725.176> 1072 21G<819 911.306> 1480 87<407.446 698.759>
VStem: 125.5 92.5<386.236 474> 143.5 167.5<1096.55 1341.11> 819 90.5<1083.5 1205.7> 851 181.5<228.437 466.902>
LayerCount: 2
Fore
SplineSet
98.5 146.5 m 1xea
 125.5 487.5 l 1
 218 474 l 1
 259 223 l 1
 309 134 429.5 70.5 556.5 70.5 c 0
 698 70.5 851 155.5 851 338.5 c 0xf2
 851 683.5 143.5 712 143.5 1157 c 0
 143.5 1419.5 367.5 1567 588 1567 c 0
 721 1567 852 1524 942.5 1437.5 c 1
 942.5 1432.5 909.5 1072 909.5 1072 c 1
 819 1083.5 l 1xec
 787.5 1352 l 1
 754.5 1415.5 651.5 1480 552 1480 c 0
 421 1480 311 1396 311 1234.5 c 0
 311 862 1032.5 839.5 1032.5 408.5 c 0
 1032.5 150.5 803 -30.5 509.5 -30.5 c 0
 331.5 -30.5 177.5 49 98.5 146.5 c 1xea
EndSplineSet
Validated: 524289
Colour: ffffff
EndChar

StartChar: T
Encoding: 84 84 33
Width: 1399
VWidth: 0
Flags: W
HStem: 0 78<411 449.022 987.375 1016> 1447 88<221.5 623.5 808 1224.5>
VStem: 78.5 88.5<1138 1209.7> 623.5 184.5<119 1447> 1258.5 89.5<1134.5 1260.98>
LayerCount: 2
Fore
SplineSet
68 1535 m 1
 1390.5 1535 l 1
 1348 1121.5 l 1
 1258.5 1134.5 l 1
 1224.5 1447 l 1
 808 1447 l 1
 808 115.5 l 1
 1031 78 l 1
 1016 0 l 1
 403.5 0 l 1
 411 71 l 1
 623.5 119 l 1
 623.5 1447 l 1
 221.5 1447 l 1
 167 1125 l 1
 78.5 1138 l 1
 68 1535 l 1
EndSplineSet
Validated: 524289
Colour: ffffff
EndChar

StartChar: Tbar
Encoding: 358 358 34
Width: 1399
VWidth: 0
Flags: W
HStem: 0 78<420 458.022 996.375 1025> 735 115<234 1216> 1447 88<230.5 632.5 817 1233.5>
VStem: 87.5 88.5<1138 1209.7> 632.5 184.5<119 1447> 1267.5 89.5<1134.5 1260.98>
LayerCount: 2
Fore
SplineSet
223 735 m 5
 234 850 l 5
 1224 850 l 5
 1216 735 l 5
 223 735 l 5
EndSplineSet
Refer: 33 84 N 1 0 0 1 9 0 2
Colour: ffffff
EndChar

StartChar: Thorn
Encoding: 222 222 35
Width: 1097
VWidth: 0
Flags: W
HStem: -0.5 71<116.5 177.918 701.953 781> 313.5 85<595.716 855.058> 1175.5 87.5<504 843.851> 1464 71<110 177.25 637.577 718.5>
VStem: 320 184<118 1170.85 1259.5 1423> 1070.5 204<620.257 970.981>
LayerCount: 2
Fore
SplineSet
100.5 1464 m 1
 110 1535 l 1
 728 1535 l 1
 718.5 1464 l 1
 504 1426 l 1
 504 1259.5 l 1
 554.5 1261.5 616 1263 666.5 1263 c 0
 993 1263 1274.5 1151 1274.5 814 c 0
 1274.5 513 1007 313.5 702.5 313.5 c 0
 669.5 313.5 634 315 598.5 319 c 1
 593.5 334 581.5 372.5 581.5 397 c 1
 592.5 396.5 636.5 398.5 646.5 398.5 c 1
 943.5 406 1070.5 560 1070.5 780 c 0
 1070.5 991 933.5 1175.5 637 1175.5 c 0
 586.5 1175.5 504 1167 504 1167 c 1
 504 115.5 l 1
 794.5 79.5 l 1
 781 -0.5 l 1
 107.5 -0.5 l 1
 116.5 70.5 l 1
 320 118 l 5
 320 1423 l 1
 100.5 1464 l 1
EndSplineSet
Colour: ffffff
EndChar

StartChar: U
Encoding: 85 85 36
Width: 1692
VWidth: 0
Flags: W
HStem: -33 123.5<713.504 1133.33> 1464 71<86 154.023 613.652 692.5 1134.5 1204.22 1602.66 1680>
VStem: 301 182.5<350.095 1423> 1351 118.5<328.535 1423>
LayerCount: 2
Fore
SplineSet
75 1464 m 1
 86 1535 l 1
 700.5 1535 l 1
 692.5 1464 l 1
 483.5 1426 l 1
 483.5 620 l 2
 483.5 231.5 666 90.5 928 90.5 c 0
 1192 90.5 1350.5 249 1351 574.5 c 2
 1352.5 1423 l 1
 1124.5 1464 l 1
 1134.5 1535 l 1
 1691 1535 l 1
 1680 1464 l 1
 1475 1426 l 1
 1469.5 620 l 2
 1467 197 1298.5 -33 877 -33 c 0
 592.5 -33 301 75.5 301 574 c 2
 301 1423 l 1
 75 1464 l 1
EndSplineSet
Validated: 524289
Colour: ffffff
EndChar

StartChar: V
Encoding: 86 86 40
Width: 1553
VWidth: 0
Flags: W
HStem: 1466 69<56 105.472 566.453 641 1048 1114.79 1505.3 1563>
DStem2: 433 1426 228.5 1421.5 0.333414 -0.94278<0 1240.47> 839.5 254 867.5 -4.5 0.350011 0.936746<0 1243.98>
LayerCount: 2
Fore
SplineSet
47 1466 m 1
 56 1535 l 1
 650 1535 l 1
 641 1466 l 1
 433 1426 l 1
 839.5 254 l 1
 1269 1421.5 l 1
 1041.5 1466 l 1
 1048 1535 l 1
 1569.5 1535 l 1
 1563 1466 l 1
 1402 1426 l 1
 867.5 -4.5 l 1
 742 -30.5 l 1
 228.5 1421.5 l 1
 47 1466 l 1
EndSplineSet
Validated: 524289
Colour: ffffff
EndChar

StartChar: W
Encoding: 87 87 41
Width: 2311
VWidth: 0
Flags: W
HStem: 1465.5 69.5<63.5 97.0789 550.573 612 1698.5 1748.05 2161.29 2203.5>
DStem2: 407 1426 215 1422 0.270515 -0.962716<0 1193.87> 733 277.5 767 -5.5 0.285119 0.958492<0 994.059> 1228 1497.5 1125 1198 0.256855 -0.96645<262.996 1254.01> 1555.5 287 1587 -5.5 0.311438 0.950267<0 1188.93>
LayerCount: 2
Fore
SplineSet
53 1465.5 m 1
 63.5 1535 l 1
 623.5 1535 l 1
 612 1468 l 1
 407 1426 l 1
 733 277.5 l 1
 1091 1478.5 l 1
 1228 1497.5 l 1
 1555.5 287 l 1
 1916 1420 l 1
 1689 1467 l 1
 1698.5 1535 l 1
 2213 1535 l 1
 2203.5 1466 l 1
 2055.5 1424 l 1
 1587 -5.5 l 1
 1451.5 -30.5 l 1
 1125 1198 l 1
 767 -5.5 l 1
 623 -30 l 1
 215 1422 l 1
 53 1465.5 l 1
EndSplineSet
Validated: 524289
Colour: ffffff
EndChar

StartChar: X
Encoding: 88 88 42
Width: 1475
VWidth: 0
Flags: W
HStem: 0 77<419.014 495> 0 71.5<8.5 27.9607 897 923.613 1443.57 1459.5> 1467 68<38 83.861 545.152 604.5 956 1017.18 1387.36 1447>
DStem2: 163.5 114 305 109.5 0.598445 0.801164<81.0747 782.898 989.269 1643.98> 412 1420.5 197.5 1423.5 0.560779 -0.827966<0 634.052 784.827 1467.66>
LayerCount: 2
Fore
SplineSet
-2.5 0 m 1x60
 8.5 69 l 1
 163.5 114 l 1
 646 764.5 l 1
 197.5 1423.5 l 1
 28 1467 l 1
 38 1535 l 1
 613.5 1535 l 1
 604.5 1467 l 1
 412 1420.5 l 1
 769 896.5 l 1
 1155.5 1425 l 1
 945.5 1464.5 l 1
 956 1535 l 1
 1452 1535 l 1
 1447 1466 l 1
 1291 1429.5 l 1
 838 807 l 1
 1304 103.5 l 1
 1471.5 71.5 l 1
 1459.5 0 l 1
 886 0 l 1x60
 897 62.5 l 1
 1096.5 111.5 l 1
 716 678.5 l 1
 305 109.5 l 1
 509 77 l 1
 495 0 l 1xa0
 -2.5 0 l 1x60
EndSplineSet
Validated: 524289
Colour: ffffff
EndChar

StartChar: Y
Encoding: 89 89 43
Width: 1374
VWidth: 0
Flags: W
HStem: 0 78<397 432.875 948.15 983> 1465.5 69<-0.5 42.6675 491.647 561 859.5 923.381 1312.01 1367>
VStem: 597.5 184<119 613>
DStem2: 360.5 1425.5 160.5 1421 0.475722 -0.879596<0 770.646> 725 746.5 781.5 628 0.473079 0.88102<0 762.158>
LayerCount: 2
Fore
SplineSet
-10.5 1465.5 m 1
 -0.5 1534.5 l 1
 571 1534.5 l 1
 561 1465.5 l 1
 360.5 1425.5 l 1
 725 746.5 l 1
 1079 1421.5 l 1
 852 1466 l 1
 859.5 1535 l 1
 1374.5 1535 l 1
 1367 1466 l 1
 1210 1426 l 1
 781.5 628 l 1
 781.5 112 l 1
 994 78 l 1
 983 0 l 1
 387.5 0 l 1
 397 71 l 1
 597.5 119 l 1
 597.5 613 l 1
 160.5 1421 l 1
 -10.5 1465.5 l 1
EndSplineSet
Validated: 524289
Colour: ffffff
EndChar

StartChar: Z
Encoding: 90 90 47
Width: 1297
VWidth: 0
Flags: W
HStem: 0 97.5<270 1033> 1443 92<286.5 1010>
VStem: 110.5 80<1132 1163.56>
DStem2: 55.5 87 270 97.5 0.57762 0.816306<132.471 1658.25>
LayerCount: 2
Fore
SplineSet
55.5 87 m 1
 1010 1443 l 1
 286.5 1443 l 1
 190.5 1114.5 l 1
 110.5 1132 l 1
 122 1535 l 1
 1235.5 1535 l 1
 1238 1465.5 l 1
 270 97.5 l 1
 1033 97.5 l 1
 1174.5 427.5 l 1
 1259.5 414 l 1
 1200 0 l 1
 64 0 l 1
 55.5 87 l 1
EndSplineSet
Validated: 524289
Colour: ffffff
EndChar

StartChar: a
Encoding: 97 97 48
Width: 1046
VWidth: 0
Flags: W
HStem: -30.5 117.5<332.483 543.501> 2 74.5<963.5 1023.5> 530.5 63<542.963 684> 1006 90.5<355.546 593.94>
VStem: 114.5 169<136.599 361.365> 156.5 136<791.625 934.187> 684 156<177.492 530.5 589.637 902.803>
LayerCount: 2
Fore
SplineSet
114.5 208 m 0xba
 114.5 399 278 556 684 593.5 c 1
 684 652 l 2
 684 864.5 638 1006 457.5 1006 c 0
 330 1006 311 892 292.5 741 c 1
 233.5 741 156.5 756.5 156.5 845.5 c 0
 156.5 976 377.5 1096.5 547 1096.5 c 0
 752.5 1096.5 840 977 840 716.5 c 2
 840 283.5 l 2
 840 170 852.5 109 963.5 90 c 2
 1034.5 76.5 l 1
 1023.5 2 l 1x76
 982 -7.5 939 -22 877 -22 c 0
 755.5 -22 704.5 62.5 704.5 143.5 c 2
 704.5 161 l 1
 694.5 161 l 1
 664.5 91 550.5 -30.5 363.5 -30.5 c 0
 233 -30.5 114.5 56.5 114.5 208 c 0xba
283.5 255 m 0xba
 283.5 173.5 339.5 87 439.5 87 c 0
 541.5 87 635 158.5 684 230 c 1
 684 530.5 l 1
 426.5 486 283.5 412 283.5 255 c 0xba
EndSplineSet
Validated: 524289
Colour: ffffff
EndChar

StartChar: acute
Encoding: 180 180 49
Width: 700
VWidth: 0
Flags: W
HStem: 1661 444
VStem: 246 285
LayerCount: 2
Fore
SplineSet
246 1697 m 1
 403.5 2105 l 1
 531 2057 l 1
 305.5 1661 l 1
 246 1697 l 1
EndSplineSet
Validated: 524289
Colour: ffffff
EndChar

StartChar: ae
Encoding: 230 230 50
Width: 1540
VWidth: 0
Flags: W
HStem: -36.5 122.5<318.786 538.121 1021.82 1319.69> 1003 92.5<355.938 600.036 975.422 1195.76>
VStem: 113.5 168<122.386 357.16> 160 134<798.223 933.625> 683 153<303.6 513.5 606.5 830.641> 1280.5 173.5<652.179 917.382>
LayerCount: 2
Fore
SplineSet
113.5 201 m 0xec
 113.5 392 255 523.5 683 587 c 1
 683 665.5 l 2
 683 878 639 1003 462.5 1003 c 0
 335 1003 312.5 902 294 751 c 1
 235 751 160 765.5 160 854.5 c 0xdc
 160 985 375 1095.5 546.5 1095.5 c 0
 676 1095.5 769.5 1040.5 803.5 922.5 c 1
 897.5 1043.5 1026 1093.5 1144.5 1093.5 c 0
 1324 1093.5 1454 973 1454 712.5 c 0
 1454 674.5 1443 596 1432.5 553 c 1
 836 527.5 l 1
 841 295 945 86 1189 86 c 0
 1291 86 1369 117 1462 180.5 c 1
 1485.5 128.5 l 1
 1401.5 31.5 1268 -36.5 1104.5 -36.5 c 0
 978 -36.5 778 54.5 730.5 212 c 1
 693 91 547.5 -31.5 362 -31.5 c 0
 231.5 -31.5 113.5 49.5 113.5 201 c 0xec
281.5 246.5 m 0xec
 281.5 146.5 339 77 438.5 77 c 0
 551 77 683 178 683 314.5 c 2
 683 513.5 l 1
 405 471 281.5 403.5 281.5 246.5 c 0xec
836.5 606.5 m 1
 1268.5 652 l 1
 1276.5 675.5 1280.5 734.5 1280.5 754 c 0
 1280.5 900 1202 998.5 1083.5 998.5 c 0
 953.5 998.5 842.5 854 836.5 606.5 c 1
EndSplineSet
Validated: 524289
Colour: ffffff
EndChar

StartChar: ampersand
Encoding: 38 38 52
Width: 1582
VWidth: 0
Flags: W
HStem: -24.5 130<382.292 664.609> 933.5 68<1003.5 1057.49 1446.33 1517.5> 1480.5 88.5<483.81 711.401>
VStem: 68.5 185.5<238.074 526.051> 260.5 148<1116.39 1372.81> 796 166<1102.19 1390.96>
DStem2: 595.5 928 435.5 847 0.671389 -0.741105<-307.2 -47.3928 100.091 554.224 711.194 1139.45> 964 514 1038.5 439 0.514731 0.857352<0 436.893>
LayerCount: 2
Fore
SplineSet
68.5 343 m 0
 68.5 555.5 226 711 435.5 847 c 1
 353 933 260.5 1066.5 260.5 1202.5 c 0
 260.5 1395.5 428.5 1569 625.5 1569 c 0
 832 1569 962 1460.5 962 1253 c 0
 962 1102.5 839 980 664 863 c 1
 664 855 l 1
 964 514 l 1
 1189 888.5 l 1
 996 933.5 l 1
 1003.5 1001.5 l 1
 1527 1001.5 l 1
 1517.5 933.5 l 1
 1309 891.5 l 1
 1038.5 439 l 1
 1226.5 217 1370 107.5 1463 78.5 c 2
 1511.5 64 l 1
 1498.5 -2 l 1
 1449 -19.5 1417.5 -24.5 1368 -24.5 c 0
 1239.5 -24.5 1127 73.5 1057.5 150 c 2
 939.5 280 l 1
 830 120 697.5 -24.5 459.5 -24.5 c 0
 223 -24.5 68.5 129 68.5 343 c 0
254 415.5 m 0
 254 248 353.5 105.5 522.5 105.5 c 0
 674.5 105.5 791.5 224 867.5 353 c 1
 499.5 772 l 1
 487.5 773.5 l 1
 365.5 685 254 573 254 415.5 c 0
408.5 1264.5 m 0
 408.5 1147 509.5 1017 595.5 928 c 1
 710.5 1011 796 1090.5 796 1226.5 c 0
 796 1365 722.5 1480.5 596 1480.5 c 0
 480.5 1480.5 408.5 1375 408.5 1264.5 c 0
EndSplineSet
Validated: 524289
Colour: ffffff
EndChar

StartChar: asciicircum
Encoding: 94 94 53
Width: 905
VWidth: 0
Flags: W
HStem: 977 566
LayerCount: 2
Fore
SplineSet
61 1019.5 m 1
 417 1527 l 1
 485.5 1543 l 1
 849 1016.5 l 1
 790 977 l 1
 447.5 1355 l 1
 436 1355 l 1
 112.5 983.5 l 1
 61 1019.5 l 1
EndSplineSet
Validated: 524289
Colour: ffffff
EndChar

StartChar: asciitilde
Encoding: 126 126 54
Width: 1169
VWidth: 0
Flags: W
HStem: 498 271.5
VStem: 102 58<510.422 540.043> 1004 68<719.466 768>
DStem2: 367 756 306 608 0.98444 -0.175722<-110.217 578.895>
LayerCount: 2
Fore
SplineSet
102 514.5 m 1
 102 514.5 177 794 367 756 c 2
 860 668 l 2
 945 649 1004 769.5 1004 769.5 c 1
 1072 768 l 1
 1072 768 992 481.5 798.5 520.5 c 2
 306 608 l 2
 224.5 626 160 498 160 498 c 1
 102 514.5 l 1
EndSplineSet
Validated: 524321
Colour: ffffff
EndChar

StartChar: asterisk
Encoding: 42 42 55
Width: 732
VWidth: 0
Flags: W
VStem: 433 151.5<1454.1 1580.28>
LayerCount: 2
Fore
SplineSet
433 1592.5 m 1
 584.5 1579 l 1
 552.5 1214 l 1
 912 1370 l 1
 945.5 1221.5 l 1
 584.5 1142 l 1
 847 846.5 l 1
 717.5 768.5 l 1
 526 1087.5 l 1
 326.5 745.5 l 1
 212 845 l 1
 456.5 1125 l 1
 73.5 1206 l 1
 133 1347 l 1
 473.5 1201.5 l 1
 433 1592.5 l 1
EndSplineSet
Validated: 524289
Colour: ffffff
EndChar

StartChar: at
Encoding: 64 64 56
Width: 1681
VWidth: 0
Flags: W
HStem: -280.5 96.5<628.419 1127.94> 73.5 123.5<669.091 810.557 988.5 1207.52> 881 94<784.895 1007.62> 1198.5 90<701.417 1147.22>
VStem: 108.5 150.5<183.423 680.601> 480 151<230.759 636.869> 1475 134<476.887 887.339>
DStem2: 942.5 306.5 1108 474.5 0.116944 0.993138<-23.2097 567.141>
LayerCount: 2
Fore
SplineSet
108.5 405.5 m 0
 108.5 872.5 450 1288.5 973.5 1288.5 c 0
 1320 1288.5 1609 1055.5 1609 717.5 c 0
 1609 383.5 1365.5 85.5 1027.5 85.5 c 0
 949.5 85.5 936 152.5 940 231 c 1
 928.5 231 l 1
 879.5 157.5 776.5 73.5 682.5 73.5 c 0
 560 73.5 480 190.5 480 401.5 c 0
 480 753 742 975 950 975 c 0
 1015.5 975 1066 969.5 1137 953.5 c 1
 1141 952 l 1
 1159.5 927.5 l 1
 1108 474.5 l 2
 1101.5 412.5 1091.5 307 1091.5 263.5 c 0
 1091.5 202.5 1098 188 1122.5 188 c 0
 1310.5 188 1475 386.5 1475 672 c 0
 1475 1000.5 1219.5 1198.5 928 1198.5 c 0
 533 1198.5 259 855 259 437.5 c 0
 259 63.5 495 -184 899 -184 c 0
 1084 -184 1285 -87 1342.5 -38 c 1
 1378 -101.5 l 1
 1269 -173.5 1122 -280.5 853.5 -280.5 c 0
 477.5 -280.5 108.5 -68 108.5 405.5 c 0
631 455 m 0
 631 269 673 197 735.5 197 c 0
 801 197 899.5 257.5 942.5 306.5 c 1
 1008.5 867 l 1
 980 874.5 921 881 883 881 c 0
 734.5 881 631 678 631 455 c 0
EndSplineSet
Validated: 524321
Colour: ffffff
EndChar

StartChar: b
Encoding: 98 98 57
Width: 1186
VWidth: 0
Flags: W
HStem: -29 105.5<420.718 760.66> 968 125.5<548.516 789.123> 1469.5 66.5<33.5 74.6117> 1540.5 20G<92 370.5>
VStem: 211 159.5<123.701 864.462 930.055 1418> 941.5 175<328.938 777.755>
LayerCount: 2
Fore
SplineSet
22 1469.5 m 1
 33.5 1536 l 1
 352 1560.5 l 1
 370.5 1541 l 1
 370.5 1032 l 1
 352.5 904 l 1
 367 904 l 1
 464.5 1013.5 585.5 1093.5 724.5 1093.5 c 0
 963 1093.5 1116.5 886 1116.5 575 c 0
 1116.5 183.5 838.5 -29 518 -29 c 0
 406.5 -29 305 -0.5 211 60.5 c 1
 211 1418 l 1
 22 1469.5 l 1
370.5 155.5 m 1
 421 105 519.5 76.5 626.5 76.5 c 0
 781 76.5 941.5 225 941.5 501 c 0
 941.5 758.5 863.5 968 641 968 c 0
 560.5 968 468 928 370.5 824.5 c 1
 370.5 155.5 l 1
EndSplineSet
Validated: 524289
Colour: ffffff
EndChar

StartChar: backslash
Encoding: 92 92 58
Width: 754
VWidth: 0
Flags: W
HStem: 1533.5 20G<45.2514 173>
DStem2: 173 1546.5 39.5 1553.5 0.276371 -0.961051<0 2036.91>
LayerCount: 2
Fore
SplineSet
39.5 1553.5 m 1
 173 1546.5 l 1
 743 -453 l 1
 614.5 -446 l 1
 39.5 1553.5 l 1
EndSplineSet
Validated: 524289
Colour: ffffff
EndChar

StartChar: bar
Encoding: 124 124 59
Width: 553
VWidth: 0
Flags: W
HStem: 1535 20G<236 354>
VStem: 236 118<-452.5 1540>
LayerCount: 2
Fore
SplineSet
236 -452.5 m 1
 236 1555 l 1
 354 1540 l 1
 354 -469 l 1
 236 -452.5 l 1
EndSplineSet
Validated: 524289
Colour: ffffff
EndChar

StartChar: braceright
Encoding: 125 125 60
Width: 750
VWidth: 0
Flags: W
HStem: -466.5 92.5<49 156.5> 496 91<629.5 689.5> 1458 91<55 171>
VStem: 39 650.5
LayerCount: 2
Fore
SplineSet
39 -466.5 m 1
 49 -374 l 1
 156.5 -366.5 l 1
 411 -353.5 114 455 501 540 c 1
 501 546 l 1
 114 641 413.5 1433 171 1449 c 1
 55 1458 l 1
 45.5 1549 l 1
 171 1549 l 2
 675.5 1549 263.5 650 629.5 597 c 1
 689.5 587 l 1
 689.5 496 l 1
 625.5 487.5 l 2
 264 438 678 -466.5 166.5 -466.5 c 2
 39 -466.5 l 1
EndSplineSet
Validated: 524289
Colour: ffffff
EndChar

StartChar: bracketright
Encoding: 93 93 61
Width: 588
VWidth: 0
Flags: W
HStem: -462.5 85.5<39.5 201.154> 1461.5 87.5<41.5 195.318>
VStem: 322.5 161<-352.5 1436>
LayerCount: 2
Fore
SplineSet
30 -377 m 1
 322.5 -352.5 l 1
 322.5 1436 l 1
 32 1461.5 l 1
 41.5 1549 l 1
 482.5 1549 l 1
 483.5 -463 l 1
 39.5 -462.5 l 1
 30 -377 l 1
EndSplineSet
Validated: 524289
Colour: ffffff
EndChar

StartChar: breve
Encoding: 728 728 62
Width: 736
VWidth: 0
Flags: W
HStem: 1695.5 114<245.586 481.231>
VStem: 130 37<1918.29 1928.87>
LayerCount: 2
Fore
SplineSet
130 1915.5 m 1
 167 1950 l 1
 196 1891.5 263 1809.5 364 1809.5 c 0
 467.5 1809.5 526 1890.5 560.5 1952.5 c 5
 602.5 1921.5 l 1
 566 1812.5 498.5 1695.5 364 1695.5 c 0
 219 1695.5 157 1808.5 130 1915.5 c 1
EndSplineSet
Colour: ffffff
EndChar

StartChar: brokenbar
Encoding: 166 166 63
Width: 555
VWidth: 0
Flags: W
HStem: 1530.5 20G<238.5 354>
VStem: 238.5 117<-456.5 506.5 663 1540>
LayerCount: 2
Fore
SplineSet
238.5 -456.5 m 1
 238.5 516.5 l 1
 355.5 506.5 l 1
 355.5 -469 l 1
 238.5 -456.5 l 1
238.5 663 m 1
 238.5 1550.5 l 1
 354 1540 l 1
 351 652.5 l 1
 238.5 663 l 1
EndSplineSet
Validated: 524289
Colour: ffffff
EndChar

StartChar: c
Encoding: 99 99 64
Width: 961
VWidth: 0
Flags: W
HStem: -36.5 121.5<485.916 776.908> 999 96<424.178 663.488>
VStem: 112.5 173<332.571 758.872> 773 117.5<836.936 872.086>
LayerCount: 2
Fore
SplineSet
112.5 500 m 0
 112.5 866.5 338 1095 606 1095 c 0
 813 1095 890.5 993.5 890.5 896 c 0
 890.5 831 854.5 787.5 773 774 c 1
 727.5 899.5 665.5 999 547 999 c 0
 400.5 999 285.5 853.5 285.5 592.5 c 0
 285.5 305.5 418 85 645 85 c 0
 767 85 856 134.5 915 182.5 c 1
 941 126 l 1
 878.5 40.5 723.5 -36.5 564 -36.5 c 0
 279 -36.5 112.5 204.5 112.5 500 c 0
EndSplineSet
Validated: 524289
Colour: ffffff
EndChar

StartChar: caron
Encoding: 711 711 65
Width: 766
VWidth: 0
Flags: W
HStem: 1674.5 281
VStem: 133 503
DStem2: 217.5 1955.5 133 1887.5 0.720019 -0.693955<0 273.257> 423 1762.5 423.5 1691.5 0.688239 0.725484<0 249.281>
LayerCount: 2
Fore
SplineSet
133 1887.5 m 1
 217.5 1955.5 l 1
 411 1762.5 l 1
 423 1762.5 l 1
 586.5 1951 l 1
 636 1915.5 l 1
 423.5 1691.5 l 1
 354 1674.5 l 1
 133 1887.5 l 1
EndSplineSet
Validated: 524289
Colour: ffffff
EndChar

StartChar: cedilla
Encoding: 184 184 67
Width: 446
VWidth: 0
Flags: W
HStem: -481 485
VStem: 220.5 139.5<-371.972 -211.589>
LayerCount: 2
Fore
SplineSet
94 -418.5 m 1
 165 -394 220.5 -342 220.5 -305.5 c 0
 220.5 -244 166.5 -200.5 122 -157.5 c 1
 235 4 l 1
 316.5 4 l 1
 250 -94 l 1
 296 -135 360 -197.5 360 -280 c 0
 360 -377.5 257 -438 113 -481 c 1
 94 -418.5 l 1
EndSplineSet
Validated: 524289
Colour: ffffff
EndChar

StartChar: cent
Encoding: 162 162 68
Width: 991
VWidth: 0
Flags: W
HStem: -36.5 36.5<508 593> 1090 45<502 589>
VStem: 107 173<338.947 771.738> 463 156<1286.05 1401.93> 767.5 117.5<877.436 912.682>
LayerCount: 2
Fore
SplineSet
107 508 m 0
 107 874.5 332.5 1135 600.5 1135 c 0
 807.5 1135 885 1034 885 936.5 c 0
 885 871.5 849 828 767.5 814.5 c 1
 722 940 660 1040 541.5 1040 c 0
 395 1040 280 861 280 600 c 0
 280 313 412.5 85 639.5 85 c 0
 761.5 85 850.5 134.5 909.5 182.5 c 1
 935.5 126 l 1
 873 40.5 718 -36.5 558.5 -36.5 c 0
 273.5 -36.5 107 212.5 107 508 c 0
463 1400 m 1
 619 1421 l 1
 589 1090 l 1
 502 1090 l 1
 463 1400 l 1
476 -329 m 1
 508 0 l 1
 593 0 l 1
 634 -309 l 1
 476 -329 l 1
EndSplineSet
Validated: 524293
Colour: ffffff
EndChar

StartChar: circumflex
Encoding: 710 710 69
Width: 759
VWidth: 0
Flags: W
HStem: 1676.5 274.5
VStem: 130 494.5
LayerCount: 2
Fore
SplineSet
130 1712.5 m 1
 337 1934.5 l 1
 404.5 1951 l 1
 624.5 1722 l 1
 574.5 1676.5 l 1
 362 1827.5 l 1
 350 1827.5 l 1
 167 1675.5 l 1
 130 1712.5 l 1
EndSplineSet
Validated: 524289
Colour: ffffff
EndChar

StartChar: colon
Encoding: 58 58 70
Width: 507
VWidth: 0
Flags: W
HStem: 388.5 261.5<193 322.5>
VStem: 150.5 214.5<445.5 601>
LayerCount: 2
Fore
SplineSet
148.5 526 m 0
 148.5 601.5 193 650 257 650 c 0
 320.5 650 365 601 365 525 c 0
 365 444.5 323.5 389.5 257.5 389.5 c 0
 190.5 389.5 148.5 447 148.5 526 c 0
150.5 524.5 m 0
 150.5 601 195 649.5 259 649.5 c 0
 322.5 649.5 367.5 600 367.5 523 c 0
 367.5 442.5 325.5 388.5 259.5 388.5 c 0
 192.5 388.5 150.5 445.5 150.5 524.5 c 0
EndSplineSet
Validated: 524293
Colour: ffffff
EndChar

StartChar: comma
Encoding: 44 44 71
Width: 490
VWidth: 0
Flags: W
HStem: 91.5 177.5<137.482 247.897>
VStem: 289 145.5<-158.644 52.1382>
LayerCount: 2
Fore
SplineSet
67 -296 m 1
 236 -240 289 -151.5 289 -62 c 0
 289 26 229.5 91.5 150 91.5 c 0
 138.5 91.5 126 90.5 114.5 87.5 c 1
 108 105.5 104.5 119 104.5 138.5 c 0
 104.5 222 172 269 238 269 c 0
 328 269 434.5 190 434.5 11.5 c 0
 434.5 -104 380 -283 88.5 -367 c 1
 67 -296 l 1
EndSplineSet
Validated: 524289
Colour: ffffff
EndChar

StartChar: commaaccent
Encoding: 806 806 72
Width: 708
VWidth: 0
Flags: W
HStem: -480.5 55<20.8959 73.3796> -197 92<78.6515 117.06>
VStem: 140.5 114.5<-375.148 -224.295>
LayerCount: 2
Fore
SplineSet
5 -425.5 m 1
 97 -403 140.5 -356 140.5 -300.5 c 0
 140.5 -239.5 74.5 -201 26 -197 c 1
 31.5 -152 71.5 -105 129 -105 c 0
 188.5 -105 255 -148.5 255 -252 c 0
 255 -324 205 -442.5 26.5 -480.5 c 1
 5 -425.5 l 1
EndSplineSet
Validated: 524289
Colour: ffffff
EndChar

StartChar: copyright
Encoding: 169 169 73
Width: 1700
VWidth: 0
Flags: W
HStem: -25.5 101.5<617.493 1079.03> 325.522 101.452<776.74 1019.72> 1190.17 80.16<725.188 925.013> 1507.5 97.5<622 1084.18>
VStem: 88.5 118<527.384 1056.48> 464.938 144.455<633.697 989.658> 1016.45 98.1125<1054.84 1084.19> 1510.5 115.5<523.153 1052.52>
LayerCount: 2
Fore
SplineSet
88.5 780.5 m 0
 88.5 1261.5 430 1605 847.5 1605 c 0
 1324.5 1605 1626 1264 1626 784.5 c 0
 1626 323.5 1298.5 -25.5 835.5 -25.5 c 0
 384.5 -25.5 88.5 309.5 88.5 780.5 c 0
206.5 794.5 m 0
 206.5 379.5 471.5 76 846 76 c 0
 1221 76 1510.5 372.5 1510.5 772.5 c 0
 1510.5 1191 1251.5 1507.5 848.5 1507.5 c 0
 478.5 1507.5 206.5 1193.5 206.5 794.5 c 0
EndSplineSet
Refer: 64 99 N 0.835 0 0 0.835 371 356 2
Validated: 524289
Colour: ffffff
EndChar

StartChar: currency
Encoding: 164 164 74
Width: 949
VWidth: 0
Flags: W
HStem: 269.5 101.5<348.546 612.958> 845 105<346.392 611.654>
VStem: 156.5 111<453.761 761.473> 695.5 110.5<456.07 758.311>
LayerCount: 2
Fore
SplineSet
103 892 m 1
 186 973.5 l 1
 282 864.5 l 1
 335 909 421 950 481.5 950 c 0
 548.5 950 637.5 912.5 686.5 876 c 1
 782 975 l 1
 854.5 888 l 1
 751.5 797 l 1
 778 751 806 664.5 806 607 c 0
 806 544.5 776 458.5 743 412.5 c 1
 857.5 306.5 l 1
 772 226.5 l 1
 674.5 337.5 l 1
 617.5 303.5 529.5 269.5 472 269.5 c 0
 423 269.5 346.5 299.5 296 330 c 1
 201 221 l 1
 118 304.5 l 1
 222.5 400.5 l 1
 189.5 451 156.5 539 156.5 604.5 c 0
 156.5 661.5 186 742 215 786.5 c 1
 103 892 l 1
267.5 610.5 m 0
 267.5 467.5 352 371 477.5 371 c 0
 607.5 371 695.5 465.5 695.5 602.5 c 0
 695.5 749.5 608.5 845 476 845 c 0
 350.5 845 267.5 750.5 267.5 610.5 c 0
EndSplineSet
Validated: 524289
Colour: ffffff
EndChar

StartChar: d
Encoding: 100 100 75
Width: 1230
VWidth: 0
Flags: W
HStem: -26.5 121<436.438 694.216> -2 74<1141.5 1195.5> 999.5 97<445.978 741.257> 1472.5 65.5<682.5 721.973> 1545 20G<765.074 1019.05>
VStem: 113.5 170.5<285.711 726.786> 863 156.5<192.004 896.578 1070.3 1420>
LayerCount: 2
Fore
SplineSet
113.5 484.5 m 0xbe
 113.5 853.5 378.5 1096.5 639.5 1096.5 c 0
 721 1096.5 825 1067.5 866 1037 c 1
 876 1037 l 1
 859 1199.5 l 1
 859 1420 l 1
 670.5 1472.5 l 1
 682.5 1538 l 1
 1001 1565 l 1
 1019.5 1544.5 l 1
 1019.5 274 l 2
 1019.5 112.5 1078.5 100 1141.5 86 c 2
 1206.5 72 l 1
 1195.5 -2 l 1x7e
 1146.5 -16.5 1113.5 -27 1046.5 -27 c 0
 928 -27 875.5 51.5 875.5 153 c 2
 875.5 161.5 l 1
 863 161.5 l 1
 793.5 66 677.5 -26.5 506.5 -26.5 c 0
 287.5 -26.5 113.5 150 113.5 484.5 c 0xbe
284 557.5 m 0
 284 267.5 393 94.5 584.5 94.5 c 0xbe
 688 94.5 810 166.5 863 238.5 c 1
 863 845 l 1
 794.5 945.5 679.5 999.5 579 999.5 c 0
 401.5 999.5 284 831.5 284 557.5 c 0
EndSplineSet
Validated: 524289
Colour: ffffff
EndChar

StartChar: dagger
Encoding: 8224 8224 76
Width: 1046
VWidth: 0
Flags: W
HStem: 892.5 117.5<106 106 588.5 958> 1529 20G<462.365 601.5>
VStem: 454 154.5<-432.5 517.171> 472 116.5<-66.6712 898.5 1001 1535>
LayerCount: 2
Fore
SplineSet
95.5 892.5 m 1xd0
 106 1010 l 1
 472 1001 l 1
 462 1549 l 1
 601.5 1535 l 1
 588.5 1001 l 1
 966.5 1010 l 1
 958 885.5 l 1
 588.5 898.5 l 1xd0
 608.5 -448 l 1
 454 -432.5 l 1xe0
 472 901 l 1
 95.5 892.5 l 1xd0
EndSplineSet
Validated: 524289
Colour: ffffff
EndChar

StartChar: daggerdbl
Encoding: 8225 8225 77
Width: 1066
VWidth: 0
Flags: W
HStem: 93 126.5<129 471.087> 104.5 100.5<180.638 475 592 969.5> 892.5 117<115 479 595.5 909.529> 1529 20G<469.364 609>
VStem: 463 138.5<-435 -50.4326> 483 102.5<-282.214 104.5 205 898>
LayerCount: 2
Fore
SplineSet
105 892.5 m 1x74
 115 1009.5 l 1
 479 1000 l 1
 469 1549 l 1
 609 1535 l 1
 595.5 1000 l 1
 971.5 1009.5 l 1
 963 884.5 l 1
 595.5 898 l 1
 585.5 529.5 l 1
 592 203 l 1
 977.5 211.5 l 1
 969.5 93 l 1xb4
 592 104.5 l 1
 601.5 -448 l 1
 463 -435 l 1
 475 104.5 l 1x78
 121 93 l 1
 129 219.5 l 1xb8
 475 205 l 1
 483 615 l 1
 479 900 l 1
 105 892.5 l 1x74
EndSplineSet
Validated: 524289
Colour: ffffff
EndChar

StartChar: dcroat
Encoding: 273 273 78
Width: 1230
VWidth: 0
Flags: W
HStem: -26.5 121<436.438 694.216> -2 74<1141.5 1195.5> 999.5 97<445.978 741.257> 1232.5 79<593.5 1159> 1472.5 65.5<682.5 721.973> 1545 20G<765.074 1019.05>
VStem: 113.5 170.5<285.711 726.786> 863 156.5<192.004 896.578 1070.3 1420>
LayerCount: 2
Fore
SplineSet
113.5 484.5 m 0xbf
 113.5 853.5 378.5 1096.5 639.5 1096.5 c 0
 721 1096.5 825 1067.5 866 1037 c 1
 876 1037 l 1
 859 1199.5 l 1
 859 1420 l 1
 670.5 1472.5 l 1
 682.5 1538 l 1
 1001 1565 l 1
 1019.5 1544.5 l 1
 1019.5 274 l 2
 1019.5 112.5 1078.5 100 1141.5 86 c 2
 1206.5 72 l 1
 1195.5 -2 l 1x7f
 1146.5 -16.5 1113.5 -27 1046.5 -27 c 0
 928 -27 875.5 51.5 875.5 153 c 2
 875.5 161.5 l 1
 863 161.5 l 1
 793.5 66 677.5 -26.5 506.5 -26.5 c 0
 287.5 -26.5 113.5 150 113.5 484.5 c 0xbf
284 557.5 m 0
 284 267.5 393 94.5 584.5 94.5 c 0xbf
 688 94.5 810 166.5 863 238.5 c 1
 863 845 l 1
 794.5 945.5 679.5 999.5 579 999.5 c 0
 401.5 999.5 284 831.5 284 557.5 c 0
580.5 1232.5 m 1
 593.5 1311.5 l 1
 1172.5 1311.5 l 1
 1159 1232.5 l 1
 580.5 1232.5 l 1
EndSplineSet
Validated: 524293
Colour: ffffff
EndChar

StartChar: degree
Encoding: 176 176 79
Width: 508
VWidth: 0
Flags: W
HStem: 1170.5 58.5<185.317 333.201> 1527 57.5<177.481 324.157>
VStem: 54 81.5<1267.04 1496.15> 373 81<1258.67 1488.71>
LayerCount: 2
Fore
SplineSet
54 1374 m 0
 54 1487.5 147.5 1584.5 263 1584.5 c 0
 381.5 1584.5 454 1501.5 454 1386 c 0
 454 1274.5 372 1170.5 246 1170.5 c 0
 132.5 1170.5 54 1248 54 1374 c 0
135.5 1383 m 0
 135.5 1308 177 1229 261.5 1229 c 0
 333.5 1229 373 1284.5 373 1374.5 c 0
 373 1452 330.5 1527 247.5 1527 c 0
 170 1527 135.5 1452.5 135.5 1383 c 0
EndSplineSet
Validated: 524289
Colour: ffffff
EndChar

StartChar: dieresiscomb
Encoding: 776 776 81
Width: 67
VWidth: 0
Flags: W
HStem: 1707 196<165.225 314.251 495.431 645.162>
VStem: 152.5 174.5<1717.94 1892.05> 483 175.5<1718.71 1891>
LayerCount: 2
Fore
SplineSet
152.5 1808 m 0
 152.5 1868 189.5 1903 238.5 1903 c 0
 288.5 1903 327 1868 327 1808 c 0
 327 1744.5 292 1707 239.5 1707 c 0
 187.5 1707 152.5 1746 152.5 1808 c 0
483 1808 m 0
 483 1868 519.5 1903 568.5 1903 c 0
 618.5 1903 658.5 1868 658.5 1808 c 0
 658.5 1744.5 621.5 1707 569 1707 c 0
 517 1707 483 1746 483 1808 c 0
EndSplineSet
Validated: 524289
Colour: ffffff
EndChar

StartChar: divide
Encoding: 247 247 82
Width: 1183
VWidth: 0
Flags: W
HStem: 138 268.5<500.191 671.5> 574 105<99.5 1087.5> 834 269<500.191 671.5>
VStem: 473 226<164.29 383.333 860.29 1079.65>
LayerCount: 2
Fore
SplineSet
84.5 574 m 1
 99.5 679 l 1
 1101 679 l 1
 1087.5 574 l 1
 84.5 574 l 1
473 278.5 m 0
 473 357 518 406.5 584 406.5 c 0
 650.5 406.5 699 357 699 278 c 0
 699 195.5 654 138 585 138 c 0
 516 138 473 197.5 473 278.5 c 0
473 974.5 m 0
 473 1053 518 1103 584 1103 c 0
 650.5 1103 699 1053 699 974 c 0
 699 891.5 654 834 585 834 c 0
 516 834 473 893.5 473 974.5 c 0
EndSplineSet
Validated: 524289
Colour: ffffff
EndChar

StartChar: dollar
Encoding: 36 36 83
Width: 1062
VWidth: 0
Flags: W
HStem: -30.5 101<380.086 725.176> 1072 21G<819 911.306> 1480 87<407.446 698.759>
VStem: 125.5 92.5<386.236 474> 143.5 167.5<1096.55 1341.11> 471 179<-203.522 0.730133 1608.75 1722.55> 520 74.5<67 1485> 819 90.5<1083.5 1205.7> 851 181.5<228.437 466.902>
LayerCount: 2
Fore
SplineSet
98.5 146.5 m 1xe880
 125.5 487.5 l 1
 218 474 l 1
 259 223 l 1
 309 134 429.5 70.5 556.5 70.5 c 0
 698 70.5 851 155.5 851 338.5 c 0xf080
 851 683.5 143.5 712 143.5 1157 c 0
 143.5 1419.5 367.5 1567 588 1567 c 0
 721 1567 852 1524 942.5 1437.5 c 1
 942.5 1432.5 909.5 1072 909.5 1072 c 1
 819 1083.5 l 1xe9
 787.5 1352 l 1
 754.5 1415.5 651.5 1480 552 1480 c 0
 421 1480 311 1396 311 1234.5 c 0
 311 862 1032.5 839.5 1032.5 408.5 c 0
 1032.5 150.5 803 -30.5 509.5 -30.5 c 0
 331.5 -30.5 177.5 49 98.5 146.5 c 1xe880
471 -221 m 1xe4
 486 11 l 1
 520 67 l 1
 520 779 l 1
 526 864 l 1
 526 1490 l 1
 493 1534 l 1
 477.5 1721 l 1
 646.5 1740 l 1
 627.5 1534 l 1
 594.5 1485 l 1
 594.5 822 l 1xe2
 597.5 719 l 1
 597.5 67 l 1
 634 25 l 1
 650 -202 l 1
 471 -221 l 1xe4
EndSplineSet
Validated: 524293
Colour: ffffff
EndChar

StartChar: dotaccentcomb
Encoding: 775 775 85
Width: 33
VWidth: 0
Flags: W
HStem: 1661 255.5<182.098 345.573>
VStem: 159.5 209<1681.43 1896.57>
LayerCount: 2
Fore
SplineSet
159.5 1791 m 0
 159.5 1866 200 1916.5 262.5 1916.5 c 0
 325 1916.5 368.5 1867 368.5 1791 c 0
 368.5 1712.5 329 1661 263 1661 c 0
 198 1661 159.5 1715 159.5 1791 c 0
EndSplineSet
Validated: 524289
Colour: ffffff
EndChar

StartChar: dotbelowcomb
Encoding: 803 803 86
Width: 279
VWidth: 0
Flags: HW
HStem: -469 255.5<49.0983 213.166>
VStem: 26.5 210<-447.748 -234.898>
LayerCount: 2
Fore
SplineSet
26.5 -338.5 m 0
 26.5 -263.5 67 -213.5 129.5 -213.5 c 0
 192 -213.5 236.5 -262.5 236.5 -338.5 c 0
 236.5 -417 196 -469 130 -469 c 0
 65 -469 26.5 -414.5 26.5 -338.5 c 0
EndSplineSet
Colour: ffffff
EndChar

StartChar: dotlessi
Encoding: 305 305 87
Width: 685
VWidth: 0
Flags: W
HStem: 0 68<114 181.506 587.32 645> 1004.5 62.5<122 163.337> 1074 20G<204.833 461.5>
VStem: 300 161.5<107.5 952>
LayerCount: 2
Fore
SplineSet
99 0 m 1
 114 68 l 1
 300 107.5 l 1
 300 952 l 1
 112 1004.5 l 1
 122 1067 l 1
 441.5 1094 l 1
 461.5 1074 l 1
 461.5 107.5 l 1
 659 70 l 1
 645 0 l 1
 99 0 l 1
EndSplineSet
Validated: 524289
Colour: ffffff
EndChar

StartChar: e
Encoding: 101 101 88
Width: 1002
VWidth: 0
Flags: W
HStem: -36.5 132.5<483.634 773.492> 549 77<292.5 517.966> 998.5 95<419.288 656.997>
VStem: 116.5 173.5<327.494 549 626 763.594> 734.5 173.5<653.852 915.135>
LayerCount: 2
Fore
SplineSet
116.5 517.5 m 0
 116.5 887.5 361 1093.5 599.5 1093.5 c 0
 779 1093.5 908 978.5 908 718 c 0
 908 680 897 599.5 886.5 556.5 c 1
 290 549 l 1
 295 316.5 400 96 644 96 c 2
 649.5 96 l 2
 748.5 96 826.5 120 917 182 c 1
 940.5 128.5 l 1
 856.5 31.5 722.5 -36.5 559 -36.5 c 0
 326 -36.5 116.5 143.5 116.5 517.5 c 0
292.5 626 m 1
 725 653.5 l 1
 732.5 674 734.5 726.5 734.5 752 c 0
 734.5 899.5 659.5 998.5 538.5 998.5 c 0
 409 998.5 298.5 875 292.5 626 c 1
EndSplineSet
Validated: 524289
Colour: ffffff
EndChar

StartChar: eight
Encoding: 56 56 91
Width: 1158
VWidth: 0
Flags: W
HStem: -33 91<485.047 785.882> 1407 75.5<461.277 702>
VStem: 156.5 172.5<216.924 506.515> 213 148.5<1039.95 1276.66> 831 154<968.277 1273.55> 875.5 160.5<184.963 419.033>
LayerCount: 2
Fore
SplineSet
156.5 346.5 m 0xe4
 156.5 485.5 247.5 614 440 728 c 1
 440 736.5 l 1
 302 830.5 213 943.5 213 1106.5 c 0
 213 1308.5 380.5 1482.5 619 1482.5 c 0
 854 1482.5 985 1329 985 1143 c 0xd8
 985 975 873 836.5 744.5 770.5 c 1
 741.5 763 l 1
 933 633 1036 530 1036 358.5 c 0
 1036 132 841 -33 561 -33 c 0
 334 -33 156.5 122 156.5 346.5 c 0xe4
329 384.5 m 0xe4
 329 172.5 496 58 628.5 58 c 0
 778.5 58 875.5 143.5 875.5 287.5 c 0
 875.5 427.5 739.5 538.5 505.5 686.5 c 1
 411 616.5 329 538.5 329 384.5 c 0xe4
361.5 1178.5 m 0xd8
 361.5 1054 452 952.5 675 809.5 c 1
 762 867 831 952 831 1098.5 c 0
 831 1272.5 718 1407 587.5 1407 c 0
 446 1407 361.5 1306 361.5 1178.5 c 0xd8
EndSplineSet
Validated: 524289
Colour: ffffff
EndChar

StartChar: eight.osf
Encoding: 65536 -1 92
Width: 1006
VWidth: 0
Flags: W
HStem: -33 94<392.04 680.086> 1407 75.5<366.828 600.251>
VStem: 82.5 158<219.726 508.588> 139 138<1041.92 1288.05> 727 139<963.885 1275.92> 780.5 151.5<195.003 439.689>
LayerCount: 2
Fore
SplineSet
82.5 346.5 m 0xe4
 82.5 485.5 177.5 620.5 356 737 c 1
 356 745.5 l 1
 232 827 139 956 139 1111 c 0
 139 1313 296.5 1482.5 523.5 1482.5 c 0
 747 1482.5 866 1339 866 1153 c 0xd8
 866 985 779.5 868.5 649 774.5 c 1
 648 767 l 1
 839 646.5 932 518.5 932 363.5 c 0
 932 137 721.5 -33 464 -33 c 0
 237 -33 82.5 122 82.5 346.5 c 0xe4
240.5 384.5 m 0xe4
 240.5 199 390 61 520.5 61 c 0
 681.5 61 780.5 154.5 780.5 306.5 c 0
 780.5 443.5 666 542.5 416 700.5 c 1
 329.5 642 240.5 530 240.5 384.5 c 0xe4
277 1192.5 m 0xd8
 277 1058.5 361 949.5 581.5 808.5 c 1
 648 866.5 727 956.5 727 1108.5 c 0
 727 1262 621 1407 490.5 1407 c 0
 370.5 1407 277 1320 277 1192.5 c 0xd8
EndSplineSet
Validated: 524289
Colour: ffffff
EndChar

StartChar: emdash
Encoding: 8212 8212 93
Width: 1606
VWidth: 0
Flags: W
HStem: 517.5 103.5<123 1488>
LayerCount: 2
Fore
SplineSet
106 517.5 m 1
 123 621 l 1
 1505 628.5 l 1
 1488 526 l 1
 106 517.5 l 1
EndSplineSet
Validated: 524289
Colour: ffffff
EndChar

StartChar: emptyset
Encoding: 8709 8709 94
Width: 1249
VWidth: 0
Flags: W
HStem: -46 110.5<443.806 819.337> 1031.5 115.5<439.128 807.13>
VStem: 59 142<320.908 760.415> 1042 143<309.313 781.29>
LayerCount: 2
Fore
SplineSet
25.5 118.5 m 1
 180.5 234 l 1
 220 246 l 1
 995 941 l 1
 1001.5 972.5 l 1
 1124.5 1107.5 l 1
 1208 985.5 l 1
 1066 876.5 l 1
 1041.5 878.5 l 1
 257.5 175.5 l 1
 244 140.5 l 1
 109 -4.5 l 1
 25.5 118.5 l 1
59 548 m 0
 59 861 337 1147 625 1147 c 0
 970 1147 1185 881 1185 547 c 0
 1185 230 968 -46 626 -46 c 0
 312 -46 59 188 59 548 c 0
201 547 m 0
 201 225.5 416.5 64.5 626.5 64.5 c 0
 867 64.5 1042 218.5 1042 548 c 0
 1042 868.5 843.5 1031.5 624.5 1031.5 c 0
 384 1031.5 201 847.5 201 547 c 0
EndSplineSet
Validated: 524293
Colour: ffffff
EndChar

StartChar: endash
Encoding: 8211 8211 95
Width: 978
VWidth: 0
Flags: W
HStem: 517.5 103.5<122.5 860>
LayerCount: 2
Fore
SplineSet
106 517.5 m 1
 122.5 621 l 1
 876 628.5 l 1
 860 526 l 1
 106 517.5 l 1
EndSplineSet
Validated: 524289
Colour: ffffff
EndChar

StartChar: eng
Encoding: 331 331 96
Width: 1212
VWidth: 0
Flags: W
HStem: 0 64<107 172.117 574.492 624> 963.5 134.5<654.29 876.905> 980 64<113 160.735> 1061 20G<263.703 455.5>
VStem: 295.5 161.5<105.5 867.992> 960.5 161<-93.7123 873.37>
LayerCount: 2
Fore
SplineSet
97 0 m 1xcc
 107 64 l 1
 295.5 105.5 l 1
 295.5 931 l 1
 105 980 l 1
 113 1044 l 1
 441 1081 l 1xbc
 455.5 1063 l 1
 442.5 900 l 1
 453 900 l 1
 523 987 672 1098 836.5 1098 c 0
 1006 1098 1121.5 985 1121.5 740.5 c 2
 1121.5 184.5 l 1
 1119.5 -141 976.5 -329.5 801.5 -439 c 2
 747 -473 l 1
 696.5 -389 l 1
 829.5 -289.5 960.5 -131 960.5 203 c 2
 960 701 l 2
 960 890.5 863.5 963.5 750 963.5 c 0
 632.5 963.5 553 923 457 827 c 1
 457 105.5 l 1
 636.5 71 l 1
 624 0 l 1
 97 0 l 1xcc
EndSplineSet
Validated: 524289
Colour: ffffff
EndChar

StartChar: equal
Encoding: 61 61 97
Width: 988
VWidth: 0
Flags: W
HStem: 407 104.5<121 866> 702.5 105<125 869.5>
LayerCount: 2
Fore
SplineSet
107 407 m 1
 121 511.5 l 1
 879.5 511.5 l 1
 866 407 l 1
 107 407 l 1
111 702.5 m 1
 125 807.5 l 1
 883 807.5 l 1
 869.5 702.5 l 1
 111 702.5 l 1
EndSplineSet
Validated: 524289
Colour: ffffff
EndChar

StartChar: eth
Encoding: 240 240 98
Width: 1149
VWidth: 0
Flags: W
HStem: -33 94.5<494.165 758.352> 1079 91.5<439.772 684.248>
VStem: 131.5 171.5<313.714 838.367> 889 169<290.432 797.75>
DStem2: 394.5 1361 381 1282.5 0.979127 0.203248<0 235.038 407.105 536.637>
LayerCount: 2
Fore
SplineSet
131.5 556.5 m 0
 131.5 920.5 316 1170.5 578.5 1170.5 c 0
 675.5 1170.5 786 1105 822.5 1011 c 1
 831 1013 l 1
 800 1129 733.5 1242 667 1339.5 c 1
 381 1282.5 l 1
 394.5 1361 l 1
 625 1407 l 1
 557 1496.5 489 1567 445.5 1607 c 1
 558.5 1607 l 1
 614.5 1572 684.5 1514 753.5 1436.5 c 1
 946.5 1476.5 l 1
 935 1397.5 l 1
 808 1372 l 1
 945 1191 1058 926.5 1058 574 c 0
 1058 194 860.5 -33 595.5 -33 c 0
 275 -33 131.5 257 131.5 556.5 c 0
303 615 m 1
 305 254.5 445.5 61.5 624 61.5 c 0
 815 61.5 889 259 889 524 c 0
 889 863.5 717.5 1077 562.5 1079 c 1
 556.5 1079 l 1
 374 1077 303 866 303 615 c 1
EndSplineSet
Validated: 524289
Colour: ffffff
EndChar

StartChar: exclam
Encoding: 33 33 99
Width: 552
VWidth: 0
Flags: W
HStem: -43 270.5<208.767 376.939>
VStem: 180 225.5<-15.8614 200.378> 199.5 196.5<1022.75 1582.2> 249 83.5<459 856.915>
LayerCount: 2
Fore
SplineSet
180 98 m 0xc0
 180 173 229.5 227.5 291 227.5 c 0
 354.5 227.5 405.5 171.5 405.5 96.5 c 0
 405.5 17.5 362.5 -43 291.5 -43 c 0
 223 -43 180 21 180 98 c 0xc0
199.5 1543 m 2xa0
 199.5 1546.5 l 1
 210 1580.5 279 1595.5 323.5 1595.5 c 0
 356.5 1595.5 396 1584.5 396 1546.5 c 0xa0
 396 1338.5 365.5 846 332.5 448 c 1
 329 441.5 l 1
 249 459 l 1
 249 463.5 l 1x90
 224.5 857.5 199.5 1408.5 199.5 1543 c 2xa0
EndSplineSet
Validated: 524289
Colour: ffffff
EndChar

StartChar: exclamdown
Encoding: 161 161 100
Width: 536
VWidth: 0
Flags: W
HStem: 853.5 269.5<185.323 353.28>
VStem: 157 225.5<880.047 1095.68> 166.5 197<-500.914 57.6644> 229.5 83<234.304 635>
LayerCount: 2
Fore
SplineSet
166.5 -465 m 0xa0
 166.5 -257 196.5 248.5 229.5 646.5 c 1
 233 652.5 l 1
 312.5 635 l 1
 312.5 631.5 l 1x90
 337 237.5 363.5 -327.5 363.5 -462 c 2
 363.5 -465 l 1
 353 -499 283.5 -514.5 239 -514.5 c 0
 206 -514.5 166.5 -503 166.5 -465 c 0xa0
157 983 m 0xc0
 157 1062 199.5 1123 270.5 1123 c 0
 339 1123 382.5 1059.5 382.5 982.5 c 0
 382.5 907.5 332 853.5 270.5 853.5 c 0
 207 853.5 157 908 157 983 c 0xc0
EndSplineSet
Validated: 524289
Colour: ffffff
EndChar

StartChar: f
Encoding: 102 102 101
Width: 804
VWidth: 0
Flags: W
HStem: 0 63.5<101.5 162.428 667.937 748.5> 976 86<454.5 756.5> 976 66.5<119.5 208.644> 1505 104.5<558.078 753.91>
VStem: 288.5 166<112 976 1070 1265.59>
LayerCount: 2
Fore
SplineSet
86.5 0 m 1xd8
 101.5 63.5 l 1
 288.5 107.5 l 1
 288.5 976 l 1
 105 976 l 1
 119.5 1042.5 l 1xb8
 290.5 1070 l 1
 326.5 1444 543.5 1609.5 718.5 1609.5 c 0
 849 1609.5 938 1554.5 938 1470 c 0
 938 1415.5 894 1372 853 1356 c 1
 806.5 1422.5 726.5 1505 634.5 1505 c 0
 539 1505 458 1417.5 455.5 1210.5 c 1
 454.5 1062 l 1
 772 1062 l 1
 756.5 976 l 1
 454.5 976 l 1
 454.5 112 l 1
 757.5 75.5 l 1
 748.5 0 l 1
 86.5 0 l 1xd8
EndSplineSet
Validated: 524289
Colour: ffffff
EndChar

StartChar: f.alt2
Encoding: 65537 -1 102
Width: 774
VWidth: 0
Flags: W
HStem: 0 63.5<101.5 162.428 667.937 748.5> 976 86<454.5 756.5> 976 66.5<119.5 208.644> 1497 111<501.697 672.407>
VStem: 288.5 166<112 976 1070 1303.49>
LayerCount: 2
Fore
SplineSet
86.5 0 m 1xd8
 101.5 63.5 l 1
 288.5 107.5 l 1
 288.5 976 l 1
 105 976 l 1
 119.5 1042.5 l 1xb8
 290.5 1070 l 1
 311 1455 500.5 1608 625 1608 c 0
 721 1608 789 1581.5 789 1505 c 0
 789 1456.5 758.5 1419 719.5 1401 c 1
 682.5 1453.5 627 1497 565 1497 c 0
 500 1497 458 1417.5 455.5 1210.5 c 1
 454.5 1062 l 1
 772 1062 l 1
 756.5 976 l 1
 454.5 976 l 1
 454.5 112 l 1
 757.5 75.5 l 1
 748.5 0 l 1
 86.5 0 l 1xd8
EndSplineSet
Validated: 524289
Colour: ffffff
EndChar

StartChar: five
Encoding: 53 53 103
Width: 1184
VWidth: 0
Flags: W
HStem: -19.5 90.5<322.131 648.208> 1294 184<665.908 874>
VStem: 127.5 82.5<315.274 437.5> 775.5 182<265.496 547.083>
LayerCount: 2
Fore
SplineSet
92 109 m 1
 127.5 455 l 1
 210 437.5 l 1
 232 191.5 l 1
 298.5 110 389.5 71 489 71 c 0
 666.5 71 775.5 194.5 775.5 379.5 c 0
 775.5 629 551.5 766.5 204 788.5 c 1
 345.5 1444 l 1
 899.5 1478 l 1
 874 1294 l 1
 398.5 1273 l 1
 344.5 950.5 l 1
 782.5 922.5 957.5 712 957.5 454.5 c 0
 957.5 202 737.5 -19.5 435.5 -19.5 c 0
 306.5 -19.5 190 15 92 109 c 1
EndSplineSet
Validated: 524289
Colour: ffffff
EndChar

StartChar: five.osf
Encoding: 65538 -1 104
Width: 1049
VWidth: 0
Flags: W
HStem: -366.5 94<195.531 490.926>
VStem: 648 185.5<-36.8441 267.911>
DStem2: 121 510 256 662.5 0.182117 0.983277<174.536 498.254> 237.5 1139 308.5 982 0.996362 0.0852211<57.362 510.858>
LayerCount: 2
Fore
SplineSet
-67 -181.5 m 0
 -67 -107 -9.5 -41 57 -32 c 1
 97.5 -144.5 185 -272.5 332 -272.5 c 0
 491.5 -272.5 648 -163 648 89 c 0
 648 334 457.5 479.5 121 510 c 1
 237.5 1139 l 1
 787 1186 l 1
 761 1013 l 1
 308.5 982 l 1
 256 662.5 l 1
 608.5 617.5 833.5 445.5 833.5 163.5 c 0
 833.5 -112.5 599.5 -366.5 274.5 -366.5 c 0
 78.5 -366.5 -67 -287 -67 -181.5 c 0
EndSplineSet
Validated: 524289
Colour: ffffff
EndChar

StartChar: four
Encoding: 52 52 105
Width: 1200
VWidth: 0
Flags: W
HStem: 0.5 70<376.5 469.379 1017.63 1098.5> 445 124.5<229.5 676.5 857 1152>
VStem: 681 176<117.5 441 569.5 1169.5>
DStem2: 47 511.5 229.5 569.5 0.621949 0.783058<158.923 906.769>
LayerCount: 2
Fore
SplineSet
47 511.5 m 1
 807.5 1469 l 1
 868.5 1450.5 l 1
 860.5 1304 857 1066.5 857 842.5 c 2
 857 569.5 l 1
 1172 569.5 l 1
 1152 441 l 1
 857 441 l 1
 857 109.5 l 1
 1111 78.5 l 1
 1098.5 0.5 l 1
 368 0.5 l 1
 376.5 70.5 l 1
 681 117.5 l 1
 681 445 l 1
 70.5 445 l 1
 47 511.5 l 1
229.5 569.5 m 1
 676.5 569.5 l 1
 676.5 1169.5 l 1
 229.5 569.5 l 1
EndSplineSet
Validated: 524289
Colour: ffffff
EndChar

StartChar: four.osf
Encoding: 65539 -1 106
Width: 1165
VWidth: 0
Flags: W
HStem: 133.5 120<241 685.5 861 1154.5>
VStem: 688 173<-332 130 253.5 880.5>
DStem2: 60 196.5 241 253.5 0.597136 0.80214<153.804 922.172>
LayerCount: 2
Fore
SplineSet
60 196.5 m 1
 811.5 1206 l 1
 872.5 1188 l 1
 864.5 1041.5 860 784.5 860 560.5 c 2
 860 253.5 l 1
 1174.5 253.5 l 1
 1154.5 130 l 1
 861 130 l 1
 861 -332 l 1
 688 -370.5 l 1
 688 133.5 l 1
 83 133.5 l 1
 60 196.5 l 1
241 253.5 m 1
 685.5 253.5 l 1
 685.5 880.5 l 1
 241 253.5 l 1
EndSplineSet
Validated: 524289
Colour: ffffff
EndChar

StartChar: fraction
Encoding: 8260 8260 107
Width: 2145
VWidth: 0
Flags: W
DStem2: 666.5 725.5 811 729.5 0.522747 0.852488<-463.272 805.804>
LayerCount: 2
Fore
SplineSet
202 -32 m 1
 666.5 725.5 l 1
 1103.5 1494 l 1
 1265 1489.5 l 1
 1264 1471 l 1
 811 729.5 l 1
 382 -49 l 1
 202 -32 l 1
EndSplineSet
Validated: 524289
Colour: ffffff
EndChar

StartChar: g
Encoding: 103 103 108
Width: 1068
VWidth: 0
Flags: W
HStem: -477 108<337.578 722.034> 21.5 141.5<327.031 834.515> 359.5 83<425.301 651.56> 1018 73.5<403.942 618.125>
VStem: 61.5 168.5<-274.779 -86.45> 153 154.5<189.905 286.633 573.38 877.941> 732 159.5<561.579 894.48> 879.5 158.5<-215.641 -25.6249>
LayerCount: 2
Fore
SplineSet
61.5 -204 m 0xf9
 61.5 -77.5 196.5 -4 271.5 35 c 1
 271.5 43.5 l 1
 204.5 74.5 153 129.5 153 200 c 0
 153 262 252 349 340.5 397.5 c 1
 340.5 403 l 1
 277.5 426.5 154.5 545 154.5 712.5 c 0
 154.5 917 337.5 1091.5 548 1091.5 c 0
 642 1091.5 721 1058 783.5 1013.5 c 1
 802 1013.5 1054 1033.5 1054 1033.5 c 1
 1073 1011.5 l 1
 1030 894.5 l 1
 1015.5 892.5 l 1
 841 942 l 1
 838 928.5 l 1
 856.5 897 891.5 800.5 891.5 725 c 0
 891.5 512.5 684.5 359.5 503 359.5 c 0
 454 359.5 402.5 371.5 388 377 c 1
 351.5 341 307.5 301.5 307.5 258.5 c 0xf6
 307.5 194 370 163 517 163 c 2
 706.5 162.5 l 2
 904.497 161.995 1040.5 136.5 1038 -71 c 0
 1035.34 -284.967 774.5 -477 488.5 -477 c 0
 247 -477 61.5 -387 61.5 -204 c 0xf9
230 -142.5 m 0xf9
 230 -309.5 368 -369 570 -369 c 0
 729.5 -369 879.5 -296 879.5 -132.5 c 0
 879.5 -23 834.5 21.5 607.5 21.5 c 2
 345 21.5 l 1
 345 21.5 230 -18 230 -142.5 c 0xf9
310.5 739 m 0
 310.5 580.5 415 442.5 537 442.5 c 0
 646.5 442.5 732 523.5 732 697.5 c 0xf2
 732 859 649 1018 518.5 1018 c 0
 373 1018 310.5 900.5 310.5 739 c 0
EndSplineSet
Validated: 524321
Colour: ffffff
EndChar

StartChar: germandbls
Encoding: 223 223 110
Width: 1395
VWidth: 0
Flags: W
HStem: -41 92<874.254 1146.26> 0 64<101 161.928> 992 60<120 201.237> 1504 105<556.818 803.804>
VStem: 288 166<108 992 1082 1294.76> 626 130<188.748 258.408> 678 128<735.312 919.859> 918 155<1154.8 1391.15> 1192 144<117.856 289.419>
LayerCount: 2
Fore
SplineSet
86 0 m 1x7b80
 101 64 l 1
 288 108 l 1
 288 992 l 1
 106 992 l 1
 120 1052 l 1
 290 1082 l 1
 306 1365 466 1609 742 1609 c 0
 928 1609 1073 1486 1073 1300 c 1
 1073 1080 806 977 806 841 c 0x7b80
 806 605 1336 567 1336 264 c 0
 1336 81 1160 -41 970 -41 c 0
 773 -41 626 61 626 195 c 0
 626 283 689 324 756 332 c 1
 790 142 877 51 1008 51 c 0xbd80
 1114 51 1192 106 1192 198 c 0
 1192 390 678 449 678 765 c 0
 678 993 918 1065 918 1248 c 1
 918 1392 803 1504 667 1504 c 0
 529 1504 454 1384 454 1166 c 2
 454 0 l 1
 86 0 l 1x7b80
EndSplineSet
Colour: ffffff
EndChar

StartChar: grave
Encoding: 96 96 111
Width: 715
VWidth: 0
Flags: W
HStem: 1643.5 451.5
VStem: 185 292
LayerCount: 2
Fore
SplineSet
185 2048.5 m 1
 313.5 2095 l 1
 477 1681.5 l 1
 414 1643.5 l 1
 185 2048.5 l 1
EndSplineSet
Validated: 524289
Colour: ffffff
EndChar

StartChar: greater
Encoding: 62 62 112
Width: 860
VWidth: 0
Flags: W
LayerCount: 2
Fore
SplineSet
82.5 -31 m 1
 589.5 554.5 l 1
 107 1127 l 1
 151 1201 l 1
 817.5 562 l 1
 819 527 l 1
 135 -101.5 l 1
 82.5 -31 l 1
EndSplineSet
Validated: 524289
Colour: ffffff
EndChar

StartChar: guilsinglleft
Encoding: 8249 8249 113
Width: 534
VWidth: 0
Flags: W
VStem: 63 375.5
LayerCount: 2
Fore
SplineSet
63 578.5 m 1
 394 1013 l 1
 438.5 954.5 l 1
 220.5 569 l 1
 439.5 158 l 1
 387.5 95.5 l 1
 65 554 l 1
 63 578.5 l 1
EndSplineSet
Validated: 524289
Colour: ffffff
EndChar

StartChar: h
Encoding: 104 104 114
Width: 1291
VWidth: 0
Flags: W
HStem: 0 70<81.5 133.869 563.438 601 758.5 807.705 1214.76 1255> 966 133<626.632 849.931> 1475.5 66.5<89 131.864> 1547.5 20G<159.206 434.012>
VStem: 271.5 163<107.5 871.216 921.115 1424> 931.5 158.5<105.5 873.76>
LayerCount: 2
Fore
SplineSet
67.5 0 m 1
 81.5 70 l 1
 271.5 107.5 l 1
 271.5 1424 l 1
 78 1475.5 l 1
 89 1542 l 1
 414.5 1567.5 l 1
 434.5 1547 l 1
 434.5 1034.5 l 1
 418 904 l 1
 428 904 l 1
 525 1010 660.5 1099 802.5 1099 c 0
 973.5 1099 1090 1006 1090 725 c 2
 1090 105.5 l 1
 1266 72 l 1
 1255 0 l 1
 747 0 l 1
 758.5 66 l 1
 927.5 105.5 l 1
 931.5 692.5 l 1
 931.5 700.5 l 2
 931.5 898.5 829 966 717 966 c 0
 606.5 966 521.5 922 434.5 826.5 c 1
 434.5 107.5 l 1
 612.5 71.5 l 1
 601 0 l 1
 67.5 0 l 1
EndSplineSet
Validated: 524289
Colour: ffffff
EndChar

StartChar: hbar
Encoding: 295 295 115
Width: 1291
VWidth: 0
Flags: W
HStem: 0 70<67 119.369 548.938 586.5 744 793.205 1200.26 1240.5> 966 133<612.132 835.431> 1206 81<47.5 813.5> 1475.5 66.5<74.5 117.364> 1547.5 20<144.706 419.512>
VStem: 257 163<107.5 871.216 921.115 1424> 917 158.5<105.5 873.76>
LayerCount: 2
Fore
SplineSet
37.5 1206 m 1
 47.5 1287 l 1
 823 1287 l 1
 813.5 1206 l 1
 37.5 1206 l 1
EndSplineSet
Refer: 114 104 N 1 0 0 1 -14.5 0 2
Validated: 524293
Colour: ffffff
EndChar

StartChar: hungarumlaut
Encoding: 733 733 116
Width: 918
VWidth: 0
Flags: W
HStem: 1676.5 308.5
VStem: 139 649
LayerCount: 2
Fore
SplineSet
139 1728.5 m 1
 457 1985 l 1
 539 1889 l 1
 169 1676.5 l 1
 139 1728.5 l 1
399 1728.5 m 1
 708.5 1974.5 l 1
 788 1883.5 l 1
 429 1676.5 l 1
 399 1728.5 l 1
EndSplineSet
Validated: 524289
Colour: ffffff
EndChar

StartChar: hyphen
Encoding: 45 45 117
Width: 707
VWidth: 0
Flags: W
HStem: 504.5 98.5<113.5 435.896> 526 99<288.727 603.5>
VStem: 100.5 516
LayerCount: 2
Fore
SplineSet
100.5 504.5 m 1xa0
 113.5 603 l 1xa0
 616.5 625 l 1
 603.5 526 l 1x60
 100.5 504.5 l 1xa0
EndSplineSet
Validated: 524289
Colour: ffffff
EndChar

StartChar: i
Encoding: 105 105 118
Width: 685
VWidth: 0
Flags: HW
HStem: 0 68<114 181.506 587.32 645> 1004.5 62.5<122 163.337> 1074 20<204.833 461.5> 2912.5 270<594.495 765.547>
VStem: 300 161.5<107.5 952> 566.5 227<2939.41 3157.03>
LayerCount: 2
Back
SplineSet
4.5 -389 m 5
 137.5 -289.5 266.5 -136.5 266.5 197.5 c 6
 266.5 938 l 5
 80.5 988.5 l 5
 91.5 1054.5 l 5
 409.5 1080 l 5
 430 1059 l 5
 430 186 l 6
 430 -143 285.5 -328.5 110 -439 c 6
 55.5 -473 l 5
 4.5 -389 l 5
224 1469.5 m 4
 224 1550 271.5 1602.5 339.5 1602.5 c 4
 406 1602.5 455.5 1549 455.5 1469 c 4
 455.5 1386.5 409 1329 339 1329 c 4
 269 1329 224 1388.5 224 1469.5 c 4
EndSplineSet
Fore
Refer: 84 729 N 1 0 0 1 367.5 1227.5 2
Refer: 87 305 N 1 0 0 1 0 0 3
Colour: ffffff
EndChar

StartChar: infinity
Encoding: 8734 8734 120
Width: 1698
VWidth: 0
Flags: W
HStem: 266 142<323.709 636.828 1153.98 1391.01> 916 147.5<295.74 550.835 1092.66 1362.51>
VStem: 79 92.5<539.869 826.512> 1524 77.5<513.02 761.494>
LayerCount: 2
Fore
SplineSet
79 620 m 0
 79 867 246.5 1063.5 467.5 1063.5 c 0
 620.5 1063.5 738.5 999.5 857.5 808.5 c 1
 864.5 810.5 l 1
 963 947 1086.5 1058 1259.5 1058 c 0
 1452.5 1058 1601.5 912 1601.5 678.5 c 0
 1601.5 443.5 1427 266 1215.5 266 c 0
 1054.5 266 936 378.5 849 512.5 c 1
 841.5 512.5 l 1
 729.5 330 587 261.5 451 261.5 c 0
 230.5 261.5 79 397 79 620 c 0
171.5 675.5 m 0
 171.5 528.5 307 415.5 489.5 415.5 c 0
 621 415.5 746.5 485.5 805 572 c 1
 641.5 820 545 916 411.5 916 c 0
 263 916 171.5 833.5 171.5 675.5 c 0
900.5 740.5 m 1
 1045.5 512 1161 408 1300.5 408 c 0
 1433.5 408 1524 521.5 1524 645.5 c 0
 1524 780.5 1372 910.5 1213.5 910.5 c 0
 1055 910.5 960.5 809 900.5 740.5 c 1
EndSplineSet
Validated: 524289
Colour: ffffff
EndChar

StartChar: integral
Encoding: 8747 8747 121
Width: 1133
VWidth: 0
Flags: W
HStem: -473.5 106<197.328 396.892> 1505 104.5<763.486 960.286>
VStem: 496.5 165.5<-160.258 1281.77>
LayerCount: 2
Fore
SplineSet
12 -333.5 m 1
 12.5 -278.5 55.5 -234 97 -218 c 1
 144 -285.5 224.5 -367.5 317.5 -367.5 c 0
 413.5 -367.5 487 -278.5 496.5 -71.5 c 1
 499 1028.5 l 2
 500.5 1447 750 1609.5 925 1609.5 c 0
 1055.5 1609.5 1145.5 1554.5 1145.5 1470 c 0
 1145.5 1415.5 1100.5 1372 1059.5 1356 c 1
 1013 1422.5 932.5 1505 840.5 1505 c 0
 742.5 1505 665.5 1412 661.5 1210.5 c 1
 662 101 l 2
 662 -305.5 412.5 -473.5 233.5 -473.5 c 0
 101.5 -473.5 12 -418 12 -333.5 c 1
EndSplineSet
Validated: 524289
Colour: ffffff
EndChar

StartChar: j
Encoding: 106 106 122
Width: 568
VWidth: 0
Flags: W
HStem: 988.5 66<91.5 133.302> 1060 20G<160.088 429.024> 1329 273.5<252.53 427.217>
VStem: 224 231.5<1355.91 1575.96> 266.5 163.5<-93.9291 938>
LayerCount: 2
Fore
SplineSet
4.5 -389 m 5xe8
 137.5 -289.5 266.5 -136.5 266.5 197.5 c 6
 266.5 938 l 5
 80.5 988.5 l 5
 91.5 1054.5 l 5
 409.5 1080 l 5
 430 1059 l 5
 430 186 l 6
 430 -143 285.5 -328.5 110 -439 c 6
 55.5 -473 l 5
 4.5 -389 l 5xe8
224 1469.5 m 4xf0
 224 1550 271.5 1602.5 339.5 1602.5 c 4
 406 1602.5 455.5 1549 455.5 1469 c 4
 455.5 1386.5 409 1329 339 1329 c 4
 269 1329 224 1388.5 224 1469.5 c 4xf0
EndSplineSet
Validated: 524289
Colour: ffffff
EndChar

StartChar: k
Encoding: 107 107 123
Width: 1206
VWidth: 0
Flags: W
HStem: 0 68<85 153.777 559.683 620 1162 1199.5> 1008.5 68.5<668.5 705.923 1086.68 1140.5> 1471 64<89.5 136.471> 1541.5 20G<169.217 434.012>
VStem: 274.5 160<107.5 1420>
DStem2: 471.5 551 629.5 584 0.649119 0.760687<127.664 542.273> 629.5 584 471.5 529 0.617163 -0.786836<0 632.928>
LayerCount: 2
Fore
SplineSet
72.5 0 m 1
 85 68 l 1
 274.5 107.5 l 1
 274.5 1420 l 1
 82.5 1471 l 1
 89.5 1535 l 1
 414.5 1561.5 l 1
 434.5 1541 l 1
 434.5 107.5 l 1
 631 70 l 1
 620 0 l 1
 72.5 0 l 1
471.5 529 m 1
 471.5 551 l 1
 823.5 963.5 l 1
 659 1008.5 l 1
 668.5 1077 l 1
 1154 1077 l 1
 1140.5 1010 l 1
 956 964.5 l 1
 629.5 584 l 1
 752 437.5 l 2
 951.5 199 1006.5 99 1162 79.5 c 2
 1210.5 73 l 1
 1199.5 0 l 1
 1181 -6 1117 -24.5 1062 -24.5 c 0
 919 -24.5 845.5 52.5 637 318 c 1
 471.5 529 l 1
EndSplineSet
Validated: 524289
Colour: ffffff
EndChar

StartChar: l
Encoding: 108 108 124
Width: 667
VWidth: 0
Flags: W
HStem: 0 68<85.5 154.095 560.639 618> 1477 64<89.5 136.471> 1547 20G<164.269 434.5>
VStem: 274.5 160<107.5 1426>
LayerCount: 2
Fore
SplineSet
72.5 0 m 1
 85.5 68 l 1
 274.5 107.5 l 1
 274.5 1426 l 1
 82.5 1477 l 1
 89.5 1541 l 1
 413.5 1567 l 1
 434.5 1547 l 1
 434.5 107.5 l 1
 632.5 70 l 1
 618 0 l 1
 72.5 0 l 1
EndSplineSet
Validated: 524289
Colour: ffffff
EndChar

StartChar: logicalnot
Encoding: 172 172 125
Width: 1149
VWidth: 0
Flags: W
HStem: 720.5 98.5<111 921>
VStem: 921 110.5<432.5 720.5>
LayerCount: 2
Fore
SplineSet
96 720.5 m 1
 111 819 l 1
 1030 819 l 1
 1031.5 432.5 l 1
 921 410 l 1
 921 720.5 l 1
 96 720.5 l 1
EndSplineSet
Validated: 524289
Colour: ffffff
EndChar

StartChar: lozenge
Encoding: 9674 9674 126
Width: 1162
VWidth: 0
Flags: W
VStem: 283.5 599
LayerCount: 2
Fore
SplineSet
283.5 584.5 m 1
 582.5 936 l 1
 882.5 582.5 l 1
 584.5 221.5 l 1
 283.5 584.5 l 1
EndSplineSet
Validated: 524289
Colour: ffffff
EndChar

StartChar: lslash
Encoding: 322 322 127
Width: 677
VWidth: 0
Flags: W
HStem: 0 68<74.5 142.732 549.139 607> 1057 20G<571.343 593.757> 1477 64<78.5 125.549> 1547 20G<153.269 423>
VStem: 262.5 160.5<107.5 1426>
DStem2: 84.5 677.5 64.5 546 0.786612 0.617448<0 553.331>
LayerCount: 2
Fore
SplineSet
61.5 0 m 1
 74.5 68 l 1
 262.5 107.5 l 1
 262.5 1426 l 1
 72 1477 l 1
 78.5 1541 l 1
 402.5 1567 l 1
 423 1547 l 1
 423 107.5 l 1
 621 70 l 1
 607 0 l 1
 61.5 0 l 1
64.5 546 m 1
 84.5 677.5 l 1
 597 1077 l 1
 576 947.5 l 1
 64.5 546 l 1
EndSplineSet
Validated: 524293
Colour: ffffff
EndChar

StartChar: m
Encoding: 109 109 128
Width: 1964
VWidth: 0
Flags: W
HStem: 0 66<111 179.232 572.305 624.5 797 856.522 1225.57 1277.5 1449 1507.43 1887.22 1932> 964 132.5<651.747 876.066 1315.77 1523.83> 978.5 63.5<112 161.405> 1060 20G<269.263 459>
VStem: 299 161.5<105.5 865.286> 961 155<105.5 855.211> 1610 163<107.5 874.494>
LayerCount: 2
Fore
SplineSet
100.5 0 m 1xce
 111 66 l 1
 299 105.5 l 1
 299 929.5 l 1
 104.5 978.5 l 1
 112 1042 l 1
 444 1080 l 1xbe
 459 1062 l 1
 445.5 898.5 l 1
 455 898.5 l 1
 534 996 679 1096.5 834.5 1096.5 c 0
 957.5 1096.5 1066 1031.5 1096.5 892.5 c 1
 1110.5 892.5 l 1
 1187.5 990 1326.5 1091.5 1482 1091.5 c 0
 1699 1091.5 1773 951 1773 737 c 2
 1773 107.5 l 1
 1947.5 74 l 1
 1932 2 l 1
 1442 2 l 1
 1449 66 l 1
 1610 105.5 l 1
 1610 706.5 l 2
 1610 869.5 1531.5 962 1392.5 962 c 0
 1268 962 1173 874.5 1116 814 c 1
 1116 105.5 l 1
 1288 72 l 1
 1277.5 0 l 1
 786.5 0 l 1
 797 66 l 1
 961 105.5 l 1
 961 706.5 l 2
 961 859.5 881 964 747.5 964 c 0
 635.5 964 526.5 904 460.5 821.5 c 1
 460.5 105.5 l 1
 636 72 l 1
 624.5 0 l 1
 100.5 0 l 1xce
EndSplineSet
Validated: 524289
Colour: ffffff
EndChar

StartChar: macron
Encoding: 175 175 129
Width: 824
VWidth: 0
Flags: W
HStem: 1702 94.5<147 678>
VStem: 133.5 557.5
LayerCount: 2
Fore
SplineSet
133.5 1702 m 1
 147 1796.5 l 1
 691 1796.5 l 1
 678 1702 l 1
 133.5 1702 l 1
EndSplineSet
Validated: 524289
Colour: ffffff
EndChar

StartChar: minus
Encoding: 8722 8722 130
Width: 993
VWidth: 0
Flags: W
HStem: 519 103.5<132.5 865>
LayerCount: 2
Fore
SplineSet
111.5 519 m 1
 132.5 622.5 l 1
 885.5 626.5 l 1
 865 523 l 1
 111.5 519 l 1
EndSplineSet
Validated: 524289
Colour: ffffff
EndChar

StartChar: mu
Encoding: 956 956 131
Width: 1255
VWidth: 0
Flags: W
HStem: -29.5 130.5<487.476 702.192> -2.5 73<1156.5 1213.5> 991 66<81 120.625 687.5 730.828> 1063 20G<152.077 407.605 796.833 1031.31>
VStem: 225.5 137.5<-447 -189.568> 251 158<200.007 939> 875 157.5<120.408 161.5 189.472 936>
LayerCount: 2
Fore
SplineSet
71 991 m 1xb6
 81 1057 l 1
 389 1083 l 1
 409 1061.5 l 1
 409 389.5 l 2
 409 187 489 101 619.5 101 c 0xb6
 731 101 814.5 169.5 875 229 c 1
 875 936 l 1
 680 980.5 l 1
 687.5 1053 l 1
 1015.5 1083 l 1
 1032.5 1061.5 l 1
 1032.5 273.5 l 2
 1032.5 147.5 1062.5 103 1156.5 84.5 c 2
 1221.5 70.5 l 1
 1213.5 -2.5 l 1x76
 1162.5 -17 1119 -26 1057 -26 c 0
 945 -26 889 52 889 146.5 c 2
 889 161.5 l 1
 875 161.5 l 1
 777 36.5 655 -29.5 531.5 -29.5 c 0
 451.5 -29.5 379.5 -2 342 60 c 1
 334 60 l 1
 338 38 340 -26.5 344.5 -105.5 c 1
 363 -479 l 1
 225.5 -447 l 1xba
 227.5 -414 251 223 251 610 c 2
 251 939 l 1
 71 991 l 1xb6
EndSplineSet
Validated: 524289
Colour: ffffff
EndChar

StartChar: multiply
Encoding: 215 215 132
Width: 962
VWidth: 0
Flags: W
HStem: 291.5 549
VStem: 80 561.5
DStem2: 80 372.5 150 286 0.72051 0.693445<0 288.276 388.895 672.583> 169 840.5 82 771 0.705999 -0.708212<0 277.704 381.848 665.56>
LayerCount: 2
Fore
SplineSet
80 372.5 m 1
 290.5 569.5 l 1
 82 771 l 1
 169 840.5 l 1
 364.5 634 l 1
 572.5 846.5 l 1
 641.5 759 l 1
 434 565.5 l 1
 647.5 360.5 l 1
 561 291.5 l 1
 359.5 501.5 l 1
 150 286 l 1
 80 372.5 l 1
EndSplineSet
Validated: 524289
Colour: ffffff
EndChar

StartChar: n
Encoding: 110 110 133
Width: 1322
VWidth: 0
Flags: W
HStem: 0 64<107 172.117 574.492 624 787 846.762 1235.07 1287> 963.5 134.5<654.29 876.905> 980 64<113 160.735> 1061 20G<263.703 455.5>
VStem: 295.5 161.5<105.5 867.992> 960 161.5<105.5 873.37>
LayerCount: 2
Fore
SplineSet
97 0 m 1xcc
 107 64 l 1
 295.5 105.5 l 1
 295.5 931 l 1
 105 980 l 1
 113 1044 l 1
 441 1081 l 1xbc
 455.5 1063 l 1
 442.5 900 l 1
 453 900 l 1
 523 987 672 1098 836.5 1098 c 0
 1006 1098 1121.5 985 1121.5 740.5 c 2
 1121.5 105.5 l 1
 1295 71.5 l 1
 1287 0 l 1
 777 0 l 1
 787 64 l 1
 960 105.5 l 1
 960 701 l 2
 960 890 863.5 963.5 750 963.5 c 0
 632.5 963.5 553 923 457 827 c 1
 457 105.5 l 1
 636.5 71 l 1
 624 0 l 1
 97 0 l 1xcc
EndSplineSet
Validated: 524289
Colour: ffffff
EndChar

StartChar: nine
Encoding: 57 57 134
Width: 1156
VWidth: 0
Flags: W
HStem: -33.5 72<286.42 354.919> 582 115.5<457.485 699.323> 1411 81<441.67 689.53>
VStem: 130.5 195.5<848.552 1211.92> 849 199<726.235 1206.93>
LayerCount: 2
Fore
SplineSet
130.5 1009 m 0
 130.5 1286.5 349.5 1492 601.5 1492 c 0
 921 1492 1048 1226 1048 937.5 c 0
 1048 484 753.5 52 291 -33.5 c 1
 268 38.5 l 1
 670 158 797 437.5 833.5 711 c 1
 821 711 l 1
 743.5 637.5 642.5 582 502.5 582 c 0
 264 582 130.5 763 130.5 1009 c 0
326 1052 m 0
 326 861 416.5 697.5 602.5 697.5 c 0
 712.5 697.5 803.5 750.5 838 803.5 c 1
 848 858.5 849 931 849 978 c 0
 849 1230 730.5 1411 583 1411 c 0
 396 1411 326 1277.5 326 1052 c 0
EndSplineSet
Validated: 524289
Colour: ffffff
EndChar

StartChar: nine.osf
Encoding: 65540 -1 135
Width: 983
VWidth: 0
Flags: W
HStem: 274.5 114<362.943 605.793> 1101.5 81.5<358.964 590.224>
VStem: 64 186<515.355 916.814> 733.5 190<475.001 918.246>
LayerCount: 2
Fore
SplineSet
64 710.5 m 0
 64 972.5 258.5 1183 503.5 1183 c 0
 823 1183 923.5 919 923.5 630.5 c 0
 923.5 216.5 605 -197.5 193.5 -334.5 c 1
 166 -262.5 l 1
 519.5 -102.5 658 152 719.5 397 c 1
 708 397 l 1
 640.5 327 550.5 274.5 413.5 274.5 c 0
 183 274.5 64 459.5 64 710.5 c 0
250 743 m 0
 250 522.5 334 388.5 504 388.5 c 0
 610.5 388.5 688.5 438 724.5 491 c 1
 733.5 541.5 733.5 620.5 733.5 667.5 c 0
 733.5 919.5 627 1101.5 479.5 1101.5 c 0
 332.5 1101.5 250 985.5 250 743 c 0
EndSplineSet
Validated: 524289
Colour: ffffff
EndChar

StartChar: notequal
Encoding: 8800 8800 136
Width: 988
VWidth: 0
Flags: W
HStem: 403 105<36 324.785 354.5 432 447.5 900> 699 105<40 549 562 656 683 903> 1056 20G<755 862.408>
LayerCount: 2
Fore
SplineSet
21 403 m 1
 36 508 l 1
 914 508 l 1
 900 403 l 1
 21 403 l 1
25 699 m 1
 40 804 l 1
 916 804 l 1
 903 699 l 1
 25 699 l 1
62 66 m 1
 324.785 457 l 1
 354.5 485 l 1
 549 756 l 1
 562 792 l 1
 755 1072 l 1
 876 1076 l 1
 683 792 l 1
 656 756 l 1
 447.5 472 l 1
 432 436 l 1
 182 72 l 1
 62 66 l 1
EndSplineSet
Colour: ffffff
EndChar

StartChar: numbersign
Encoding: 35 35 137
Width: 1128
VWidth: 0
Flags: W
HStem: 402 125<-4 1084> 878 125<85 1177>
DStem2: 225 -32 339 -23 0.148274 0.988946<25.8037 1467.28> 616 -32 731 -23 0.148374 0.988931<25.9634 1467.28>
LayerCount: 2
Back
SplineSet
257 307.5 m 1
 225.5 344 l 1
 407.5 893.5 l 1
 474 1050.5 l 1
 375.5 1050.5 l 1
 384 1093 l 1
 479.5 1093 l 1
 500 1211.5 l 1
 537 1218 l 1
 517 1093 l 1
 670.5 1093 l 1
 689.5 1211.5 l 1
 725.5 1216.5 l 1
 706 1093 l 1
 811 1093 l 1
 801.5 1050.5 l 1
 702 1050.5 l 1
 678 899.5 l 1
 775.5 899.5 l 1
 767.5 858.5 l 1
 671 858.5 l 1
 654.5 734.5 l 1
 614.5 730 l 1
 635 858.5 l 1
 483 858.5 l 1
 464 734.5 l 1
 423.5 730 l 1
 444 858.5 l 1
 257 307.5 l 1
280.5 701 m 1
 443 743.5 l 1
 964.5 894.5 l 1
 802.5 852 l 1
 280.5 701 l 1
EndSplineSet
Fore
SplineSet
339 -23 m 17
 225 -32 l 9
 443 1419 l 17
 557 1431 l 9
 339 -23 l 17
51 878 m 17
 85 1003 l 9
 1208 1003 l 17
 1177 878 l 9
 51 878 l 17
-37 402 m 17
 -4 527 l 9
 1116 527 l 17
 1084 402 l 9
 -37 402 l 17
731 -23 m 17
 616 -32 l 9
 834 1419 l 17
 949 1430 l 9
 731 -23 l 17
EndSplineSet
Validated: 5
Colour: ffffff
EndChar

StartChar: o
Encoding: 111 111 138
Width: 1165
VWidth: 0
Flags: W
HStem: -33 99.5<492.337 772.171> 994 105.5<435.428 721.876>
VStem: 116 174.5<327.67 757.869> 921 174.5<295.424 734.904>
LayerCount: 2
Fore
SplineSet
116 507.5 m 0
 116 881.5 356 1099.5 632 1099.5 c 0
 918.5 1099.5 1095.5 857 1095.5 542 c 0
 1095.5 197.5 871 -33 601 -33 c 0
 307.5 -33 116 187 116 507.5 c 0
290.5 595.5 m 0
 290.5 322.5 407 66.5 644 66.5 c 0
 821 66.5 921 253 921 468.5 c 0
 921 717 810 994 579 994 c 0
 393 994 290.5 812 290.5 595.5 c 0
EndSplineSet
Validated: 524289
Colour: ffffff
EndChar

StartChar: oe
Encoding: 339 339 139
Width: 1747
VWidth: 0
Flags: W
HStem: -36.5 127<1221.87 1519.43> -33.5 103.5<456.387 718.941> 545 78<1037 1267.44> 996 102<399.312 671.397 1171.99 1409.72>
VStem: 86 176.5<334.183 768.922> 861.5 174.5<313.295 545 623 739.288> 1480 173.5<649.655 922.5>
LayerCount: 2
Fore
SplineSet
86 515 m 0x7e
 86 890 321.5 1098 575 1098 c 0
 733.5 1098 896.5 1014.5 960 864.5 c 1
 1030 983 1169.5 1093.5 1345 1093.5 c 0
 1524.5 1093.5 1653.5 988.5 1653.5 728 c 0
 1653.5 690 1642.5 595 1632 552 c 1
 1036 545 l 1
 1036 308.5 1148.5 90.5 1388.5 90.5 c 0
 1490.5 90.5 1568 118.5 1661 182 c 1
 1687 128.5 l 1
 1603 31.5 1467 -36.5 1303.5 -36.5 c 0xbe
 1133 -36.5 1009.5 60 938 198.5 c 1
 840.5 37.5 704 -33.5 546 -33.5 c 0
 265.5 -33.5 86 193.5 86 515 c 0x7e
262.5 603.5 m 0
 262.5 330.5 382.5 70 599 70 c 0x7e
 755 70 861.5 261.5 861.5 476.5 c 0
 861.5 724.5 755 996 536 996 c 0
 350 996 262.5 820 262.5 603.5 c 0
1037 623 m 1
 1471 650 l 1
 1477 672.5 1480 749 1480 768.5 c 0
 1480 915 1403 993.5 1284.5 993.5 c 0
 1170.5 993.5 1043 872 1037 623 c 1
EndSplineSet
Validated: 524289
Colour: ffffff
EndChar

StartChar: ogonek
Encoding: 731 731 140
Width: 600
VWidth: 0
Flags: W
HStem: -477 52.5<430.44 439.332>
VStem: 154 151.5<-323.122 -126.145>
LayerCount: 2
Fore
SplineSet
154 -257.5 m 0
 154 -192 178 -122.5 319 4 c 1
 392.5 4 l 1
 316.5 -104.5 305.5 -155 305.5 -194 c 0
 305.5 -283 358 -359 469.5 -424.5 c 1
 428 -477 l 1
 250 -458.5 154 -363 154 -257.5 c 0
EndSplineSet
Validated: 524289
Colour: ffffff
EndChar

StartChar: one
Encoding: 49 49 141
Width: 1097
VWidth: 0
Flags: W
HStem: 1.5 74<152.5 246.589 913.367 1006.5> 1308 74.5<177.5 263.97>
VStem: 490.5 196.5<127 1308>
LayerCount: 2
Fore
SplineSet
147.5 1.5 m 1
 152.5 75.5 l 1
 490.5 127 l 1
 490.5 1308 l 1
 171 1308 l 1
 177.5 1382.5 l 1
 654 1461.5 l 1
 687 1461.5 l 1
 687 121 l 1
 1017.5 86.5 l 1
 1006.5 1.5 l 1
 147.5 1.5 l 1
EndSplineSet
Validated: 524289
Colour: ffffff
EndChar

StartChar: one.osf
Encoding: 65541 -1 142
Width: 751
VWidth: 0
Flags: W
HStem: 1.5 74<79.5 147.283 661.566 727.5> 1013 75<110 174.058>
VStem: 323 173.5<127 1011.5>
LayerCount: 2
Fore
SplineSet
72 1.5 m 1
 79.5 75.5 l 1
 323 127 l 1
 323 1011.5 l 1
 101 1013 l 1
 110 1088 l 1
 463 1167 l 1
 496.5 1167 l 1
 496.5 121 l 1
 737.5 85 l 1
 727.5 1.5 l 1
 72 1.5 l 1
EndSplineSet
Validated: 524289
Colour: ffffff
EndChar

StartChar: onehalf
Encoding: 189 189 143
Width: 1245
VWidth: 0
Flags: W
HStem: 0 69.5<842.5 1081> 529.5 67.5<864.69 1012.79> 618.5 37.5<104.5 191.451 364.883 458.5> 1128.5 38<115.5 192.341>
VStem: 244 85<679 1128.5> 765 41<413.755 446.395> 1036.5 90.5<300.174 514.982>
DStem2: 162.5 -36.5 265.5 -26.5 0.571409 0.820665<67.0618 1488.43> 866 151.5 842.5 69.5 0.765077 0.643939<-70.7823 197.957>
LayerCount: 2
Fore
SplineSet
101 618.5 m 1
 104.5 656 l 1
 244 679 l 1
 244 1128.5 l 1
 111 1128.5 l 1
 115.5 1166.5 l 1
 316.5 1204 l 1
 329 1204 l 1
 329 675.5 l 1
 464.5 660 l 1
 458.5 618.5 l 1
 101 618.5 l 1
162.5 -36.5 m 1
 1013 1185 l 1
 1112.5 1194.5 l 1
 265.5 -26.5 l 1
 162.5 -36.5 l 1
746 50.5 m 1
 866 151.5 l 1
 946.5 221 1036.5 305.5 1036.5 405 c 0
 1036.5 473 1017 529.5 936.5 529.5 c 0
 867 529.5 828 460.5 806 404 c 1
 765 419 l 1
 784 501.5 862.5 597 965.5 597 c 0
 1072.5 597 1127 534.5 1127 427.5 c 0
 1127 287 970.5 184.5 889 105.5 c 1
 842.5 69.5 l 1
 1081 69.5 l 1
 1127 154.5 l 1
 1161.5 149 l 1
 1134.5 0 l 1
 750 0 l 1
 746 50.5 l 1
EndSplineSet
Validated: 524289
Colour: ffffff
EndChar

StartChar: onequarter
Encoding: 188 188 144
Width: 1242
VWidth: 0
Flags: W
HStem: 176.5 60<775.5 941.5 1024.5 1142.5> 618.5 37.5<91 178.574 352.016 446.5> 1128.5 38<102.5 179.532>
VStem: 231.5 84.5<679 1128.5> 944 80.5<7 175 236.5 448>
DStem2: 174.5 -36.5 277 -26.5 0.571183 0.820823<66.7544 1488.14> 692 213 775.5 236.5 0.62997 0.776619<70.8531 339.683>
LayerCount: 2
Fore
SplineSet
88.5 618.5 m 1
 91 656 l 1
 231.5 679 l 1
 231.5 1128.5 l 1
 99 1128.5 l 1
 102.5 1166.5 l 1
 304 1204 l 1
 316 1204 l 1
 316 675.5 l 1
 452 660 l 1
 446.5 618.5 l 1
 88.5 618.5 l 1
174.5 -36.5 m 1
 1024.5 1185 l 1
 1125 1194.5 l 1
 277 -26.5 l 1
 174.5 -36.5 l 1
692 213 m 1
 997 589 l 1
 1029 580.5 l 1
 1025.5 523 1024.5 426.5 1024.5 336.5 c 2
 1024.5 236.5 l 1
 1150.5 236.5 l 1
 1142.5 175 l 1
 1024.5 175 l 1
 1024.5 7 l 1
 944 -6 l 1
 944 176.5 l 1
 703.5 176.5 l 1
 692 213 l 1
775.5 236.5 m 1
 941.5 236.5 l 1
 941.5 448 l 1
 775.5 236.5 l 1
EndSplineSet
Validated: 524289
Colour: ffffff
EndChar

StartChar: onesuperior
Encoding: 185 185 145
Width: 298
VWidth: 0
Flags: W
HStem: 1244.5 29<60.5 115.156 186.488 246.5> 1535 27<66 118.895>
VStem: 121.5 62<1289.5 1535>
LayerCount: 2
Fore
SplineSet
55.5 1244.5 m 1
 60.5 1273.5 l 1
 121.5 1289.5 l 1
 121.5 1535 l 1
 63.5 1535 l 1
 66 1562 l 1
 173 1591 l 1
 183.5 1591 l 1
 183.5 1288.5 l 1
 251 1276.5 l 1
 246.5 1244.5 l 1
 55.5 1244.5 l 1
EndSplineSet
Validated: 524289
Colour: ffffff
EndChar

StartChar: ordfeminine
Encoding: 170 170 146
Width: 561
VWidth: 0
Flags: W
HStem: 353.5 62.5<79.5 489.5> 501.5 52.5<189.075 253.947 414.389 467.756> 539.5 14.5<259.168 268.967> 712 39.5<251.126 332> 910.5 47.5<199.888 299.004>
VStem: 105.5 76.5<555.707 674.485> 121 62<825.08 902.738> 332 71<565.665 712 746.193 889.6>
LayerCount: 2
Fore
SplineSet
70.5 353.5 m 1x99
 79.5 416 l 1
 497.5 416 l 1
 489.5 353.5 l 1
 70.5 353.5 l 1x99
105.5 591 m 0xdd
 105.5 662 170.5 725.5 332 751.5 c 1
 332 779 l 2
 332 854 306.5 910.5 241 910.5 c 0
 195 910.5 191 873.5 183 813 c 1
 156.5 813 121 814.5 121 863.5 c 0
 121 916.5 212.5 958 282 958 c 0
 369 958 403 908.5 403 805 c 2
 403 625.5 l 2
 403 574.5 420.5 566 471.5 558.5 c 1
 479.5 535 l 1
 467 533 457 508 442.5 508 c 1
 402 506 394 522 379.5 537.5 c 1
 351 537.5 341 558 341 573 c 1
 338.5 576.5 l 1
 330.5 559.5 302 539.5 269 539.5 c 1xbb
 235.5 522.5 267 501.5 201.5 501.5 c 0
 151 501.5 105.5 530.5 105.5 591 c 0xdd
182 613 m 0xdd
 182 572 202.5 554 236.5 554 c 0
 277.5 554 320.5 592.5 332 612 c 1
 332 712 l 1
 210 693.5 182 659 182 613 c 0xdd
EndSplineSet
Validated: 524321
Colour: ffffff
EndChar

StartChar: ordmasculine
Encoding: 186 186 147
Width: 569
VWidth: 0
Flags: W
HStem: 353.5 67.5<82.5 492> 495.5 47<231.664 348.676> 904.5 49<209.625 333.469>
VStem: 85.5 84<587.898 867.268> 392.5 83<580.506 862.267>
LayerCount: 2
Fore
SplineSet
73.5 353.5 m 1
 82.5 421 l 1
 500 421 l 1
 492 353.5 l 1
 73.5 353.5 l 1
85.5 720 m 0
 85.5 873 183.5 953.5 290.5 953.5 c 0
 412.5 953.5 475.5 863.5 475.5 726.5 c 0
 475.5 589.5 390.5 495.5 277 495.5 c 0
 146.5 495.5 85.5 591.5 85.5 720 c 0
169.5 742.5 m 0
 169.5 621.5 221.5 542.5 291 542.5 c 0
 358 542.5 392.5 603.5 392.5 710 c 0
 392.5 822 348 904.5 271.5 904.5 c 0
 206 904.5 169.5 850.5 169.5 742.5 c 0
EndSplineSet
Validated: 524289
Colour: ffffff
EndChar

StartChar: oslash
Encoding: 248 248 148
Width: 1165
VWidth: 0
Flags: W
HStem: -33 99.5<489.455 765.575> 0 21G<86.65 238> 1010 104.5<437.71 715.169> 1066 20G<966.5 1115.86>
VStem: 109 175.5<333.732 767.534> 914.5 175<301.75 744.403>
LayerCount: 2
Fore
SplineSet
69 0 m 1x5c
 245.5 200 l 1
 298.5 226 l 1
 846 893.5 l 1
 863.5 944 l 1
 966.5 1076.5 l 1
 1132.5 1086 l 1
 957 875 l 1
 891.5 832.5 l 1
 345.5 173.5 l 1
 331.5 122.5 l 1
 238 8 l 1
 69 0 l 1x5c
284.5 603.5 m 0
 284.5 330.5 401 66.5 638 66.5 c 0
 814.5 66.5 914.5 261 914.5 476.5 c 0
 914.5 725.5 803 1010 572 1010 c 0xac
 386 1010 284.5 820 284.5 603.5 c 0
109 515 m 0
 109 892 349.5 1114.5 625.5 1114.5 c 0
 912 1114.5 1089.5 864.5 1089.5 549.5 c 0
 1089.5 205 864 -33 594 -33 c 0
 296.5 -33 109 193.5 109 515 c 0
EndSplineSet
Validated: 524293
Colour: ffffff
EndChar

StartChar: p
Encoding: 112 112 149
Width: 1207
VWidth: 0
Flags: W
HStem: -460.5 72.5<71.5 143.955 532.857 599.5> -24.5 104<469.118 802.307> 963 130.5<596.458 824.502> 976.5 65.5<78.5 128.058> 1057.5 20G<221.275 422>
VStem: 258.5 161<-351 860.738> 959.5 175<324.711 785.752>
LayerCount: 2
Fore
SplineSet
64.5 -460.5 m 1xe6
 71.5 -388 l 1
 258.5 -351 l 1
 258.5 930.5 l 1
 69 976.5 l 1
 78.5 1042 l 1
 405.5 1077.5 l 1xde
 422 1060 l 1
 410.5 891 l 1
 419.5 891 l 1
 482 978 603.5 1093.5 765 1093.5 c 0
 976 1093.5 1134.5 938 1134.5 569.5 c 0
 1134.5 218 907 -24.5 595 -24.5 c 0
 558.5 -24.5 509.5 -19.5 468.5 -11.5 c 1
 462.5 107 l 1
 519.5 85 563.5 79.5 661 79.5 c 0
 832 79.5 959.5 233 959.5 498.5 c 0
 959.5 787 874.5 963 683.5 963 c 0
 568.5 963 481.5 881.5 419.5 817 c 1
 419.5 -353 l 1
 611.5 -385 l 1
 599.5 -460.5 l 1
 64.5 -460.5 l 1xe6
EndSplineSet
Validated: 524289
Colour: ffffff
EndChar

StartChar: paragraph
Encoding: 182 182 150
Width: 1593
VWidth: 0
Flags: W
HStem: 0.5 71<629.5 713.724 1449.36 1523> 571 91.5<595.982 770> 1444.5 91.5<567.761 911.5> 1465.5 70.5<1437.95 1518.5>
VStem: 178 208.5<863.218 1225.46> 911.5 160<119.5 1442> 1154.5 150.5<110 1427.5>
LayerCount: 2
Fore
SplineSet
178 1031 m 0xee
 178 1324 442.5 1536 745.5 1536 c 2xee
 1071.5 1536 l 1xde
 1071.5 0.5 l 1
 621.5 0.5 l 1
 629.5 71.5 l 1
 911.5 119.5 l 1
 911.5 1442 l 1
 861 1444 812.5 1444.5 801 1444.5 c 0
 511.5 1444.5 386.5 1306 386.5 1050.5 c 0
 386.5 839.5 525 662.5 792 662.5 c 1
 770 571 l 1
 448.5 571 178 671 178 1031 c 0xee
1154.5 0.5 m 1
 1154.5 1536 l 1
 1527.5 1536 l 1
 1518.5 1465.5 l 1xde
 1305 1427.5 l 1
 1305 110 l 1
 1535 78 l 1
 1523 -1 l 1
 1154.5 0.5 l 1
EndSplineSet
Validated: 524289
Colour: ffffff
EndChar

StartChar: parenright
Encoding: 41 41 151
Width: 585
VWidth: 0
Flags: W
HStem: 1529 20G<98.4179 152.75>
VStem: 349 179.5<184.556 927.46>
LayerCount: 2
Fore
SplineSet
66.5 1482 m 1
 112 1549 l 1
 193.5 1479.5 528.5 1203.5 528.5 555.5 c 0
 528.5 -80.5 181.5 -405 119 -462.5 c 1
 59.5 -407 l 1
 114.5 -317 349 49 349 562 c 0
 349 1086 172 1343 66.5 1482 c 1
EndSplineSet
Validated: 524289
Colour: ffffff
EndChar

StartChar: partialdiff
Encoding: 8706 8706 152
Width: 1139
VWidth: 0
Flags: W
HStem: -33 94.5<491.423 755.584> 1079 91.5<437.726 681.953>
VStem: 129 171.5<313.714 838.367> 886 169.5<290.432 799.618>
LayerCount: 2
Fore
SplineSet
129 556.5 m 0
 129 920.5 314 1170.5 576.5 1170.5 c 0
 673.5 1170.5 783 1105 819.5 1011 c 1
 828.5 1013 l 1
 771 1252.5 554.5 1510.5 442.5 1607 c 1
 555.5 1607 l 1
 893 1399.5 1055.5 1017 1055.5 574 c 0
 1055.5 194 857.5 -33 592.5 -33 c 0
 272 -33 129 257 129 556.5 c 0
300.5 615 m 1
 302.5 254.5 443 61.5 621.5 61.5 c 0
 812.5 61.5 886 259 886 524 c 0
 886 863.5 715.5 1077 560.5 1079 c 1
 554.5 1079 l 1
 372 1077 300.5 866 300.5 615 c 1
EndSplineSet
Validated: 524289
Colour: ffffff
EndChar

StartChar: percent
Encoding: 37 37 153
Width: 2145
VWidth: 0
Flags: W
HStem: -44 64<1045.95 1172.56> 674 55<1044.69 1159.78> 721 65<306.766 433.344> 1419 57<591 971.189> 1441 55<304.6 411.664>
VStem: 68.5 158<898.384 1301.06> 510.5 158<916.302 1354.14> 804 159<139.349 534.06> 1248 156<149.626 544.799>
DStem2: 666.5 725.5 811 729.5 0.522747 0.852488<-458.251 805.804>
LayerCount: 2
Fore
SplineSet
68.5 1109 m 0xb780
 68.5 1318 215 1496 367 1496 c 0
 389 1496 405 1495 412 1492 c 1
 412.5 1422 l 17
 394.5 1435 386 1441 363 1441 c 0xaf80
 261.5 1441 226.5 1250 226.5 1109 c 0
 226.5 964 274 786 366 786 c 0
 470 786 510.5 961 510.5 1109 c 0
 510.5 1285 483 1403.5 453.5 1476 c 9
 1103.5 1494 l 25
 1115.5 1409 l 25
 591 1419 l 17
 640 1361 668.5 1171 668.5 1109 c 0
 668.5 896 511 721 366 721 c 0
 209 721 68.5 872 68.5 1109 c 0xb780
202 -32 m 1
 666.5 725.5 l 1
 1103.5 1494 l 1
 1265 1489.5 l 1
 1262.5 1469 l 1
 811 729.5 l 1
 382 -49 l 1
 202 -32 l 1
804 342 m 0
 804 551 950.5 729 1102.5 729 c 0xc780
 1277.5 729 1404 559 1404 338 c 0
 1404 129 1250.5 -44 1105.5 -44 c 0
 948.5 -44 804 107 804 342 c 0
963 342 m 0
 963 197 1013.5 20 1105.5 20 c 0
 1209.5 20 1248 195 1248 345 c 0
 1248 493 1196.5 674 1102.5 674 c 0
 997.5 674 963 483 963 342 c 0
EndSplineSet
Validated: 524293
Colour: ffffff
EndChar

StartChar: period
Encoding: 46 46 154
Width: 483
VWidth: 0
Flags: W
HStem: -39.5 269<161.918 332.726>
VStem: 134.5 225.5<-13.9318 205.43>
LayerCount: 2
Fore
SplineSet
134.5 100 m 0
 134.5 178.5 180 229.5 246 229.5 c 0
 312.5 229.5 360 177.5 360 98.5 c 0
 360 16 315.5 -39.5 246.5 -39.5 c 0
 177.5 -39.5 134.5 19 134.5 100 c 0
EndSplineSet
Validated: 524289
Colour: ffffff
EndChar

StartChar: periodcentered
Encoding: 183 183 155
Width: 497
VWidth: 0
Flags: W
HStem: 482.5 268<164.547 336.726>
VStem: 137.5 226.5<508.068 726.791>
LayerCount: 2
Fore
SplineSet
137.5 621 m 0
 137.5 699.5 184 750.5 250 750.5 c 0
 316.5 750.5 364 699.5 364 620.5 c 0
 364 538 319.5 482.5 250.5 482.5 c 0
 181.5 482.5 137.5 540 137.5 621 c 0
EndSplineSet
Validated: 524289
Colour: ffffff
EndChar

StartChar: perthousand
Encoding: 8240 8240 156
Width: 2217
VWidth: 0
Flags: W
HStem: -44 64<1045.95 1172.56 1751.02 1879.33> 674 55<1044.69 1159.78 1750.21 1863.56> 721 65<306.766 433.344> 1419 57<591 971.189> 1441 55<304.6 411.664>
VStem: 68.5 158<898.384 1301.06> 510.5 158<916.302 1354.14> 804 159<139.349 534.06> 1248 156<149.626 544.799> 1509 160<137.849 532.56> 1954 155<148.126 543.299>
DStem2: 666.5 725.5 811 729.5 0.522747 0.852488<-463.272 805.804>
LayerCount: 2
Fore
SplineSet
68.5 1109 m 0xb7e0
 68.5 1318 215 1496 367 1496 c 0
 389 1496 405 1495 412 1492 c 1
 412.5 1422 l 17
 394.5 1435 386 1441 363 1441 c 0xafe0
 261.5 1441 226.5 1250 226.5 1109 c 0
 226.5 964 274 786 366 786 c 0
 470 786 510.5 961 510.5 1109 c 0
 510.5 1285 483 1403.5 453.5 1476 c 9
 1103.5 1494 l 25
 1115.5 1409 l 25
 591 1419 l 17
 640 1361 668.5 1171 668.5 1109 c 0
 668.5 896 511 721 366 721 c 0
 209 721 68.5 872 68.5 1109 c 0xb7e0
202 -32 m 1
 666.5 725.5 l 1
 1103.5 1494 l 1
 1265 1489.5 l 1
 1264 1471 l 1
 811 729.5 l 1
 382 -49 l 1
 202 -32 l 1
804 342 m 0
 804 551 950.5 729 1102.5 729 c 0xc7e0
 1277.5 729 1404 559 1404 338 c 0
 1404 129 1250.5 -44 1105.5 -44 c 0
 948.5 -44 804 107 804 342 c 0
963 342 m 0
 963 197 1013.5 20 1105.5 20 c 0
 1209.5 20 1248 195 1248 345 c 0
 1248 493 1196.5 674 1102.5 674 c 0
 997.5 674 963 483 963 342 c 0
1509 340.5 m 0
 1509 549.5 1656 727.5 1808 727.5 c 0
 1983 727.5 2109 557.5 2109 336.5 c 0
 2109 127.5 1955.5 -45.5 1810.5 -45.5 c 0
 1653.5 -45.5 1509 105.5 1509 340.5 c 0
1669 340.5 m 0
 1669 195.5 1718.5 18.5 1810.5 18.5 c 0
 1914.5 18.5 1954 193.5 1954 343.5 c 0
 1954 491.5 1902 672.5 1808 672.5 c 0
 1703 672.5 1669 481.5 1669 340.5 c 0
EndSplineSet
Validated: 524293
Colour: ffffff
EndChar

StartChar: plus
Encoding: 43 43 157
Width: 839
VWidth: 0
Flags: W
HStem: 515 105<122 379.5 490 747>
VStem: 379.5 110.5<229 515 620 900>
LayerCount: 2
Fore
SplineSet
107 515 m 1
 122 620 l 1
 379.5 620 l 1
 379.5 915 l 1
 488 900 l 1
 490 620 l 1
 761.5 620 l 1
 747 515 l 1
 490 515 l 1
 492 214 l 1
 379.5 229 l 1
 379.5 515 l 1
 107 515 l 1
EndSplineSet
Validated: 524289
Colour: ffffff
EndChar

StartChar: product
Encoding: 8719 8719 158
Width: 1784
VWidth: 0
Flags: W
HStem: 0 78<119.5 156.359 688.981 725.5 1137 1173.5 1699.98 1739> 1431.5 103.5<510.5 1341> 1464 71<110.5 180.474 1653.28 1731>
VStem: 325.5 185<119 1423> 1341 184<119 1426>
LayerCount: 2
Fore
SplineSet
102.5 1464 m 1xb8
 110.5 1535 l 1
 1742 1535 l 1
 1731 1464 l 1xb8
 1525 1426 l 1
 1525 111 l 1
 1750 78 l 1
 1739 0 l 1
 1124 0 l 1
 1137 71 l 1
 1341 119 l 1
 1341 1432 l 1
 510.5 1431.5 l 1xd8
 510.5 111 l 1
 740 78 l 1
 725.5 0 l 1
 111.5 0 l 1
 119.5 71 l 1
 325.5 119 l 1
 325.5 1423 l 1
 102.5 1464 l 1xb8
EndSplineSet
Validated: 524289
Colour: ffffff
EndChar

StartChar: q
Encoding: 113 113 159
Width: 1189
VWidth: 0
Flags: W
HStem: -452.5 73<650 727.497 1116.72 1187.5> -26.5 122.5<432.063 694.958> 998.5 98<449.62 733.078>
VStem: 108.5 171.5<289.855 726.083> 836.5 164.5<-345 907.138>
LayerCount: 2
Fore
SplineSet
108.5 501.5 m 0
 108.5 836.5 374 1096.5 632.5 1096.5 c 0
 731 1096.5 820 1062.5 856.5 1043 c 1
 971.5 1083.5 l 1
 1001 1082.5 l 1
 1001 -345 l 1
 1199 -377 l 1
 1187.5 -452.5 l 1
 640.5 -452.5 l 1
 650 -379.5 l 1
 836.5 -345 l 1
 836.5 853 l 1
 793 920 703.5 998.5 572.5 998.5 c 0
 412 998.5 280 829 280 577.5 c 0
 280 250.5 397.5 96 573.5 96 c 0
 629 96 737 116.5 798.5 157 c 1
 803 88 l 1
 725.5 14.5 599.5 -26.5 500 -26.5 c 0
 282.5 -26.5 108.5 132 108.5 501.5 c 0
EndSplineSet
Validated: 524289
Colour: ffffff
EndChar

StartChar: question
Encoding: 63 63 160
Width: 764
VWidth: 0
Flags: W
HStem: -43 270.5<264.994 432.677> 1415.5 172.5<183.418 452.92>
VStem: 202.5 128.5<524.084 723.955> 236 225<-15.8614 200.378> 584 116<1052.96 1302.71>
LayerCount: 2
Fore
SplineSet
49.5 1430 m 0xe8
 49.5 1502 140.5 1588 293 1588 c 0
 498.5 1588 700 1368.5 700 1101 c 0
 700 814.5 331 826 331 626.5 c 0
 331 577.5 349.5 518 374 457.5 c 1
 302.5 437 l 1
 258.5 488 202.5 597.5 202.5 697 c 0
 202.5 969.5 584 944 584 1163 c 0
 584 1292 477 1415.5 358.5 1415.5 c 0
 264.5 1415.5 175.5 1381 122.5 1324 c 1
 85 1341 49.5 1381 49.5 1430 c 0xe8
236 98 m 0xd8
 236 173 286 227.5 347.5 227.5 c 0
 411 227.5 461 171.5 461 96.5 c 0
 461 17.5 418.5 -43 347.5 -43 c 0
 279 -43 236 21 236 98 c 0xd8
EndSplineSet
Validated: 524289
Colour: ffffff
EndChar

StartChar: quotedbl
Encoding: 34 34 161
Width: 540
VWidth: 0
Flags: W
HStem: 1099.5 507.5
VStem: 172 89.5<1109 1259.4> 402 91<1109 1259.4>
LayerCount: 2
Fore
SplineSet
126.5 1607 m 1
 306 1592.5 l 1
 261.5 1109 l 1
 172 1099.5 l 1
 126.5 1607 l 1
356.5 1607 m 1
 537.5 1592.5 l 1
 493 1109 l 1
 402 1099.5 l 1
 356.5 1607 l 1
EndSplineSet
Validated: 524289
Colour: ffffff
EndChar

StartChar: quotereversed
Encoding: 8219 8219 162
Width: 485
VWidth: 0
Flags: W
HStem: 1409 178.5<251.016 320.117>
VStem: 62.5 145.5<1163.52 1366.41>
LayerCount: 2
Fore
SplineSet
62.5 1332.5 m 0
 62.5 1511 169.5 1587.5 259.5 1587.5 c 0
 345.5 1587.5 419 1508.5 381.5 1409 c 1
 284 1423 208 1350.5 208 1258 c 0
 208 1168.5 261.5 1078.5 430.5 1022.5 c 1
 407.5 953.5 l 1
 116 1037.5 62.5 1217 62.5 1332.5 c 0
EndSplineSet
Validated: 524321
Colour: ffffff
EndChar

StartChar: quotesingle
Encoding: 39 39 163
Width: 412
VWidth: 0
Flags: W
HStem: 1099.5 507.5
VStem: 183 89.5<1109 1259.4>
LayerCount: 2
Fore
SplineSet
137.5 1607 m 1
 317.5 1592.5 l 1
 272.5 1109 l 1
 183 1099.5 l 1
 137.5 1607 l 1
EndSplineSet
Validated: 524289
Colour: ffffff
EndChar

StartChar: r
Encoding: 114 114 164
Width: 911
VWidth: 0
Flags: W
HStem: -0.5 64.5<103.5 169.48 647.846 729> 932.5 171<624.987 818.061> 982 64<108 156.337> 1061.5 20G<247.937 447.81>
VStem: 294.5 160.5<108.5 744.235>
LayerCount: 2
Back
SplineSet
466.592 414.64 m 1
 442.851 434.99 423.126 464.165 401.42 464.165 c 1
 382.427 464.165 459.255 468.794 438.905 445.052 c 1
 418.555 421.311 405.328 837.912 399.223 795.855 c 1
 302.723 576.777 l 1
 447.172 573.428 l 1
 584.567 532 l 1
 250.223 526.5 l 1
 252.345 412.288 l 1
 350.955 436.708 l 1
 367.955 540.708 428.455 992.717 506.955 992.717 c 1
 540.955 992.717 476.24 1002.23 476.24 967.225 c 1
 476.24 946.725 475.38 981.03 455.38 967.53 c 1
 437.38 1001.03 587.907 1039.93 561.907 1039.93 c 1
 481.907 1039.93 462.618 891.688 451.118 794.688 c 1
 440.942 425.737 l 1
 594.152 413.737 l 1
 609.754 467.326 626.282 486.035 652.737 514.864 c 1
 679.192 543.693 706.326 558.107 734.138 558.107 c 1
 756.522 558.107 774.498 551.154 788.065 537.249 c 1
 801.632 523.343 808.415 506.893 808.415 487.9 c 1
 808.415 460.767 498.474 436.347 466.592 414.64 c 1
EndSplineSet
Fore
SplineSet
94 -0.5 m 1xc8
 103.5 64 l 1
 294.5 105.5 l 1
 294.5 934 l 1
 97.5 982 l 1
 108 1046 l 1
 428.5 1081.5 l 1xb8
 448.293 1061 l 1
 431 759 l 1
 447.5 759 l 1
 507 972.5 624.5 1103.5 744 1103.5 c 0
 830.255 1103.5 881.227 1048.97 881.227 985.534 c 0
 881.227 945.323 853.109 901.373 804.5 868 c 1
 762.5 911 721 932.5 672.5 932.5 c 0
 571.5 932.5 482.5 772 455 572 c 1
 455 108.5 l 1
 739.5 75.5 l 1
 729 -0.5 l 1
 94 -0.5 l 1xc8
EndSplineSet
Validated: 524289
Colour: ffffff
EndChar

StartChar: radical
Encoding: 8730 8730 165
Width: 1234
VWidth: 0
Flags: W
HStem: 565 72.5<30.5 104.516>
DStem2: 557.5 68 586 -143 0.356151 0.934429<0 1635.22>
LayerCount: 2
Fore
SplineSet
18.5 565 m 1
 30.5 637.5 l 1
 342.5 657.5 l 1
 557.5 68 l 1
 1132 1599 l 1
 1253 1607 l 1
 586 -143 l 1
 471 -163.5 l 1
 198.5 535 l 1
 18.5 565 l 1
EndSplineSet
Validated: 524289
Colour: ffffff
EndChar

StartChar: registered
Encoding: 174 174 166
Width: 630
VWidth: 0
Flags: W
HStem: 1033 40.5<217.16 412.537> 1177 22<174 219> 1463.5 28<176.5 219 273.508 337.643> 1575 39<218.531 407.963>
VStem: 38 47.5<1207.62 1446.03> 219 54.5<1338.5 1453.5> 359 61<1355.98 1455.44> 549.5 46.5<1206.6 1433.19>
LayerCount: 2
Fore
SplineSet
38 1318.5 m 0
 38 1496.5 145.5 1614 312 1614 c 0
 482 1614 596 1495 596 1320 c 0
 596 1146 481 1033 307 1033 c 0
 145.5 1033 38 1147.5 38 1318.5 c 0
85.5 1327.5 m 0
 85.5 1176 176 1073.5 310.5 1073.5 c 0
 452 1073.5 549.5 1169.5 549.5 1314.5 c 0
 549.5 1472 451 1575 312 1575 c 0
 175 1575 85.5 1476.5 85.5 1327.5 c 0
172.5 1177 m 1
 174 1199 l 1
 219 1209.5 l 1
 219 1453.5 l 1
 174 1461.5 l 1
 176.5 1483 l 1
 217.5 1487 257 1491.5 286 1491.5 c 0
 381.5 1491.5 420 1464 420 1413.5 c 0
 420 1383 398 1353 352 1333.5 c 1
 401 1266 l 1
 423.5 1233 445 1211.5 478 1200.5 c 1
 478.5 1188 l 1
 473 1186 466 1174.5 460.5 1174.5 c 1
 435.5 1172.5 414.5 1187.5 398.5 1206.5 c 1
 379.5 1206.5 343 1255 332 1274 c 1
 293 1308.5 l 1
 273.5 1259.5 l 1
 294.5 1205 l 1
 315 1188 l 1
 314 1177 l 1
 172.5 1177 l 1
273.5 1338.5 m 1
 316 1338.5 l 2
 345 1338.5 359 1367 359 1403.5 c 0
 359 1441.5 331 1463.5 293 1463.5 c 0
 285 1463.5 273.5 1461.5 273.5 1461.5 c 1
 273.5 1338.5 l 1
EndSplineSet
Validated: 524321
Colour: ffffff
EndChar

StartChar: ring
Encoding: 730 730 167
Width: 639
VWidth: 0
Flags: W
HStem: 1680.5 55.5<263.448 404.655> 2042.5 54.5<253.061 388.079>
VStem: 128 83.5<1774.25 2011.26> 443.5 84.5<1766.68 2003.63>
LayerCount: 2
Fore
SplineSet
128 1885.5 m 0
 128 1999 219 2097 334.5 2097 c 0
 453 2097 528 2012 528 1896.5 c 0
 528 1785 445 1680.5 319 1680.5 c 0
 205.5 1680.5 128 1759.5 128 1885.5 c 0
211.5 1899.5 m 0
 211.5 1822.5 250.5 1736 332.5 1736 c 0
 402 1736 443.5 1788 443.5 1880 c 0
 443.5 1959.5 400 2042.5 320.5 2042.5 c 0
 244.5 2042.5 211.5 1971 211.5 1899.5 c 0
EndSplineSet
Colour: ffffff
EndChar

StartChar: s
Encoding: 115 115 168
Width: 854
VWidth: 0
Flags: W
HStem: -43 92<333.564 601.371> 1017.5 79<313.593 527.134>
VStem: 87.5 130.5<186.973 250.747> 133 131.5<754.21 942.295> 653 145<116.108 293.691>
LayerCount: 2
Fore
SplineSet
87.5 190 m 0xe8
 87.5 266.5 145 316.5 218 325.5 c 1xe8
 260 130 337.5 49 468.5 49 c 0
 574 49 653 111 653 197.5 c 0
 653 416 133 464.5 133 786 c 0
 133 930 240 1096.5 474.5 1096.5 c 0
 635.5 1096.5 759 1005 759 880 c 0
 759 785.5 702.5 742.5 629 736.5 c 1
 619 784.5 l 2
 576 974 501 1017.5 427.5 1017.5 c 0
 325 1017.5 264.5 955.5 264.5 864 c 0xd8
 264.5 616.5 798 569 798 262 c 0
 798 79 620 -43 429.5 -43 c 0
 232.5 -43 87.5 56 87.5 190 c 0xe8
EndSplineSet
Validated: 524289
Colour: ffffff
EndChar

StartChar: section
Encoding: 167 167 169
Width: 1080
VWidth: 0
Flags: W
HStem: -469.5 100.5<370.49 713.853> 1072 21G<814.5 906.306> 1480 87<402.564 693.747>
VStem: 119 93.5<-55.9601 35.5> 139 166.5<1092.88 1341.11> 814.5 90<1083.5 1201.94> 846 179.5<-210.809 26.0997>
LayerCount: 2
Fore
SplineSet
93 -293.5 m 1xf2
 119 47.5 l 1
 212.5 35.5 l 1
 252 -216.5 l 1
 302 -305.5 423.5 -369 550.5 -369 c 0
 692 -369 846 -283.5 846 -100.5 c 0
 846 237 122.5 276 145 711 c 1
 573 455.5 l 2
 779 334.5 1025.5 223.5 1025.5 -31 c 0
 1025.5 -289 798 -469.5 504.5 -469.5 c 0
 326.5 -469.5 172 -391 93 -293.5 c 1xf2
139 1157 m 0xec
 139 1419.5 362.5 1567 583 1567 c 0
 716 1567 847 1524 937.5 1437.5 c 1
 937.5 1432.5 904.5 1072 904.5 1072 c 1
 814.5 1083.5 l 1
 782 1352 l 1
 749 1415.5 647 1480 547.5 1480 c 0
 416.5 1480 305.5 1396 305.5 1234.5 c 0
 305.5 860.5 1048.5 842.5 1024 392.5 c 1
 558.5 673 l 2
 363.5 791 139 907 139 1157 c 0xec
EndSplineSet
Validated: 524321
Colour: ffffff
EndChar

StartChar: seven
Encoding: 55 55 170
Width: 1134
VWidth: 0
Flags: W
HStem: 1291.5 167<253.5 932.5>
VStem: 103 65.5<1019.98 1058.31>
LayerCount: 2
Fore
SplineSet
103 1022.5 m 1
 136.5 1458.5 l 1
 1078.5 1458.5 l 1
 1078.5 1394 l 1
 543.5 -41 l 1
 347.5 -19.5 l 1
 932.5 1291.5 l 1
 253.5 1291.5 l 1
 168.5 1011 l 1
 103 1022.5 l 1
EndSplineSet
Validated: 524289
Colour: ffffff
EndChar

StartChar: seven.osf
Encoding: 65542 -1 171
Width: 893
VWidth: 0
Flags: W
HStem: 994 157.5<176.5 732.5>
VStem: 34.5 64<746.2 783.827> 167.596 184.904<-343.218 -69.8718>
LayerCount: 2
Fore
SplineSet
34.5 749 m 1
 74.5 1151.5 l 1
 868 1151.5 l 1
 876 1059.5 l 1
 603.5 569 394.5 194 352.5 -368.5 c 1
 342 -369 324.5 -375 315 -375 c 0
 210.745 -375 167.596 -314.71 167.596 -228.022 c 0
 167.596 38.5 556.5 697.5 732.5 994 c 1
 176.5 994 l 1
 98.5 736.5 l 1
 34.5 749 l 1
EndSplineSet
Validated: 524289
Colour: ffffff
EndChar

StartChar: six
Encoding: 54 54 172
Width: 1160
VWidth: 0
Flags: W
HStem: -26.5 81<507.871 763.641> 763 111.5<488.18 742.958>
VStem: 148.5 200<255.104 727.235> 878 201<245.715 608.339>
LayerCount: 2
Fore
SplineSet
148.5 520 m 0
 148.5 934 460 1362 856.5 1497.5 c 1
 892 1435.5 l 1
 545 1281.5 410 996.5 361 751.5 c 1
 372.5 751.5 l 1
 436.5 811 537 874.5 687 874.5 c 0
 927.5 874.5 1079 694 1079 446.5 c 0
 1079 173 865.5 -26.5 597.5 -26.5 c 0
 273 -26.5 148.5 231.5 148.5 520 c 0
348.5 501.5 m 0
 348.5 245 464.5 54.5 616 54.5 c 0
 811.5 54.5 878 193.5 878 404 c 0
 878 595 782.5 763 596.5 763 c 0
 484 763 388.5 710.5 358 666 c 1
 352 623.5 348.5 544.5 348.5 501.5 c 0
EndSplineSet
Validated: 524289
Colour: ffffff
EndChar

StartChar: six.osf
Encoding: 65543 -1 173
Width: 996
VWidth: 0
Flags: W
HStem: -26.5 86<430.802 658.399> 763.5 113.631<430.132 653.11>
VStem: 99.5 195<241.389 678.198> 768 188.442<254.972 629.656>
LayerCount: 2
Fore
SplineSet
99.5 520 m 0
 99.5 911.5 398 1367.5 803 1502.5 c 1
 837.5 1439.5 l 1
 507.5 1297.5 360.5 1002 311.5 757 c 1
 322.5 757 l 1
 395.154 827.788 502.234 877.131 609.61 877.131 c 0
 831.805 877.131 956.442 686.806 956.442 459.091 c 0
 956.442 202.088 755.119 -26.5 515.5 -26.5 c 0
 200.5 -26.5 99.5 231.5 99.5 520 c 0
294.5 501.5 m 0
 294.5 245 393 59.5 541.5 59.5 c 0
 693.5 59.5 768 218 768 404 c 0
 768 595 701 763.5 515 763.5 c 0
 423.5 763.5 344.5 714 307 670.5 c 1
 301 628 294.5 544.5 294.5 501.5 c 0
EndSplineSet
Validated: 524289
Colour: ffffff
EndChar

StartChar: slash
Encoding: 47 47 174
Width: 753
VWidth: 0
Flags: W
HStem: 1515 20G<614 740.676>
DStem2: 43.5 -445 172 -438 0.27957 0.960125<42.6456 2053.34>
LayerCount: 2
Fore
SplineSet
43.5 -445 m 1
 614 1527.5 l 1
 746.5 1535 l 1
 172 -438 l 1
 43.5 -445 l 1
EndSplineSet
Validated: 524289
Colour: ffffff
EndChar

StartChar: softhyphen
Encoding: 173 173 175
Width: 707
VWidth: 0
Flags: W
HStem: 518.5 184.5
VStem: 101 513.5
DStem2: 110.5 628 101 518.5 0.989108 0.147189<0 482.826>
LayerCount: 2
Fore
SplineSet
101 518.5 m 1
 110.5 628 l 1
 614.5 703 l 1
 604 592 l 1
 101 518.5 l 1
EndSplineSet
Validated: 524289
Colour: ffffff
EndChar

StartChar: sterling
Encoding: 163 163 177
Width: 1348
VWidth: 0
Flags: W
HStem: 0 96.5<482 1098> 0 71<109.5 171.623> 1100.5 21G<994 1078.93> 1444.5 98.5<661.161 954.541>
VStem: 371.5 190<210.619 692.5 799 1236.73> 994 83<1112.5 1222.35>
DStem2: 161.5 778.5 147.5 680.5 0.998564 0.0535742<0 201.097 400.524 652.735>
LayerCount: 2
Fore
SplineSet
101.5 0 m 1x7c
 109.5 71 l 1x7c
 317.5 119 l 1
 353.5 245.5 362 386 366 569 c 1
 367.5 692.5 l 1
 147.5 680.5 l 1
 161.5 778.5 l 1
 371.5 791 l 1
 375.5 970 l 1
 385.5 1366 548.5 1543 828.5 1543 c 0
 928 1543 1017.5 1535 1115 1494 c 1
 1077 1100.5 l 1
 994 1112.5 l 1
 955.5 1407.5 l 1
 929 1421.5 854.5 1444.5 810 1444.5 c 0
 612.5 1444.5 565.5 1344.5 561.5 866.5 c 1
 561.5 799 l 1
 831.5 815.5 l 1
 818.5 716.5 l 1
 559 700.5 l 1
 558.5 636 l 1
 556.5 410 533 215.5 482 96.5 c 1xbc
 1098 94.5 l 1
 1234.5 414.5 l 1
 1312.5 397.5 l 1
 1270.5 0 l 1
 101.5 0 l 1x7c
EndSplineSet
Validated: 524289
Colour: ffffff
EndChar

StartChar: summation
Encoding: 8721 8721 178
Width: 1363
VWidth: 0
Flags: W
HStem: 0 133.5<256 1146> 1447 88<273 1124>
VStem: 1161 81.5<1152.5 1266.61>
DStem2: 273 1447 49 1472.5 0.674307 -0.738451<0 773.315> 58 71 256 133.5 0.671446 0.741054<179.262 933.806>
LayerCount: 2
Fore
SplineSet
49 1472.5 m 1
 63 1535 l 1
 1280.5 1535 l 1
 1242.5 1140.5 l 1
 1161 1152.5 l 1
 1124 1447 l 1
 273 1447 l 1
 848 833.5 l 1
 842 785.5 l 1
 256 133.5 l 1
 1146 133.5 l 1
 1251.5 440.5 l 1
 1328 427.5 l 1
 1291 0 l 1
 58 0 l 1
 58 71 l 1
 685 763 l 1
 685 776 l 1
 49 1472.5 l 1
EndSplineSet
Validated: 524289
Colour: ffffff
EndChar

StartChar: t
Encoding: 116 116 179
Width: 790
VWidth: 0
Flags: W
HStem: -29 149.5<448.241 636.11> 948 88<404 742.5> 951 50<81.5 125.759>
VStem: 233.5 165<170.499 948> 345.5 58.5<1255.62 1317.5>
LayerCount: 2
Fore
SplineSet
81.5 951 m 1xb0
 81.5 1001 l 1xb0
 205 1056 283.5 1164.5 345.5 1317.5 c 1
 404 1317.5 l 1
 404 1036 l 1
 752.5 1036 l 1
 742.5 948 l 1
 402 948 l 1xc8
 398.5 391.5 l 1
 398.5 383 l 2
 398.5 176 452.5 120.5 569 120.5 c 0
 660.5 120.5 760 201 760 201 c 1
 783 147 l 1
 709.5 41.5 593 -29 469 -29 c 0
 317.5 -29 233.5 65.5 233.5 310 c 2
 233.5 348.5 l 1
 237.5 951 l 1
 81.5 951 l 1xb0
EndSplineSet
Validated: 524289
Colour: ffffff
EndChar

StartChar: tbar
Encoding: 359 359 180
Width: 807
VWidth: 0
Flags: W
HStem: -29 149.5<455.741 643.61> 600 115<100 742> 948 88<411.5 750> 951 50<89 133.259>
VStem: 241 165<170.499 948> 353 58.5<1255.62 1317.5>
LayerCount: 2
Fore
SplineSet
89 600 m 1xc0
 100 715 l 1
 750 715 l 1
 742 600 l 1
 89 600 l 1xc0
EndSplineSet
Refer: 179 116 N 1 0 0 1 7.5 0 2
Colour: ffffff
EndChar

StartChar: thorn
Encoding: 254 254 182
Width: 1186
VWidth: 0
Flags: W
HStem: -456.5 73<55 130.718 514.717 582.5> -20.5 102<465.916 776.652> 977.5 130.5<575.039 800.278> 1475.5 66.5<64 105.637> 1547 20G<128.4 406>
VStem: 242.5 160<-348 879.624 914.505 1424> 938 178<326.967 797.916>
LayerCount: 2
Fore
SplineSet
48 -456.5 m 1
 55 -383.5 l 1
 242.5 -348 l 1
 239.5 1424 l 5
 54 1475.5 l 1
 64 1542 l 1
 386 1567 l 1
 406 1547 l 1
 406 1047 l 1
 391.5 912.5 l 1
 402.5 912.5 l 1
 470.5 996.5 582 1108 744 1108 c 0
 955 1108 1116 925.5 1116 577.5 c 0
 1116 230 895.5 -20.5 595.5 -20.5 c 0
 557 -20.5 506 -16 465 -5 c 1
 460.5 101.5 l 1
 507.5 86.5 553 81.5 618.5 81.5 c 0
 833.5 81.5 938 267 938 507.5 c 0
 938 796 852.5 977.5 663 977.5 c 0
 548 977.5 464.5 901 402.5 836.5 c 1
 402.5 -349 l 1
 594.5 -381 l 1
 582.5 -456.5 l 1
 48 -456.5 l 1
EndSplineSet
Colour: ffffff
EndChar

StartChar: three
Encoding: 51 51 183
Width: 1184
VWidth: 0
Flags: W
HStem: -40.5 85.5<350.084 669.339> 685 61.5<400.5 453.758> 1403 90.5<386.512 661.766>
VStem: 164 83<351.68 421.5> 192 80<1041 1104.23> 757 206<1020.4 1303.04> 815 205<241.445 511.864>
LayerCount: 2
Fore
SplineSet
108.5 111 m 1xe2
 164 435.5 l 1
 247 421.5 l 1
 258.5 170 l 1
 293 108.5 391.5 45 500 45 c 0
 687.5 45 815 166.5 815 360.5 c 0xf2
 815 549.5 637.5 679.5 400.5 685 c 1
 393 746.5 l 1
 503.5 796 757 915 757 1146 c 0
 757 1268 685 1403 532.5 1403 c 0
 434.5 1403 368.5 1355 324 1304.5 c 1
 272 1028 l 1
 192 1041 l 1
 183.5 1346.5 l 1
 244 1404.5 396.5 1493.5 596 1493.5 c 0
 802.5 1493.5 963 1374.5 963 1182.5 c 0xec
 963 982.5 780.5 848 631.5 793 c 1
 631.5 781 l 1
 851.5 750.5 1020 622 1020 425 c 0
 1020 156 761 -40.5 476.5 -40.5 c 0
 304 -40.5 154 32 108.5 111 c 1xe2
EndSplineSet
Validated: 524289
Colour: ffffff
EndChar

StartChar: three.osf
Encoding: 65544 -1 184
Width: 885
VWidth: 0
Flags: W
HStem: -363.5 92.5<225.107 512.612> 1079.5 128.5<285.493 510.663>
VStem: 59.5 82<869.192 935.641> 582 189<725.24 1004.54> 637.5 184.671<-79.7747 195.796>
LayerCount: 2
Fore
SplineSet
-21.5 -167 m 0xe8
 -21.5 -107 38 -36.5 119 -29.5 c 1
 141 -147.5 210.5 -271 349.5 -271 c 0
 554.5 -271 637.5 -122.5 637.5 29 c 0xe8
 637.5 233 480.5 368 246 376.5 c 1
 239 438.5 l 1
 385.5 495.5 582 618 582 834 c 0
 582 957 533 1079.5 392 1079.5 c 0
 261 1079.5 186.5 971.5 141.5 846.5 c 1
 59.5 874 l 1
 95.5 1019.5 241.5 1208 461.5 1208 c 0
 642.5 1208 771 1071.5 771 890.5 c 0xf0
 771 695 592 538 468.5 486 c 1
 468.5 476 l 1
 648.329 459.721 822.171 296.304 822.171 92.228 c 0
 822.171 -141.919 592.016 -363.5 317 -363.5 c 0
 131 -363.5 -21.5 -277 -21.5 -167 c 0xe8
EndSplineSet
Validated: 524289
Colour: ffffff
EndChar

StartChar: threequarters
Encoding: 190 190 185
Width: 1237
VWidth: 0
Flags: W
HStem: 176.5 60<770 936 1019 1137> 601 43.5<190.482 318.665> 889.5 32<202.5 232.528> 1073.5 21G<117 162.75> 1148.5 65.5<184.663 323.846>
VStem: 117 36.5<1082 1105.5> 338 88<986.545 1140.36> 361.5 86.5<680.208 849.135> 938.5 80.5<7 175 236.5 448>
DStem2: 169 -36.5 271.5 -26.5 0.571183 0.820823<66.7544 1488.14> 686.5 213 770 236.5 0.62997 0.776619<70.8531 339.683>
LayerCount: 2
Fore
SplineSet
88 670 m 0xfd80
 88 694.5 108.5 716.5 149.5 720.5 c 1
 153 699 197 644.5 243 644.5 c 0
 341.5 644.5 361.5 710 361.5 763 c 0xfd80
 361.5 820 304 889.5 211.5 889.5 c 2
 202.5 889.5 l 1
 197.5 921.5 l 1
 216.5 927.5 338 974.5 338 1064.5 c 0
 338 1107.5 317 1148.5 253 1148.5 c 0
 200 1148.5 172 1118 153.5 1073.5 c 1
 117 1087.5 l 1
 127.5 1140.5 194 1214 282.5 1214 c 0
 357.5 1214 426 1162.5 426 1090.5 c 0xfe80
 426 1010 368 961.5 308.5 939.5 c 1
 308.5 935 l 1
 397 923.5 448 856 448 792 c 0
 448 685 347 601 217 601 c 0
 131.5 601 88 637 88 670 c 0xfd80
169 -36.5 m 1
 1019 1185 l 1
 1118.5 1194.5 l 1
 271.5 -26.5 l 1
 169 -36.5 l 1
686.5 213 m 1
 991.5 589 l 1
 1023.5 580.5 l 1
 1020 523 1019 426.5 1019 336.5 c 2
 1019 236.5 l 1
 1145 236.5 l 1
 1137 175 l 1
 1019 175 l 1
 1019 7 l 1
 938.5 -6 l 1
 938.5 176.5 l 1
 698 176.5 l 1
 686.5 213 l 1
770 236.5 m 1
 936 236.5 l 1
 936 448 l 1
 770 236.5 l 1
EndSplineSet
Validated: 524289
Colour: ffffff
EndChar

StartChar: threesuperior
Encoding: 179 179 186
Width: 557
VWidth: 0
Flags: W
HStem: 1156 38.5<126.15 212.16> 1361 35<104.745 153.955> 1565 41<130.428 202.797>
VStem: 59.5 49.5<1205.18 1254.22 1492.25 1549.87> 102.5 104.5<1372.28 1409.42> 218 60.5<1436.09 1557.41> 233.5 64.5<1205.22 1344.95>
LayerCount: 2
Fore
SplineSet
59.5 1227 m 0xf2
 59.5 1256 95 1267.5 109 1269.5 c 1
 115 1231.5 121.5 1194.5 166 1194.5 c 0
 210.5 1194.5 233.5 1230.5 233.5 1273.5 c 0
 233.5 1316.5 200.5 1363.5 154.5 1363.5 c 0
 143 1363.5 123 1361 109 1361 c 1xf2
 107 1371.5 102.5 1382.5 102.5 1394 c 2
 102.5 1396 l 1
 114 1400 218 1416.5 218 1502 c 0
 218 1535 196 1565 162 1565 c 0
 140 1565 114.5 1542 114.5 1479.5 c 1
 81.5 1481.5 64 1491.5 64 1516 c 0
 64 1573 143.5 1606 184.5 1606 c 0
 239.5 1606 278.5 1563.5 278.5 1519 c 0
 278.5 1470 248 1422 207 1400 c 1
 207 1394 l 1xec
 264.5 1378 298 1330.5 298 1284.5 c 0
 298 1222 248 1156 173 1156 c 0
 83 1156 59.5 1198 59.5 1227 c 0xf2
EndSplineSet
Validated: 524289
Colour: ffffff
EndChar

StartChar: tilde
Encoding: 732 732 187
Width: 985
VWidth: 0
Flags: HW
HStem: 1691.5 198
VStem: 133 41<1699.63 1725.26> 659 51<1852.9 1887.5>
DStem2: 314 1875 271.5 1768 0.979593 -0.200992<-81.053 320.667>
LayerCount: 2
Fore
SplineSet
133 1704 m 1
 133 1704 178 1905 314 1875 c 2
 565 1823.5 l 2
 625.5 1808 659 1889.5 659 1889.5 c 1
 710 1887.5 l 1
 710 1887.5 658 1685.5 519.5 1716.5 c 2
 271.5 1768 l 2
 214.5 1783 174 1691.5 174 1691.5 c 1
 133 1704 l 1
EndSplineSet
Colour: ffffff
EndChar

StartChar: trademark
Encoding: 8482 8482 188
Width: 1034
VWidth: 0
Flags: W
HStem: 1223 31<111 166.5 248 305 410 466 515.5 571.5 802.5 855 930 985> 1516 109.5<33 68> 1591 34.5<86 166.5 248 330.5 433 490.5 911.5 967>
VStem: 33 35<1516 1574.92> 166.5 81.5<1267.5 1591> 342.5 36.5<1516 1591>
DStem2: 466 1267.5 515.5 1266 0.0772997 0.997008<2.33082 273.146> 612 1562 536.5 1536 0.345347 -0.938475<-1.67331 253.947> 696.5 1322.5 713.5 1240 0.369835 0.929097<0 262.217> 911.5 1583.5 836.5 1549 0.0581691 -0.998307<30.0789 312.178>
LayerCount: 2
Fore
SplineSet
29 1625.5 m 1xbc
 391 1625.5 l 1xbc
 379 1512 l 1
 342.5 1516 l 1xdc
 330.5 1591 l 1
 248 1591 l 1
 248 1266 l 1
 309 1255.5 l 1
 305 1223 l 1
 109 1223 l 1
 111 1254 l 1
 166.5 1267.5 l 1
 166.5 1591 l 1
 86 1591 l 1xbc
 68 1512 l 1
 33 1516 l 1xdc
 29 1625.5 l 1xbc
407 1223 m 1
 410 1254 l 1
 466 1267.5 l 1
 490.5 1583.5 l 1
 429 1595.5 l 1
 433 1625.5 l 1
 585.5 1625.5 l 1
 612 1562 l 1
 696.5 1322.5 l 1
 797.5 1575 l 1
 820 1625.5 l 1
 971 1625.5 l 1
 967 1595.5 l 1
 911.5 1583.5 l 1
 930 1266 l 1
 990 1255.5 l 1
 985 1223 l 1
 797.5 1223 l 1
 802.5 1254 l 1
 855 1267.5 l 1
 836.5 1549 l 1
 713.5 1240 l 1
 648 1233 l 1
 536.5 1536 l 1
 515.5 1266 l 1
 576.5 1255.5 l 1
 571.5 1223 l 1
 407 1223 l 1
EndSplineSet
Validated: 524289
Colour: ffffff
EndChar

StartChar: two
Encoding: 50 50 189
Width: 1184
VWidth: 0
Flags: W
HStem: 0 145.5<297 912.5> 1392 99<395.63 706.327>
VStem: 186.5 70<972.5 1045.49> 825.5 214.5<854.54 1253.68>
DStem2: 86 91.5 297 145.5 0.760533 0.649299<195.535 743.786>
LayerCount: 2
Fore
SplineSet
86 91.5 m 1
 380 342.5 l 2
 664 585.5 825.5 774 825.5 1038.5 c 0
 825.5 1219 758 1392 561 1392 c 0
 429.5 1392 343.5 1327 307.5 1259 c 1
 256.5 962 l 1
 186.5 972.5 l 1
 173.5 1303.5 l 1
 240.5 1394 430.5 1491 618.5 1491 c 0
 870 1491 1040 1350 1040 1061 c 0
 1040 733 731.5 489.5 394.5 222 c 2
 297 145.5 l 1
 912.5 145.5 l 1
 1030.5 445.5 l 1
 1098 435.5 l 1
 1040 0 l 1
 94 0 l 1
 86 91.5 l 1
EndSplineSet
Validated: 524289
Colour: ffffff
EndChar

StartChar: two.osf
Encoding: 65545 -1 190
Width: 991
VWidth: 0
Flags: W
HStem: 0 143<275.5 784> 1087.83 121.17<350.85 583.633>
VStem: 99.5 80.5<841.157 907.062> 662 201.5<678.389 1003.98>
DStem2: 66 91.5 275.5 143 0.77142 0.636327<194.383 711.459>
LayerCount: 2
Fore
SplineSet
66 91.5 m 1
 371.5 343.5 l 1
 561.5 500 662 644.5 662 837 c 0
 662 987 587.912 1087.83 463.018 1087.83 c 0
 337.23 1087.83 220.875 962.219 180 816.5 c 1
 99.5 846.5 l 1
 129.5 1003.5 301.519 1206.79 525.5 1209 c 0
 741 1211 863.5 1067 863.5 860 c 0
 863.5 605.5 623.5 415 378 223 c 1
 275.5 143 l 1
 784 143 l 1
 881 364.5 l 1
 949 353.5 l 1
 891.5 0 l 1
 74 0 l 1
 66 91.5 l 1
EndSplineSet
Validated: 524321
Colour: ffffff
EndChar

StartChar: twosuperior
Encoding: 178 178 191
Width: 345
VWidth: 0
Flags: W
HStem: 1247.5 53<119.5 275.5> 1565 41<128.631 196.107>
VStem: 64 53<1498.16 1561.18> 210.5 66.5<1416.64 1560.34>
LayerCount: 2
Fore
SplineSet
54.5 1286 m 1
 161.5 1392 l 1
 192 1421 210.5 1455 210.5 1491.5 c 0
 210.5 1532.5 193.5 1565 157 1565 c 0
 123 1565 117 1511.5 117 1475 c 1
 80.5 1479 64 1490 64 1520.5 c 0
 64 1563.5 135 1606 181 1606 c 0
 234 1606 277 1565 277 1508 c 0
 277 1438.5 242.5 1408.5 169 1343 c 1
 119.5 1300.5 l 1
 282.5 1300.5 l 1
 275.5 1247.5 l 1
 56 1247.5 l 1
 54.5 1286 l 1
EndSplineSet
Validated: 524289
Colour: ffffff
EndChar

StartChar: u
Encoding: 117 117 192
Width: 1250
VWidth: 0
Flags: W
HStem: -29 135.5<485.408 706.822> -1 73<1151.5 1208.5> 986.5 66<76.5 115.152 683.5 725.664> 1058 20G<142.824 403.048 788.966 1027.67>
VStem: 246 158<197.52 934> 870 158.5<188.135 930.5>
LayerCount: 2
Fore
SplineSet
66 986.5 m 1xbc
 76.5 1052.5 l 1
 384 1078 l 1
 404 1057 l 1
 404 391.5 l 2
 404 189 484.5 106.5 615 106.5 c 0xbc
 726.5 106.5 814 169 870 231 c 1
 870 930.5 l 1
 676 975 l 1
 683.5 1048.5 l 1
 1011 1078 l 1
 1028.5 1057 l 1
 1028.5 274.5 l 2
 1028.5 151.5 1057.5 104.5 1151.5 86 c 2
 1217.5 72 l 1
 1208.5 -1 l 1x7c
 1157.5 -15.5 1115 -25.5 1053 -25.5 c 0
 941 -25.5 884.5 53 884.5 147.5 c 2
 884.5 163 l 1
 870 163 l 1
 784.5 37 661.5 -29 527 -29 c 0
 356 -29 246 74.5 246 339.5 c 2
 246 934 l 1
 66 986.5 l 1xbc
EndSplineSet
Validated: 524289
Colour: ffffff
EndChar

StartChar: underscore
Encoding: 95 95 193
Width: 1072
VWidth: 0
Flags: W
HStem: -163.5 106<31.5 1041.5>
LayerCount: 2
Fore
SplineSet
17.5 -163.5 m 1
 31.5 -57.5 l 1
 1053 -57.5 l 1
 1041.5 -163.5 l 1
 17.5 -163.5 l 1
EndSplineSet
Validated: 524289
Colour: ffffff
EndChar

StartChar: uniF001
Encoding: 61441 61441 194
Width: 1445
VWidth: 0
Flags: W
HStem: 0 63.5<101.5 162.428 667.937 748.5 875.5 936.102 1356.15 1406> 960.5 86.5<454.5 756.5> 960.5 67<119.5 208.644> 988.5 64<883.5 925.833> 1059 20G<961.745 1221.57> 1333 268.5<1050.31 1221.32> 1505 104.5<551.802 752.349>
VStem: 288.5 166<112 960.5 1055 1280.01> 1023 226.5<1359.73 1576> 1061.5 161.5<107.5 937>
LayerCount: 2
Fore
SplineSet
86.5 0 m 1xcb
 101.5 63.5 l 1
 288.5 107.5 l 1
 288.5 960.5 l 1
 105 960.5 l 1
 119.5 1027.5 l 1xa9
 290.5 1055 l 1
 314.5 1447 537.5 1609.5 712.5 1609.5 c 0
 843 1609.5 928 1554.5 928 1470 c 0
 928 1415.5 884 1372 843 1356 c 1
 790.5 1441 720.5 1505 632.5 1505 c 0
 537 1505 457 1417.5 455.5 1210.5 c 2
 454.5 1047 l 1
 772 1047 l 1
 756.5 960.5 l 1
 454.5 960.5 l 1
 454.5 112 l 1
 757.5 75.5 l 1
 748.5 0 l 1
 86.5 0 l 1xcb
860 0 m 1
 875.5 68 l 1
 1061.5 107.5 l 1
 1061.5 937 l 1
 873.5 988.5 l 1
 883.5 1052.5 l 1
 1202.5 1079 l 1
 1223 1057.5 l 1
 1223 107.5 l 1x9940
 1420.5 70 l 1
 1406 0 l 1
 860 0 l 1
1023 1473 m 0x8d80
 1023 1551.5 1068.5 1601.5 1133.5 1601.5 c 0
 1200 1601.5 1249.5 1550.5 1249.5 1471.5 c 0
 1249.5 1389 1203 1333 1134 1333 c 0
 1065 1333 1023 1392 1023 1473 c 0x8d80
EndSplineSet
Validated: 524289
Colour: ffffff
EndChar

StartChar: uniF002
Encoding: 61442 61442 195
Width: 1424
VWidth: 0
Flags: W
HStem: 0 63.5<101.5 162.428 667.937 748.5 854 915.254 1335.65 1386> 960.5 86.5<454.5 756.5> 960.5 67<119.5 208.644> 1477 64<858 904.33> 1497 111<497.98 669.791> 1547 20G<932.654 1202.5>
VStem: 288.5 166<112 960.5 1055 1320.01> 1042 160.5<107.5 1426>
LayerCount: 2
Fore
SplineSet
840.5 0 m 1x97
 854 68 l 1
 1042 107.5 l 1
 1042 1426 l 1
 850.5 1477 l 1
 858 1541 l 1
 1181.5 1567 l 1
 1202.5 1547 l 1
 1202.5 107.5 l 1
 1400 70 l 1
 1386 0 l 1
 840.5 0 l 1x97
86.5 0 m 1
 101.5 63.5 l 1
 288.5 107.5 l 1
 288.5 960.5 l 1
 105 960.5 l 1
 119.5 1027.5 l 1xa3
 290.5 1055 l 1
 292.5 1447.5 498.5 1608 623 1608 c 0
 719 1608 789 1581.5 789 1505 c 0
 789 1456.5 758.5 1419 719.5 1401 c 1
 682.5 1453.5 615.5 1497 553.5 1497 c 0
 487 1497 450 1364 452.5 1190.5 c 2
 454.5 1047 l 1
 772 1047 l 1
 756.5 960.5 l 1
 454.5 960.5 l 1xcb
 454.5 112 l 1
 757.5 75.5 l 1
 748.5 0 l 1
 86.5 0 l 1
EndSplineSet
Validated: 524321
Colour: ffffff
EndChar

StartChar: v
Encoding: 118 118 196
Width: 1137
VWidth: 0
Flags: W
HStem: 994 68<45.5 76.8218 491.159 540 696 734.078>
DStem2: 360.5 950.5 187 949 0.334602 -0.942359<0 794.51> 618.5 199 646.5 -13 0.33884 0.940844<0 794.24>
LayerCount: 2
Fore
SplineSet
37.5 994 m 1
 45.5 1062 l 1
 546.5 1062 l 1
 540 996.5 l 1
 360.5 950.5 l 1
 618.5 199 l 1
 880 949 l 1
 682 994 l 1
 696 1062 l 1
 1138 1062 l 1
 1127 996.5 l 1
 993.5 950.5 l 1
 646.5 -13 l 1
 535.5 -32.5 l 1
 187 949 l 1
 37.5 994 l 1
EndSplineSet
Validated: 524289
Colour: ffffff
EndChar

StartChar: w
Encoding: 119 119 197
Width: 1526
VWidth: 0
Flags: W
HStem: 996.5 68.5<36 70.709 446.651 500 1100.5 1148.65 1487.22 1530>
DStem2: 333.5 958 170.5 956 0.283824 -0.958877<0 534.673> 527.5 250.5 569.5 -11.5 0.260786 0.965397<0 574.782> 870 1007.5 782.5 777 0.279977 -0.960007<196.784 606.18> 1080 238 1123 -11.5 0.271507 0.962436<0 744.788>
LayerCount: 2
Fore
SplineSet
27 996.5 m 1
 36 1065 l 1
 508.5 1065 l 1
 500 998.5 l 1
 333.5 958 l 1
 482.5 444.5 l 1
 527.5 250.5 l 1
 728.5 985 l 1
 870 1007.5 l 1
 1039.5 425.5 l 1
 1080 238 l 1
 1278 956 l 1
 1092 996.5 l 1
 1100.5 1065 l 1
 1540 1065 l 1
 1530 998.5 l 1
 1396.5 958 l 1
 1123 -11.5 l 1
 1018 -30.5 l 1
 782.5 777 l 1
 569.5 -11.5 l 1
 462.5 -30.5 l 1
 170.5 956 l 1
 27 996.5 l 1
EndSplineSet
Validated: 524289
Colour: ffffff
EndChar

StartChar: x
Encoding: 120 120 200
Width: 1153
VWidth: 0
Flags: W
HStem: 0 64.5<32 73.6387 421.212 465 647.5 698.357 1096.84 1133> 1005.5 67.5<53 87.9486 481.075 526.5 699 732.408 1077 1116>
DStem2: 165 105.5 301 105.5 0.623421 0.781887<84.7852 515.136 703.704 1100.71> 384.5 968.5 189.5 966 0.581238 -0.813733<0 391.522 528.113 947.302>
LayerCount: 2
Fore
SplineSet
21 0 m 1
 32 64 l 1
 165 105.5 l 1
 493.5 532 l 1
 189.5 966 l 1
 44.5 1005.5 l 1
 53 1073 l 1
 539 1073 l 1
 526.5 1008 l 1
 384.5 968.5 l 1
 611.5 649.5 l 1
 854.5 963.5 l 1
 684.5 1005.5 l 1
 699 1073 l 1
 1129.5 1073 l 1
 1116 1006.5 l 1
 987.5 966.5 l 1
 678 566.5 l 1
 1002 104 l 1
 1142.5 64.5 l 1
 1133 0 l 1
 632.5 0 l 1
 647.5 63 l 1
 804 104 l 1
 563 447 l 1
 301 105.5 l 1
 476 66 l 1
 465 0 l 1
 21 0 l 1
EndSplineSet
Validated: 524289
Colour: ffffff
EndChar

StartChar: y
Encoding: 121 121 201
Width: 1155
VWidth: 0
Flags: W
HStem: -467 184.5<121.383 384.409> 992.5 69.5<55.5 83.9195 476.067 521 765.5 791.875>
DStem2: 364.5 956.5 197.5 952 0.343754 -0.93906<0 763.931> 512 -60.5 619 -65.5 0.371784 0.928319<-208.721 80.684 322.645 1087.43>
LayerCount: 2
Fore
SplineSet
37 -337.5 m 0
 37 -296.5 48.5 -254.5 92 -217 c 1
 150 -262 203 -282.5 287 -282.5 c 0
 356 -282.5 441.5 -239 512 -60.5 c 2
 540.5 15 l 1
 197.5 952 l 1
 45 992.5 l 1
 55.5 1062 l 1
 528 1062 l 1
 521 996.5 l 1
 364.5 956.5 l 1
 629.5 240 l 1
 912.5 950.5 l 1
 752.5 994 l 1
 765.5 1062 l 1
 1157 1062 l 1
 1151 996.5 l 1
 1026.5 952 l 1
 619 -65.5 l 2
 504 -352.5 407.5 -467 216 -467 c 0
 112.5 -467 37 -409 37 -337.5 c 0
EndSplineSet
Validated: 524289
Colour: ffffff
EndChar

StartChar: yen
Encoding: 165 165 205
Width: 1421
VWidth: 0
Flags: W
HStem: 0 76.5<428 463.443 977.389 1011.5> 326.5 90<239 628.5 808.5 1221> 623.5 89.5<243.5 605 831.5 1224.5> 1465.5 69<120.5 165.267 586.696 653 839 897.981 1261.46 1316.5>
VStem: 628.5 180<118 326.5 416.5 623.5>
DStem2: 468 1425.5 280.5 1421 0.416655 -0.909065<0 702.48> 762 787.5 831.5 713 0.419987 0.90753<0 691.819>
LayerCount: 2
Fore
SplineSet
110.5 1465.5 m 1
 120.5 1534.5 l 1
 662 1534.5 l 1
 653 1465.5 l 1
 468 1425.5 l 1
 762 787.5 l 1
 1042.5 1420 l 1
 831.5 1465.5 l 1
 839 1534.5 l 1
 1324.5 1534.5 l 1
 1316.5 1465.5 l 1
 1161 1425 l 1
 831.5 713 l 1
 1238 713 l 1
 1224.5 623.5 l 1
 808.5 623.5 l 1
 808.5 416.5 l 1
 1234.5 416.5 l 1
 1221 326.5 l 1
 808.5 326.5 l 1
 808.5 111 l 1
 1023 76.5 l 1
 1011.5 0 l 1
 418.5 0 l 1
 428 69.5 l 1
 628.5 118 l 1
 628.5 326.5 l 1
 226 326.5 l 1
 239 416.5 l 1
 628.5 416.5 l 1
 628.5 623.5 l 1
 230 623.5 l 1
 243.5 713 l 1
 605 713 l 1
 280.5 1421 l 1
 110.5 1465.5 l 1
EndSplineSet
Validated: 524289
Colour: ffffff
EndChar

StartChar: z
Encoding: 122 122 206
Width: 1059
VWidth: 0
Flags: W
HStem: 0 96.5<310 819> 972.5 89.5<280.5 755>
VStem: 141.5 69<730.5 771.314>
DStem2: 118.5 78 310 96.5 0.581793 0.813337<126.46 1097.84>
LayerCount: 2
Fore
SplineSet
118.5 78 m 1
 755 972.5 l 1
 280.5 972.5 l 1
 210.5 719.5 l 1
 141.5 730.5 l 1
 154.5 1062 l 1
 952.5 1062 l 1
 954.5 997.5 l 1
 310 96.5 l 1
 819 96.5 l 1
 912 339.5 l 1
 975 332 l 1
 937.5 0 l 1
 123.5 0 l 1
 118.5 78 l 1
EndSplineSet
Validated: 524289
Colour: ffffff
EndChar

StartChar: zero
Encoding: 48 48 207
Width: 1215
VWidth: 0
Flags: W
HStem: -33 92.5<505.422 759.921> 1388 96<500.04 752.128>
VStem: 129 207.5<355.067 1055.41> 913.5 209<374.87 1089.37>
LayerCount: 2
Fore
SplineSet
129 724.5 m 0
 129 1220 361 1484 634 1484 c 0
 931 1484 1122.5 1227.5 1122.5 724.5 c 0
 1122.5 179.5 877.5 -33 632.5 -33 c 0
 355 -33 129 165 129 724.5 c 0
336.5 720 m 0
 336.5 280.5 434.5 59.5 635.5 59.5 c 0
 833 59.5 913.5 280.5 913.5 724.5 c 0
 913.5 1136 828.5 1388 630.5 1388 c 0
 418.5 1388 336.5 1134.5 336.5 720 c 0
EndSplineSet
Validated: 524289
Colour: ffffff
EndChar

StartChar: zero.osf
Encoding: 65546 -1 208
Width: 1218
VWidth: 0
Flags: W
HStem: -29.9352 91.4757<504.371 772.568> 1119.5 85<497.231 770.341>
VStem: 157.5 195<314.188 838.553> 921 196.5<325.979 870.357>
LayerCount: 2
Fore
SplineSet
157.5 586.5 m 0
 157.5 896.5 347 1206 636.5 1204.5 c 0
 942.999 1202.86 1117.5 930.5 1117.5 593 c 0
 1117.5 203.147 884 -29.9352 637.562 -29.9352 c 0
 372.75 -29.9352 157.5 202.44 157.5 586.5 c 0
352.5 590.5 m 0
 352.5 218 467.322 61.5405 638.545 61.5405 c 0
 805.072 61.5405 921 206.5 921 589.5 c 0
 921 944.5 818.964 1119.5 636.384 1119.5 c 0
 442.714 1119.5 352.5 947.5 352.5 590.5 c 0
EndSplineSet
Validated: 524321
Colour: ffffff
EndChar

StartChar: Euro.osf
Encoding: 65547 -1 209
Width: 1378
VWidth: 0
Flags: W
HStem: -29.5 106.5<568.542 863.267> 431.5 102<22.5 732.5> 632.5 101<24 777> 1116 98<534.075 828.357>
VStem: 22.5 150<435.569 533.5 632.5 722.512> 172.5 206.5<307.388 828.601> 931.5 82.5<760.5 846.353> 946 82.5<329.411 424.5>
LayerCount: 2
Fore
SplineSet
11 431.5 m 1xf8
 22.5 533.5 l 1
 753.5 533.5 l 1
 732.5 431.5 l 1
 11 431.5 l 1xf8
16 632.5 m 1
 24 733.5 l 1
 798 733.5 l 1
 777 632.5 l 1
 16 632.5 l 1
172.5 565.5 m 0xf5
 172.5 908.5 381 1214 730.5 1214 c 0
 858 1214 957.5 1176.5 1051.5 1107.5 c 1
 1014 748 l 1
 931.5 760.5 l 1xf6
 887.5 1024 l 1
 832 1080 770.5 1116 680 1116 c 0
 475 1116 379 925 379 604.5 c 1
 379 264 502 77 738 77 c 0
 805.5 77 870.5 116 906.5 162.5 c 1
 946 424.5 l 1
 1028.5 436 l 1
 1067 102 l 1
 952.5 10 864 -29.5 701 -29.5 c 0
 375.5 -29.5 172.5 202 172.5 565.5 c 0xf5
EndSplineSet
Validated: 524293
Colour: ffffff
EndChar

StartChar: ampersand.osf
Encoding: 65548 -1 210
Width: 1582
VWidth: 0
Flags: W
HStem: -24.5 115<447.5 709.033> 672 62.5<878 923.495 1273.21 1341> 1125 85<510.563 702.531>
VStem: 193.5 186.5<156.653 397.445> 314.5 154<836.272 1061.12> 754.5 147.5<826.137 1073.44>
LayerCount: 2
Fore
SplineSet
193.5 248.5 m 1xf4
 193.5 590.312 754.5 635.901 754.5 941 c 0
 754.5 1052.5 693 1125 600 1125 c 0
 525 1125 468.5 1058 468.5 968 c 0
 468.5 880 536 793.5 626 686 c 2
 919 324 l 2
 1065.5 144.5 1163 107 1258.5 79.5 c 2
 1308.5 65 l 1
 1295.5 -1 l 1
 1246 -18.5 1213.5 -23.5 1164 -23.5 c 0
 1057.5 -23.5 938.5 38 849 148 c 2
 461 626 l 2
 387 716 314.5 814.5 314.5 922 c 0xec
 314.5 1066.5 458 1210 624.5 1210 c 0
 798.5 1210 903 1106.5 902 977.5 c 0
 898.5 626.5 380 594.5 380 291.5 c 0
 380 179.5 453 90.5 559 90.5 c 0
 749 90.5 875 247 1035 627.5 c 1
 870.5 672 l 1
 878 734.5 l 1
 1350.5 734.5 l 1
 1341 672 l 1
 1149.5 631.5 l 1
 957 258.5 858.5 -24.5 495.5 -24.5 c 0
 291 -24.5 194 104.5 193.5 248.5 c 1xf4
EndSplineSet
Validated: 524325
Colour: ffffff
EndChar

StartChar: dollar.osf
Encoding: 65549 -1 211
Width: 1062
VWidth: 0
Flags: W
HStem: 1098 12.5<409.5 522.5>
VStem: 87.5 130.5<193.027 257.853> 133 131.5<766.088 956.242> 383 157<-223.009 -69.4182 1183.84 1286.92> 653 145<122.06 301>
LayerCount: 2
Fore
SplineSet
87.5 197 m 0xd8
 87.5 273.5 145 324 218 333 c 1xd8
 260 137.5 337.5 49 468.5 49 c 0
 574 49 653 119.5 653 206 c 0
 653 420 133 472 133 799.5 c 0
 133 943.5 240 1110.5 474.5 1110.5 c 0
 635.5 1110.5 759 1020 759 895 c 0
 759 800.5 702.5 756.5 629 750.5 c 1
 619 799 l 2
 576 988.5 501.5 1031 427.5 1031 c 0
 325 1031 264.5 970 264.5 878.5 c 0xb8
 264.5 621.5 798 579.5 798 269.5 c 0
 798 86.5 620 -43 429.5 -43 c 0
 232.5 -43 87.5 63 87.5 197 c 0xd8
383 -243 m 1
 401.5 -19 l 1
 522.5 -7 l 1
 540 -221 l 1
 383 -243 l 1
392 1285 m 1
 540 1306 l 1
 522.5 1098 l 1
 409.5 1098 l 1
 392 1285 l 1
EndSplineSet
Validated: 524293
Colour: ffffff
EndChar

StartChar: paragraph.osf
Encoding: 65550 -1 212
Width: 1648
VWidth: 0
Flags: W
HStem: 0.5 71<634 718.075 1454.36 1528> 421 94<651.031 828> 1111 90<629.875 917> 1131 71.5<1440.78 1523.5>
VStem: 302.5 202<648.479 961.731> 915.5 159<119.5 1108.5> 1160 150<110 1094>
LayerCount: 2
Fore
SplineSet
302.5 790 m 0xee
 302.5 1048 554 1201 827 1201 c 2
 1074.5 1201 l 1
 1074.5 0.5 l 1
 626 0.5 l 1
 634 71.5 l 1
 915.5 119.5 l 1
 917 1108.5 l 1
 871.5 1110.5 842 1111 830.5 1111 c 0
 633.5 1111 504.5 1037.5 504.5 810.5 c 0
 504.5 627 622 518.5 848.5 515 c 1
 828 421 l 1
 516 421 302.5 499 302.5 790 c 0xee
1160 -1.5 m 1
 1160 1202.5 l 1
 1532.5 1202.5 l 1
 1523.5 1131 l 1xde
 1310 1094 l 1
 1310 110 l 1
 1540 78 l 1
 1528 -1.5 l 1
 1160 -1.5 l 1
EndSplineSet
Validated: 524289
Colour: ffffff
EndChar

StartChar: percent.osf
Encoding: 65551 -1 213
Width: 1811
VWidth: 0
Flags: W
HStem: -42 64<974.009 1110.16> 538.5 55<974.53 1097.29> 560.5 64<245.434 381.533> 1126 67<311.411 353.5 523 824.194> 1141 56<243.346 352.903>
VStem: 29 148<702.291 1044.04> 448 148<716.185 1075.38> 754 149<99.5704 440.722> 1175 146<112.932 449.613>
DStem2: 607.5 572 742.5 576.5 0.603832 0.797112<-381.605 617.5>
LayerCount: 2
Fore
SplineSet
29 879 m 0xaf80
 29 1055 166 1197 310.5 1197 c 0xaf80
 330 1197 345 1196 353.5 1193 c 1
 353.5 1126 l 17x9780
 336.5 1135.5 329 1141 307 1141 c 0
 210.5 1141 177 996 177 878 c 0
 177 756.5 222 624.5 309.5 624.5 c 0
 408.5 624.5 448 754.5 448 879 c 0
 448 1019.5 414.5 1124 393 1180 c 9
 1038.5 1195 l 25
 1050 1114.5 l 25
 523 1123.5 l 17
 569 1074 596 930.5 596 878 c 0
 596 698.5 447 560.5 309.5 560.5 c 0
 160.5 560.5 29 679.5 29 879 c 0xaf80
154.5 -26 m 1
 607.5 572 l 1
 1038.5 1195 l 1
 1195.5 1190.5 l 1
 1194.5 1173 l 1
 742.5 576.5 l 1
 328 -40.5 l 1
 154.5 -26 l 1
754 275 m 0
 754 451 891.5 593.5 1036 593.5 c 0xc780
 1202 593.5 1321 458.5 1321 272 c 0
 1321 96 1176 -42 1038.5 -42 c 0
 889.5 -42 754 77.5 754 275 c 0
903 275 m 0
 903 153.5 951 22 1038.5 22 c 0
 1137.5 22 1175 150.5 1175 277.5 c 0
 1175 402 1125.5 538.5 1036 538.5 c 0
 936.5 538.5 903 393 903 275 c 0
EndSplineSet
Validated: 524293
Colour: ffffff
EndChar

StartChar: perthousand.osf
Encoding: 65552 -1 214
Width: 2108
VWidth: 0
Flags: W
HStem: -42 64<974.009 1110.16 1644.53 1780.62> 538.5 55<974.53 1097.29 1645.49 1768.29> 560.5 64<245.434 381.533> 1126 67<311.411 353.5 523 824.194> 1141 56<243.346 352.903>
VStem: 29 148<702.291 1044.04> 448 148<716.185 1075.38> 754 149<99.5704 440.722> 1175 146<112.932 449.613> 1423.5 150.5<99.6679 439.79> 1845.5 145<109.896 451.17>
DStem2: 607.5 572 742.5 576.5 0.603832 0.797112<-376.291 617.5>
LayerCount: 2
Fore
SplineSet
29 879 m 0xafe0
 29 1055 166 1197 310.5 1197 c 0xafe0
 330 1197 345 1196 353.5 1193 c 1
 353.5 1126 l 17x97e0
 336.5 1135.5 329 1141 307 1141 c 0
 210.5 1141 177 996 177 878 c 0
 177 756.5 222 624.5 309.5 624.5 c 0
 408.5 624.5 448 754.5 448 879 c 0
 448 1019.5 414.5 1124 393 1180 c 9
 1038.5 1195 l 25
 1050 1114.5 l 25
 523 1123.5 l 17
 569 1074 596 930.5 596 878 c 0
 596 698.5 447 560.5 309.5 560.5 c 0
 160.5 560.5 29 679.5 29 879 c 0xafe0
154.5 -26 m 1
 607.5 572 l 1
 1038.5 1195 l 1
 1195.5 1190.5 l 1
 1194.5 1172.5 l 1
 742.5 576.5 l 1
 328 -40.5 l 1
 154.5 -26 l 1
754 275 m 0
 754 451 891.5 593.5 1036 593.5 c 0xc7e0
 1202 593.5 1321 458.5 1321 272 c 0
 1321 96 1176 -42 1038.5 -42 c 0
 889.5 -42 754 77.5 754 275 c 0
903 275 m 0
 903 153.5 951 22 1038.5 22 c 0
 1137.5 22 1175 150.5 1175 277.5 c 0
 1175 402 1125.5 538.5 1036 538.5 c 0
 936.5 538.5 903 393 903 275 c 0
1423.5 274.5 m 0
 1423.5 450.5 1562.5 591.5 1707 591.5 c 0
 1873.5 591.5 1990.5 458.5 1990.5 272 c 0
 1990.5 96 1846.5 -41 1709 -41 c 0
 1560 -41 1423.5 77 1423.5 274.5 c 0
1574 274.5 m 0
 1574 153 1621.5 23 1709 23 c 0
 1808 23 1845.5 150 1845.5 277 c 0
 1845.5 401.5 1796.5 537 1707 537 c 0
 1607.5 537 1574 392.5 1574 274.5 c 0
EndSplineSet
Validated: 524293
Colour: ffffff
EndChar

StartChar: sterling.osf
Encoding: 65553 -1 215
Width: 1585
VWidth: 0
Flags: W
HStem: 0 96<529 1047.5> 0 71<163 232.346> 1126 85<686.456 913.982>
VStem: 420 187<156.279 509 612 950.229> 998 151<973.3 1032.15>
DStem2: 215 590 201 497 0.998434 0.0559347<0 200.148 395.612 695.94>
LayerCount: 2
Fore
SplineSet
156 0 m 1x78
 163 71 l 1x78
 371 114 l 1
 408 193 420 290 420 395 c 2
 420 509 l 1
 201 497 l 1
 215 590 l 1
 425 602 l 1
 428 747 l 1
 433.5 1008 562 1211 842 1211 c 0
 993 1211 1149 1129 1149 1034 c 0
 1149 947.5 1075.5 900.5 998 886 c 1
 978 1024.5 921 1126 820 1126 c 0
 631 1126 610 1003 610 684 c 2
 610 612 l 1
 928 629 l 1
 915 537 l 1
 607 516 l 1
 607 462 l 2
 607 297 585 167 529 96 c 1
 1047.5 96 l 1xb8
 1169 390 l 1
 1245 371 l 1
 1211 0 l 1
 156 0 l 1x78
EndSplineSet
Validated: 524289
Colour: ffffff
EndChar

StartChar: uni1E9E.alt
Encoding: 65554 -1 216
Width: 1585
VWidth: 0
Flags: W
HStem: -31 101.5<976.671 1312.48> 0 71.5<155.5 217.623> 1483.5 87.5<738.233 1239.47>
VStem: 363.5 182<119.5 1206.72> 719.5 93.5<390.975 480> 1426.5 182<211.737 466.475>
DStem2: 847.5 877.5 1083 927 0.594984 0.803738<179.904 687.413>
LayerCount: 2
Fore
SplineSet
147 0 m 1x7c
 155.5 71.5 l 1x7c
 363.5 119.5 l 1
 363.5 897 l 2
 363.5 1344.5 550.5 1571 960.5 1571 c 0
 1185.5 1571 1397.5 1550.5 1485 1524 c 1
 1486 1460 l 1
 1083 927 l 1
 1266.5 819.5 1608.5 699 1608.5 399 c 0
 1608.5 139 1402 -31 1104.5 -31 c 0
 926 -31 766.5 48 693 152 c 1
 719.5 494 l 1
 813 480 l 1
 853.5 228.5 l 1
 903.5 138 1023.5 70.5 1151 70.5 c 0xbc
 1304 70.5 1426.5 159 1426.5 329.5 c 0
 1426.5 575.5 1065.5 715 874.5 822 c 1
 847.5 877.5 l 1
 1256.5 1430 l 1
 1256.5 1435 l 1
 1196.5 1459 992.5 1483.5 914 1483.5 c 0
 634.5 1483.5 545.5 1250.5 545.5 925.5 c 2
 545.5 0 l 1
 147 0 l 1x7c
EndSplineSet
Validated: 524289
Colour: ffffff
EndChar

StartChar: uni1E9E.alt2
Encoding: 65555 -1 217
Width: 1436
VWidth: 1024
Flags: W
HStem: -31 101.5<918.371 1266.78> 0 71.5<99.5 161.623> 1074.5 21G<1321 1412.77> 1483.5 87.5<689.936 1042.08>
VStem: 307.5 182<119.5 1232.87> 663.5 93.5<385.975 475> 1321 90<1085.5 1201.51> 1371 182<201.637 453.222>
LayerCount: 2
Fore
SplineSet
91 0 m 1x7d
 99.5 71.5 l 1
 307.5 119.5 l 1
 307.5 943.5 l 2
 307.5 1369 516.5 1571 905 1571 c 0
 1128.5 1571 1343.5 1534 1443.5 1441 c 1
 1411 1074.5 l 1
 1321 1085.5 l 1x7e
 1288.5 1348.5 l 1
 1232.5 1405.5 1174.5 1442.5 1081.5 1442.5 c 0
 946 1442.5 825 1290 870 1122 c 0
 950 787.801 1553 784.13 1553 389 c 0
 1553 128.5 1346 -31 1048.5 -31 c 0
 869 -31 710 42.5 637 147.5 c 1
 663.5 489 l 1
 757 475 l 1
 797.5 223.5 l 1
 848 134 969 70.5 1095.5 70.5 c 0xbd
 1256.5 70.5 1371 154.5 1371 319 c 0
 1371 670.106 684 656.535 684 1098.5 c 0
 684 1273.5 791.5 1435 965 1475.5 c 1
 967 1479.5 l 1
 938.5 1482 891.5 1483.5 858.5 1483.5 c 0
 614 1483.5 489.5 1293 489.5 972 c 2
 489.5 0 l 1
 91 0 l 1x7d
EndSplineSet
Validated: 524321
Colour: ffffff
EndChar

StartChar: yen.osf
Encoding: 65556 -1 218
Width: 1466
VWidth: 0
Flags: W
HStem: 0 76.5<473 508.443 1022.39 1056.5> 377.5 90<286.5 656.5 870.5 1268.5> 648 89<286.5 638 942.5 1268.5> 1117.5 68<221.5 264.477 672.055 728 863.5 913.663 1257.13 1310.5>
VStem: 673.5 180<118 377.5>
DStem2: 803.5 535.5 899 648 0.398757 0.917057<141.25 240.214>
LayerCount: 2
Back
SplineSet
303.394 971.602 m 1
 306.894 608.23 l 1
 629.294 597.471 l 1
 624.324 551.242 l 1
 311.101 533.742 l 1
 433.585 279.761 l 1
 647.695 569.214 l 1
 563.695 928.193 l 1
 480.974 948.693 l 1
 694.2 968.728 l 1
 813.021 971.602 l 1
 734.521 953.602 l 1
 586.021 646.102 l 1
 811.521 646.102 l 1
 805.021 616.602 l 1
 586.021 616.602 l 1
 586.021 462.602 l 1
 699.021 449.602 l 1
 693.521 421.102 l 1
 409.521 421.102 l 1
 413.021 446.602 l 1
 521.021 465.602 l 1
 521.021 616.602 l 1
 310.021 616.602 l 1
 316.021 646.102 l 1
 521.021 646.102 l 1
 378.521 952.102 l 1
 303.394 971.602 l 1
EndSplineSet
Fore
SplineSet
210 1117.5 m 1
 221.5 1185.5 l 1
 737 1185.5 l 1
 728 1117.5 l 1
 568 1076.5 l 1
 803.5 535.5 l 1
 1037 1072.5 l 1
 856 1117.5 l 1
 863.5 1185 l 1
 1319 1185 l 1
 1310.5 1117.5 l 1
 1156 1076 l 1
 870.5 467.5 l 1
 1281.5 467.5 l 1
 1268.5 377.5 l 1
 853.5 377.5 l 1
 853.5 111 l 1
 1068 76.5 l 1
 1056.5 0 l 1
 463.5 0 l 1
 473 69.5 l 1
 673.5 118 l 1
 673.5 377.5 l 1
 273 377.5 l 1
 286.5 467.5 l 1
 656.5 467.5 l 1
 381 1072.5 l 1
 210 1117.5 l 1
273 648 m 1
 286.5 737 l 1
 638 737 l 9
 671 648 l 17
 273 648 l 1
899 648 m 9
 942.5 737 l 17
 1281.5 737 l 1
 1268.5 648 l 1
 899 648 l 9
EndSplineSet
Validated: 524293
Colour: ffffff
EndChar

